%TF.GenerationSoftware,KiCad,Pcbnew,10.0.5*%
%TF.CreationDate,2026-08-21T07:14:12+02:00*%
%TF.ProjectId,BS-02,42532d30-322e-46b6-9963-61645f706362,rev?*%
%TF.SameCoordinates,Original*%
%TF.FileFunction,Copper,L1,Top*%
%TF.FilePolarity,Positive*%
%FSLAX46Y46*%
G04 Gerber Fmt 4.6, Leading zero omitted, Abs format (unit mm)*
G04 Created by KiCad (PCBNEW 10.0.5) date 2026-08-21 07:14:12*
%MOMM*%
%LPD*%
G01*
G04 APERTURE LIST*
G04 Aperture macros list*
%AMRoundRect*
0 Rectangle with rounded corners*
0 $1 Rounding radius*
0 $2 $3 $4 $5 $6 $7 $8 $9 X,Y pos of 4 corners*
0 Add a 4 corners polygon primitive as box body*
4,1,4,$2,$3,$4,$5,$6,$7,$8,$9,$2,$3,0*
0 Add four circle primitives for the rounded corners*
1,1,$1+$1,$2,$3*
1,1,$1+$1,$4,$5*
1,1,$1+$1,$6,$7*
1,1,$1+$1,$8,$9*
0 Add four rect primitives between the rounded corners*
20,1,$1+$1,$2,$3,$4,$5,0*
20,1,$1+$1,$4,$5,$6,$7,0*
20,1,$1+$1,$6,$7,$8,$9,0*
20,1,$1+$1,$8,$9,$2,$3,0*%
G04 Aperture macros list end*
%TA.AperFunction,ComponentPad*%
%ADD10C,1.600000*%
%TD*%
%TA.AperFunction,ComponentPad*%
%ADD11RoundRect,0.250000X-0.550000X-0.550000X0.550000X-0.550000X0.550000X0.550000X-0.550000X0.550000X0*%
%TD*%
%TA.AperFunction,ComponentPad*%
%ADD12R,1.700000X1.700000*%
%TD*%
%TA.AperFunction,ComponentPad*%
%ADD13C,1.700000*%
%TD*%
%TA.AperFunction,ComponentPad*%
%ADD14R,1.800000X1.800000*%
%TD*%
%TA.AperFunction,ComponentPad*%
%ADD15C,1.800000*%
%TD*%
%TA.AperFunction,Conductor*%
%ADD16C,0.400000*%
%TD*%
G04 APERTURE END LIST*
D10*
%TO.P,R4,1*%
%TO.N,LED_R*%
X55000000Y-119000000D03*
%TO.P,R4,2*%
%TO.N,K4*%
X55000000Y-126620000D03*
%TD*%
%TO.P,C2,1*%
%TO.N,+3V3*%
X33000000Y-79000000D03*
%TO.P,C2,2*%
%TO.N,GND*%
X38000000Y-79000000D03*
%TD*%
D11*
%TO.P,C5,1*%
%TO.N,+5V*%
X33000000Y-59000000D03*
D10*
%TO.P,C5,2*%
%TO.N,GND*%
X35500000Y-59000000D03*
%TD*%
%TO.P,R6,1*%
%TO.N,+3V3*%
X123000000Y-51000000D03*
%TO.P,R6,2*%
%TO.N,I2C_SCL*%
X130620000Y-51000000D03*
%TD*%
%TO.P,R2,1*%
%TO.N,LED_B*%
X81000000Y-119000000D03*
%TO.P,R2,2*%
%TO.N,K2*%
X81000000Y-126620000D03*
%TD*%
D12*
%TO.P,J2,1*%
%TO.N,+3V3*%
X151000000Y-107000000D03*
D13*
%TO.P,J2,2*%
%TO.N,LORA_RST*%
X151000000Y-109540000D03*
%TO.P,J2,3*%
%TO.N,LORA_DIO0*%
X151000000Y-112080000D03*
%TD*%
D14*
%TO.P,LED4,1*%
%TO.N,GND*%
X55000000Y-135000000D03*
D15*
%TO.P,LED4,2*%
%TO.N,K4*%
X55000000Y-132460000D03*
%TD*%
D10*
%TO.P,C1,1*%
%TO.N,+3V3*%
X33000000Y-69000000D03*
%TO.P,C1,2*%
%TO.N,GND*%
X38000000Y-69000000D03*
%TD*%
D12*
%TO.P,U1B,1*%
%TO.N,GND*%
X98400000Y-59000000D03*
D13*
%TO.P,U1B,2*%
%TO.N,SPI_MOSI*%
X98400000Y-61540000D03*
%TO.P,U1B,3*%
%TO.N,I2C_SCL*%
X98400000Y-64080000D03*
%TO.P,U1B,4*%
%TO.N,TX0*%
X98400000Y-66620000D03*
%TO.P,U1B,5*%
%TO.N,RX0*%
X98400000Y-69160000D03*
%TO.P,U1B,6*%
%TO.N,I2C_SDA*%
X98400000Y-71700000D03*
%TO.P,U1B,7*%
%TO.N,GND*%
X98400000Y-74240000D03*
%TO.P,U1B,8*%
%TO.N,SPI_MISO*%
X98400000Y-76780000D03*
%TO.P,U1B,9*%
%TO.N,SPI_SCK*%
X98400000Y-79320000D03*
%TO.P,U1B,10*%
%TO.N,LORA_NSS*%
X98400000Y-81860000D03*
%TO.P,U1B,11*%
%TO.N,N/C*%
X98400000Y-84400000D03*
%TO.P,U1B,12*%
X98400000Y-86940000D03*
%TO.P,U1B,13*%
%TO.N,LED_B*%
X98400000Y-89480000D03*
%TO.P,U1B,14*%
%TO.N,N/C*%
X98400000Y-92020000D03*
%TO.P,U1B,15*%
%TO.N,LED_G*%
X98400000Y-94560000D03*
%TO.P,U1B,16*%
%TO.N,LED_Y*%
X98400000Y-97100000D03*
%TO.P,U1B,17*%
%TO.N,N/C*%
X98400000Y-99640000D03*
%TO.P,U1B,18*%
X98400000Y-102180000D03*
%TO.P,U1B,19*%
X98400000Y-104720000D03*
%TD*%
D10*
%TO.P,R3,1*%
%TO.N,LED_Y*%
X91000000Y-119000000D03*
%TO.P,R3,2*%
%TO.N,K3*%
X91000000Y-126620000D03*
%TD*%
D12*
%TO.P,U4,1*%
%TO.N,+12V*%
X55000000Y-31000000D03*
D13*
%TO.P,U4,2*%
%TO.N,GND*%
X55000000Y-33540000D03*
%TO.P,U4,3*%
%TO.N,+5V*%
X55000000Y-36080000D03*
%TO.P,U4,4*%
%TO.N,GND*%
X55000000Y-38620000D03*
%TD*%
D14*
%TO.P,LED2,1*%
%TO.N,GND*%
X81000000Y-135000000D03*
D15*
%TO.P,LED2,2*%
%TO.N,K2*%
X81000000Y-132460000D03*
%TD*%
D12*
%TO.P,CN2,1*%
%TO.N,+5V*%
X147000000Y-87000000D03*
D13*
%TO.P,CN2,2*%
%TO.N,GND*%
X147000000Y-89540000D03*
%TO.P,CN2,3*%
%TO.N,RX0*%
X147000000Y-92080000D03*
%TO.P,CN2,4*%
%TO.N,TX0*%
X147000000Y-94620000D03*
%TD*%
D12*
%TO.P,U3,1*%
%TO.N,GND*%
X147000000Y-51000000D03*
D13*
%TO.P,U3,2*%
%TO.N,+3V3*%
X147000000Y-53540000D03*
%TO.P,U3,3*%
%TO.N,I2C_SCL*%
X147000000Y-56080000D03*
%TO.P,U3,4*%
%TO.N,I2C_SDA*%
X147000000Y-58620000D03*
%TD*%
D12*
%TO.P,U1A,1*%
%TO.N,N/C*%
X73000000Y-59000000D03*
D13*
%TO.P,U1A,2*%
X73000000Y-61540000D03*
%TO.P,U1A,3*%
X73000000Y-64080000D03*
%TO.P,U1A,4*%
X73000000Y-66620000D03*
%TO.P,U1A,5*%
X73000000Y-69160000D03*
%TO.P,U1A,6*%
X73000000Y-71700000D03*
%TO.P,U1A,7*%
X73000000Y-74240000D03*
%TO.P,U1A,8*%
X73000000Y-76780000D03*
%TO.P,U1A,9*%
X73000000Y-79320000D03*
%TO.P,U1A,10*%
%TO.N,LORA_DIO0*%
X73000000Y-81860000D03*
%TO.P,U1A,11*%
%TO.N,N/C*%
X73000000Y-84400000D03*
%TO.P,U1A,12*%
%TO.N,LORA_RST*%
X73000000Y-86940000D03*
%TO.P,U1A,13*%
%TO.N,N/C*%
X73000000Y-89480000D03*
%TO.P,U1A,14*%
%TO.N,GND*%
X73000000Y-92020000D03*
%TO.P,U1A,15*%
%TO.N,LED_R*%
X73000000Y-94560000D03*
%TO.P,U1A,16*%
%TO.N,N/C*%
X73000000Y-97100000D03*
%TO.P,U1A,17*%
X73000000Y-99640000D03*
%TO.P,U1A,18*%
X73000000Y-102180000D03*
%TO.P,U1A,19*%
%TO.N,+5V*%
X73000000Y-104720000D03*
%TD*%
D12*
%TO.P,CN1,1*%
%TO.N,+12V*%
X39000000Y-41000000D03*
D13*
%TO.P,CN1,2*%
%TO.N,GND*%
X39000000Y-43540000D03*
%TD*%
D10*
%TO.P,R5,1*%
%TO.N,+3V3*%
X123000000Y-45000000D03*
%TO.P,R5,2*%
%TO.N,I2C_SDA*%
X130620000Y-45000000D03*
%TD*%
D12*
%TO.P,J1,1*%
%TO.N,GND*%
X107000000Y-104110000D03*
D13*
%TO.P,J1,2*%
%TO.N,LORA_NSS*%
X107000000Y-106650000D03*
%TO.P,J1,3*%
%TO.N,SPI_MOSI*%
X107000000Y-109190000D03*
%TO.P,J1,4*%
%TO.N,SPI_MISO*%
X107000000Y-111730000D03*
%TO.P,J1,5*%
%TO.N,SPI_SCK*%
X107000000Y-114270000D03*
%TO.P,J1,6*%
%TO.N,GND*%
X107000000Y-116810000D03*
%TO.P,J1,7*%
X107000000Y-119350000D03*
%TO.P,J1,8*%
X107000000Y-121890000D03*
%TD*%
D14*
%TO.P,LED3,1*%
%TO.N,GND*%
X91000000Y-135000000D03*
D15*
%TO.P,LED3,2*%
%TO.N,K3*%
X91000000Y-132460000D03*
%TD*%
D10*
%TO.P,R1,1*%
%TO.N,LED_G*%
X71000000Y-119000000D03*
%TO.P,R1,2*%
%TO.N,K1*%
X71000000Y-126620000D03*
%TD*%
D12*
%TO.P,J3,1*%
%TO.N,GND*%
X73000000Y-34700000D03*
D13*
%TO.P,J3,2*%
%TO.N,+3V3*%
X73000000Y-37240000D03*
%TO.P,J3,3*%
%TO.N,+5V*%
X73000000Y-39780000D03*
%TD*%
D14*
%TO.P,LED1,1*%
%TO.N,GND*%
X71000000Y-135000000D03*
D15*
%TO.P,LED1,2*%
%TO.N,K1*%
X71000000Y-132460000D03*
%TD*%
%TO.N,GND*%
D16*
X145000000Y-51400000D02*
X146600000Y-51400000D01*
X146600000Y-89000000D02*
X145000000Y-89000000D01*
X109000000Y-104600000D02*
X109000000Y-116600000D01*
X98200000Y-59400000D02*
X96600000Y-59400000D01*
X107400000Y-104600000D02*
X109000000Y-104600000D01*
X72600000Y-91800000D02*
X71000000Y-91800000D01*
X96600000Y-73800000D02*
X98200000Y-73800000D01*
X145000000Y-89000000D02*
X145000000Y-51400000D01*
X71000000Y-91800000D02*
X71000000Y-57000000D01*
X96600000Y-59400000D02*
X96600000Y-73800000D01*
X109000000Y-116600000D02*
X107400000Y-116600000D01*
X96600000Y-73800000D02*
X98200000Y-73800000D01*
X71000000Y-57000000D02*
X96600000Y-57000000D01*
X96600000Y-57000000D02*
X96600000Y-73800000D01*
%TO.N,+5V*%
X35000000Y-60600000D02*
X33400000Y-60600000D01*
X71000000Y-36600000D02*
X71000000Y-39400000D01*
X71000000Y-39400000D02*
X72600000Y-39400000D01*
X33400000Y-60600000D02*
X33400000Y-59400000D01*
X72600000Y-104200000D02*
X35000000Y-104200000D01*
X35000000Y-104200000D02*
X35000000Y-60600000D01*
X55400000Y-36600000D02*
X71000000Y-36600000D01*
%TO.N,LORA_RST*%
X153000000Y-109800000D02*
X151400000Y-109800000D01*
X95000000Y-87400000D02*
X95000000Y-123800000D01*
X95000000Y-123800000D02*
X153000000Y-123800000D01*
X153000000Y-123800000D02*
X153000000Y-109800000D01*
X73400000Y-87400000D02*
X95000000Y-87400000D01*
%TO.N,LORA_DIO0*%
X73400000Y-82200000D02*
X96600000Y-82200000D01*
X105000000Y-102200000D02*
X149000000Y-102200000D01*
X149000000Y-111800000D02*
X150600000Y-111800000D01*
X96600000Y-82200000D02*
X96600000Y-106600000D01*
X149000000Y-102200000D02*
X149000000Y-111800000D01*
X96600000Y-106600000D02*
X105000000Y-106600000D01*
X105000000Y-106600000D02*
X105000000Y-102200000D01*
%TO.N,I2C_SCL*%
X130199999Y-63800000D02*
X130199999Y-51400000D01*
X99000000Y-63800000D02*
X130199999Y-63800000D01*
%TD*%
M02*
