%TF.GenerationSoftware,KiCad,Pcbnew,10.0.5*%
%TF.CreationDate,2026-08-21T07:14:12+02:00*%
%TF.ProjectId,BS-02,42532d30-322e-46b6-9963-61645f706362,rev?*%
%TF.SameCoordinates,Original*%
%TF.FileFunction,Copper,L2,Bot*%
%TF.FilePolarity,Positive*%
%FSLAX46Y46*%
G04 Gerber Fmt 4.6, Leading zero omitted, Abs format (unit mm)*
G04 Created by KiCad (PCBNEW 10.0.5) date 2026-08-21 07:14:12*
%MOMM*%
%LPD*%
G01*
G04 APERTURE LIST*
G04 Aperture macros list*
%AMRoundRect*
0 Rectangle with rounded corners*
0 $1 Rounding radius*
0 $2 $3 $4 $5 $6 $7 $8 $9 X,Y pos of 4 corners*
0 Add a 4 corners polygon primitive as box body*
4,1,4,$2,$3,$4,$5,$6,$7,$8,$9,$2,$3,0*
0 Add four circle primitives for the rounded corners*
1,1,$1+$1,$2,$3*
1,1,$1+$1,$4,$5*
1,1,$1+$1,$6,$7*
1,1,$1+$1,$8,$9*
0 Add four rect primitives between the rounded corners*
20,1,$1+$1,$2,$3,$4,$5,0*
20,1,$1+$1,$4,$5,$6,$7,0*
20,1,$1+$1,$6,$7,$8,$9,0*
20,1,$1+$1,$8,$9,$2,$3,0*%
G04 Aperture macros list end*
%TA.AperFunction,ComponentPad*%
%ADD10C,1.600000*%
%TD*%
%TA.AperFunction,ComponentPad*%
%ADD11RoundRect,0.250000X-0.550000X-0.550000X0.550000X-0.550000X0.550000X0.550000X-0.550000X0.550000X0*%
%TD*%
%TA.AperFunction,ComponentPad*%
%ADD12R,1.700000X1.700000*%
%TD*%
%TA.AperFunction,ComponentPad*%
%ADD13C,1.700000*%
%TD*%
%TA.AperFunction,ComponentPad*%
%ADD14R,1.800000X1.800000*%
%TD*%
%TA.AperFunction,ComponentPad*%
%ADD15C,1.800000*%
%TD*%
%TA.AperFunction,SMDPad,CuDef*%
%ADD16RoundRect,0.375000X0.625000X0.375000X-0.625000X0.375000X-0.625000X-0.375000X0.625000X-0.375000X0*%
%TD*%
%TA.AperFunction,SMDPad,CuDef*%
%ADD17RoundRect,0.500000X0.500000X1.400000X-0.500000X1.400000X-0.500000X-1.400000X0.500000X-1.400000X0*%
%TD*%
%TA.AperFunction,SMDPad,CuDef*%
%ADD18R,2.000000X1.500000*%
%TD*%
%TA.AperFunction,Conductor*%
%ADD19C,2.000000*%
%TD*%
%TA.AperFunction,Conductor*%
%ADD20C,1.200000*%
%TD*%
%TA.AperFunction,Conductor*%
%ADD21C,0.800000*%
%TD*%
G04 APERTURE END LIST*
D10*
%TO.P,R4,1*%
%TO.N,LED_R*%
X55000000Y-119000000D03*
%TO.P,R4,2*%
%TO.N,K4*%
X55000000Y-126620000D03*
%TD*%
%TO.P,C2,1*%
%TO.N,+3V3*%
X33000000Y-79000000D03*
%TO.P,C2,2*%
%TO.N,GND*%
X38000000Y-79000000D03*
%TD*%
D11*
%TO.P,C5,1*%
%TO.N,+5V*%
X33000000Y-59000000D03*
D10*
%TO.P,C5,2*%
%TO.N,GND*%
X35500000Y-59000000D03*
%TD*%
%TO.P,R6,1*%
%TO.N,+3V3*%
X123000000Y-51000000D03*
%TO.P,R6,2*%
%TO.N,I2C_SCL*%
X130620000Y-51000000D03*
%TD*%
%TO.P,R2,1*%
%TO.N,LED_B*%
X81000000Y-119000000D03*
%TO.P,R2,2*%
%TO.N,K2*%
X81000000Y-126620000D03*
%TD*%
D12*
%TO.P,J2,1*%
%TO.N,+3V3*%
X151000000Y-107000000D03*
D13*
%TO.P,J2,2*%
%TO.N,LORA_RST*%
X151000000Y-109540000D03*
%TO.P,J2,3*%
%TO.N,LORA_DIO0*%
X151000000Y-112080000D03*
%TD*%
D14*
%TO.P,LED4,1*%
%TO.N,GND*%
X55000000Y-135000000D03*
D15*
%TO.P,LED4,2*%
%TO.N,K4*%
X55000000Y-132460000D03*
%TD*%
D10*
%TO.P,C1,1*%
%TO.N,+3V3*%
X33000000Y-69000000D03*
%TO.P,C1,2*%
%TO.N,GND*%
X38000000Y-69000000D03*
%TD*%
D12*
%TO.P,U1B,1*%
%TO.N,GND*%
X98400000Y-59000000D03*
D13*
%TO.P,U1B,2*%
%TO.N,SPI_MOSI*%
X98400000Y-61540000D03*
%TO.P,U1B,3*%
%TO.N,I2C_SCL*%
X98400000Y-64080000D03*
%TO.P,U1B,4*%
%TO.N,TX0*%
X98400000Y-66620000D03*
%TO.P,U1B,5*%
%TO.N,RX0*%
X98400000Y-69160000D03*
%TO.P,U1B,6*%
%TO.N,I2C_SDA*%
X98400000Y-71700000D03*
%TO.P,U1B,7*%
%TO.N,GND*%
X98400000Y-74240000D03*
%TO.P,U1B,8*%
%TO.N,SPI_MISO*%
X98400000Y-76780000D03*
%TO.P,U1B,9*%
%TO.N,SPI_SCK*%
X98400000Y-79320000D03*
%TO.P,U1B,10*%
%TO.N,LORA_NSS*%
X98400000Y-81860000D03*
%TO.P,U1B,11*%
%TO.N,N/C*%
X98400000Y-84400000D03*
%TO.P,U1B,12*%
X98400000Y-86940000D03*
%TO.P,U1B,13*%
%TO.N,LED_B*%
X98400000Y-89480000D03*
%TO.P,U1B,14*%
%TO.N,N/C*%
X98400000Y-92020000D03*
%TO.P,U1B,15*%
%TO.N,LED_G*%
X98400000Y-94560000D03*
%TO.P,U1B,16*%
%TO.N,LED_Y*%
X98400000Y-97100000D03*
%TO.P,U1B,17*%
%TO.N,N/C*%
X98400000Y-99640000D03*
%TO.P,U1B,18*%
X98400000Y-102180000D03*
%TO.P,U1B,19*%
X98400000Y-104720000D03*
%TD*%
D10*
%TO.P,R3,1*%
%TO.N,LED_Y*%
X91000000Y-119000000D03*
%TO.P,R3,2*%
%TO.N,K3*%
X91000000Y-126620000D03*
%TD*%
D12*
%TO.P,U4,1*%
%TO.N,+12V*%
X55000000Y-31000000D03*
D13*
%TO.P,U4,2*%
%TO.N,GND*%
X55000000Y-33540000D03*
%TO.P,U4,3*%
%TO.N,+5V*%
X55000000Y-36080000D03*
%TO.P,U4,4*%
%TO.N,GND*%
X55000000Y-38620000D03*
%TD*%
D14*
%TO.P,LED2,1*%
%TO.N,GND*%
X81000000Y-135000000D03*
D15*
%TO.P,LED2,2*%
%TO.N,K2*%
X81000000Y-132460000D03*
%TD*%
D12*
%TO.P,CN2,1*%
%TO.N,+5V*%
X147000000Y-87000000D03*
D13*
%TO.P,CN2,2*%
%TO.N,GND*%
X147000000Y-89540000D03*
%TO.P,CN2,3*%
%TO.N,RX0*%
X147000000Y-92080000D03*
%TO.P,CN2,4*%
%TO.N,TX0*%
X147000000Y-94620000D03*
%TD*%
D12*
%TO.P,U3,1*%
%TO.N,GND*%
X147000000Y-51000000D03*
D13*
%TO.P,U3,2*%
%TO.N,+3V3*%
X147000000Y-53540000D03*
%TO.P,U3,3*%
%TO.N,I2C_SCL*%
X147000000Y-56080000D03*
%TO.P,U3,4*%
%TO.N,I2C_SDA*%
X147000000Y-58620000D03*
%TD*%
D12*
%TO.P,U1A,1*%
%TO.N,N/C*%
X73000000Y-59000000D03*
D13*
%TO.P,U1A,2*%
X73000000Y-61540000D03*
%TO.P,U1A,3*%
X73000000Y-64080000D03*
%TO.P,U1A,4*%
X73000000Y-66620000D03*
%TO.P,U1A,5*%
X73000000Y-69160000D03*
%TO.P,U1A,6*%
X73000000Y-71700000D03*
%TO.P,U1A,7*%
X73000000Y-74240000D03*
%TO.P,U1A,8*%
X73000000Y-76780000D03*
%TO.P,U1A,9*%
X73000000Y-79320000D03*
%TO.P,U1A,10*%
%TO.N,LORA_DIO0*%
X73000000Y-81860000D03*
%TO.P,U1A,11*%
%TO.N,N/C*%
X73000000Y-84400000D03*
%TO.P,U1A,12*%
%TO.N,LORA_RST*%
X73000000Y-86940000D03*
%TO.P,U1A,13*%
%TO.N,N/C*%
X73000000Y-89480000D03*
%TO.P,U1A,14*%
%TO.N,GND*%
X73000000Y-92020000D03*
%TO.P,U1A,15*%
%TO.N,LED_R*%
X73000000Y-94560000D03*
%TO.P,U1A,16*%
%TO.N,N/C*%
X73000000Y-97100000D03*
%TO.P,U1A,17*%
X73000000Y-99640000D03*
%TO.P,U1A,18*%
X73000000Y-102180000D03*
%TO.P,U1A,19*%
%TO.N,+5V*%
X73000000Y-104720000D03*
%TD*%
D12*
%TO.P,CN1,1*%
%TO.N,+12V*%
X39000000Y-41000000D03*
D13*
%TO.P,CN1,2*%
%TO.N,GND*%
X39000000Y-43540000D03*
%TD*%
D10*
%TO.P,R5,1*%
%TO.N,+3V3*%
X123000000Y-45000000D03*
%TO.P,R5,2*%
%TO.N,I2C_SDA*%
X130620000Y-45000000D03*
%TD*%
D12*
%TO.P,J1,1*%
%TO.N,GND*%
X107000000Y-104110000D03*
D13*
%TO.P,J1,2*%
%TO.N,LORA_NSS*%
X107000000Y-106650000D03*
%TO.P,J1,3*%
%TO.N,SPI_MOSI*%
X107000000Y-109190000D03*
%TO.P,J1,4*%
%TO.N,SPI_MISO*%
X107000000Y-111730000D03*
%TO.P,J1,5*%
%TO.N,SPI_SCK*%
X107000000Y-114270000D03*
%TO.P,J1,6*%
%TO.N,GND*%
X107000000Y-116810000D03*
%TO.P,J1,7*%
X107000000Y-119350000D03*
%TO.P,J1,8*%
X107000000Y-121890000D03*
%TD*%
D14*
%TO.P,LED3,1*%
%TO.N,GND*%
X91000000Y-135000000D03*
D15*
%TO.P,LED3,2*%
%TO.N,K3*%
X91000000Y-132460000D03*
%TD*%
D10*
%TO.P,R1,1*%
%TO.N,LED_G*%
X71000000Y-119000000D03*
%TO.P,R1,2*%
%TO.N,K1*%
X71000000Y-126620000D03*
%TD*%
D12*
%TO.P,J3,1*%
%TO.N,GND*%
X73000000Y-34700000D03*
D13*
%TO.P,J3,2*%
%TO.N,+3V3*%
X73000000Y-37240000D03*
%TO.P,J3,3*%
%TO.N,+5V*%
X73000000Y-39780000D03*
%TD*%
D14*
%TO.P,LED1,1*%
%TO.N,GND*%
X71000000Y-135000000D03*
D15*
%TO.P,LED1,2*%
%TO.N,K1*%
X71000000Y-132460000D03*
%TD*%
D16*
%TO.P,U5,1*%
%TO.N,GND*%
X68150000Y-34700000D03*
%TO.P,U5,2*%
%TO.N,+3V3*%
X68150000Y-37000000D03*
D17*
%TO.N,N/C*%
X61850000Y-37000000D03*
D16*
%TO.P,U5,3*%
%TO.N,+5V*%
X68150000Y-39300000D03*
%TD*%
D18*
%TO.P,U2,1*%
%TO.N,GND*%
X138000000Y-106000000D03*
%TO.P,U2,2*%
X138000000Y-108000000D03*
%TO.P,U2,3*%
%TO.N,+3V3*%
X138000000Y-110000000D03*
%TO.P,U2,4*%
%TO.N,LORA_RST*%
X138000000Y-112000000D03*
%TO.P,U2,5*%
%TO.N,LORA_DIO0*%
X138000000Y-114000000D03*
%TO.P,U2,6*%
%TO.N,N/C*%
X138000000Y-116000000D03*
%TO.P,U2,7*%
X138000000Y-118000000D03*
%TO.P,U2,8*%
X138000000Y-120000000D03*
%TO.P,U2,9*%
%TO.N,GND*%
X122000000Y-120000000D03*
%TO.P,U2,10*%
%TO.N,N/C*%
X122000000Y-118000000D03*
%TO.P,U2,11*%
X122000000Y-116000000D03*
%TO.P,U2,12*%
%TO.N,SPI_SCK*%
X122000000Y-114000000D03*
%TO.P,U2,13*%
%TO.N,SPI_MISO*%
X122000000Y-112000000D03*
%TO.P,U2,14*%
%TO.N,SPI_MOSI*%
X122000000Y-110000000D03*
%TO.P,U2,15*%
%TO.N,LORA_NSS*%
X122000000Y-108000000D03*
%TO.P,U2,16*%
%TO.N,GND*%
X122000000Y-106000000D03*
%TD*%
%TO.N,+12V*%
D19*
X54600000Y-30600000D02*
X39400000Y-30600000D01*
X39400000Y-30600000D02*
X39400000Y-40600000D01*
%TO.N,GND*%
D20*
X30200000Y-61800000D02*
X35400000Y-61800000D01*
X55400000Y-135000000D02*
X70600000Y-135000000D01*
X153800000Y-51000000D02*
X147400000Y-51000000D01*
X35800000Y-58600000D02*
X35800000Y-43800000D01*
X107000000Y-119000000D02*
X107000000Y-117400000D01*
X52200000Y-33800000D02*
X54600000Y-33800000D01*
X38200000Y-81800000D02*
X30200000Y-81800000D01*
X39400000Y-43400000D02*
X54600000Y-43400000D01*
X153800000Y-123000000D02*
X153800000Y-51000000D01*
X54600000Y-38600000D02*
X52200000Y-38600000D01*
X68200000Y-34600000D02*
X72600000Y-34600000D01*
X107000000Y-121400000D02*
X107000000Y-119800000D01*
X91400000Y-135000000D02*
X106600000Y-135000000D01*
X54600000Y-43400000D02*
X54600000Y-39000000D01*
X52200000Y-38600000D02*
X52200000Y-33800000D01*
X68200000Y-33400000D02*
X68200000Y-34600000D01*
X107400000Y-104200000D02*
X121800000Y-104200000D01*
X37800000Y-78600000D02*
X37800000Y-69400000D01*
X121800000Y-104200000D02*
X121800000Y-103400000D01*
X107000000Y-120200000D02*
X121800000Y-120200000D01*
X121800000Y-120200000D02*
X121800000Y-123000000D01*
X55400000Y-33400000D02*
X68200000Y-33400000D01*
X81400000Y-135000000D02*
X90600000Y-135000000D01*
X54600000Y-135000000D02*
X38200000Y-135000000D01*
X121800000Y-103400000D02*
X137800000Y-103400000D01*
X71400000Y-135000000D02*
X80600000Y-135000000D01*
X137800000Y-105800000D02*
X137800000Y-105800000D01*
X38200000Y-135000000D02*
X38200000Y-79400000D01*
X137800000Y-103400000D02*
X137800000Y-108200000D01*
X35800000Y-43800000D02*
X38600000Y-43800000D01*
X106600000Y-135000000D02*
X106600000Y-122200000D01*
X121800000Y-104200000D02*
X121800000Y-105800000D01*
X121800000Y-123000000D02*
X153800000Y-123000000D01*
X35400000Y-61800000D02*
X35400000Y-59400000D01*
X30200000Y-81800000D02*
X30200000Y-61800000D01*
%TO.N,+5V*%
D21*
X68200000Y-39400000D02*
X72600000Y-39400000D01*
%TO.N,+3V3*%
D20*
X123400000Y-37400000D02*
X73400000Y-37400000D01*
X33000000Y-69400000D02*
X33000000Y-78600000D01*
X150600000Y-53800000D02*
X150600000Y-106600000D01*
D21*
X137800000Y-110200000D02*
X148600000Y-110200000D01*
D20*
X123400000Y-42200000D02*
X144200000Y-42200000D01*
X144200000Y-42200000D02*
X144200000Y-53400000D01*
X38200000Y-54200000D02*
X38200000Y-66200000D01*
D21*
X148600000Y-107400000D02*
X150600000Y-107400000D01*
D20*
X65400000Y-37000000D02*
X65400000Y-54200000D01*
D21*
X68200000Y-37000000D02*
X72600000Y-37000000D01*
D20*
X65400000Y-54200000D02*
X38200000Y-54200000D01*
X147400000Y-53800000D02*
X150600000Y-53800000D01*
X38200000Y-66200000D02*
X33400000Y-66200000D01*
X72600000Y-37000000D02*
X65400000Y-37000000D01*
X123000000Y-50600000D02*
X123000000Y-45400000D01*
X33400000Y-66200000D02*
X33400000Y-68600000D01*
X123400000Y-42200000D02*
X123400000Y-37400000D01*
D21*
X148600000Y-110200000D02*
X148600000Y-107400000D01*
D20*
X144200000Y-53400000D02*
X146600000Y-53400000D01*
D21*
X137800000Y-109800000D02*
X137800000Y-110200000D01*
D20*
X123400000Y-44600000D02*
X123400000Y-42200000D01*
%TO.N,LORA_DIO0*%
D21*
X137800000Y-113800000D02*
X137800000Y-114200000D01*
X150600000Y-114200000D02*
X150600000Y-112600000D01*
X137800000Y-114200000D02*
X150600000Y-114200000D01*
%TO.N,LED_R*%
X55400000Y-118600000D02*
X55400000Y-95000000D01*
X55400000Y-95000000D02*
X72600000Y-95000000D01*
%TO.N,I2C_SCL*%
X131000000Y-55800000D02*
X146600000Y-55800000D01*
X131000000Y-51400000D02*
X131000000Y-55800000D01*
%TO.N,TX0*%
X101000000Y-94200000D02*
X101000000Y-67000000D01*
X146600000Y-94200000D02*
X101000000Y-94200000D01*
X101000000Y-67000000D02*
X99000000Y-67000000D01*
%TO.N,RX0*%
X103000000Y-56600000D02*
X96200000Y-56600000D01*
X146600000Y-91800000D02*
X103000000Y-91800000D01*
X96200000Y-56600000D02*
X96200000Y-68600000D01*
X96200000Y-68600000D02*
X98200000Y-68600000D01*
X103000000Y-91800000D02*
X103000000Y-56600000D01*
%TO.N,I2C_SDA*%
X128199999Y-54600000D02*
X94200000Y-54600000D01*
X94200000Y-54600000D02*
X94200000Y-71400000D01*
X94200000Y-71400000D02*
X98200000Y-71400000D01*
X128199999Y-58200000D02*
X146600000Y-58200000D01*
X130199999Y-45400000D02*
X128199999Y-45400000D01*
X128199999Y-45400000D02*
X128199999Y-58200000D01*
%TO.N,SPI_MISO*%
X121800000Y-112200000D02*
X121800000Y-111800000D01*
X121800000Y-111800000D02*
X107400000Y-111800000D01*
%TO.N,SPI_SCK*%
X93400000Y-123400000D02*
X52600000Y-123400000D01*
X121800000Y-113800000D02*
X121800000Y-114200000D01*
X106600000Y-114600000D02*
X93400000Y-114600000D01*
X52600000Y-123400000D02*
X52600000Y-56600000D01*
X93400000Y-114600000D02*
X93400000Y-123400000D01*
X121800000Y-114200000D02*
X107400000Y-114200000D01*
X52600000Y-56600000D02*
X92200000Y-56600000D01*
X92200000Y-56600000D02*
X92200000Y-79000000D01*
X92200000Y-79000000D02*
X98200000Y-79000000D01*
%TO.N,LORA_NSS*%
X121800000Y-107800000D02*
X109000000Y-107800000D01*
X109000000Y-107000000D02*
X107400000Y-107000000D01*
X109000000Y-107800000D02*
X109000000Y-107000000D01*
X121800000Y-108200000D02*
X121800000Y-107800000D01*
%TO.N,LED_B*%
X77000000Y-107000000D02*
X77000000Y-89800000D01*
X80600000Y-121400000D02*
X68600000Y-121400000D01*
X80600000Y-119400000D02*
X80600000Y-121400000D01*
X68600000Y-107000000D02*
X77000000Y-107000000D01*
X77000000Y-89800000D02*
X98200000Y-89800000D01*
X68600000Y-121400000D02*
X68600000Y-107000000D01*
%TO.N,LED_G*%
X79000000Y-95000000D02*
X98200000Y-95000000D01*
X79000000Y-118600000D02*
X79000000Y-95000000D01*
X71400000Y-118600000D02*
X79000000Y-118600000D01*
%TO.N,LED_Y*%
X91400000Y-97400000D02*
X98200000Y-97400000D01*
X91400000Y-118600000D02*
X91400000Y-97400000D01*
%TO.N,K1*%
X71000000Y-132199999D02*
X71000000Y-127000000D01*
%TO.N,K2*%
X81000000Y-132199999D02*
X81000000Y-127000000D01*
%TO.N,K3*%
X91000000Y-132199999D02*
X91000000Y-127000000D01*
%TO.N,K4*%
X55000000Y-132199999D02*
X55000000Y-127000000D01*
%TD*%
%TA.AperFunction,Conductor*%
%TO.N,GND*%
G36*
X163943039Y-26019685D02*
G01*
X163988794Y-26072489D01*
X164000000Y-26124000D01*
X164000000Y-143876000D01*
X163980315Y-143943039D01*
X163927511Y-143988794D01*
X163876000Y-144000000D01*
X26124000Y-144000000D01*
X26056961Y-143980315D01*
X26011206Y-143927511D01*
X26000000Y-143876000D01*
X26000000Y-139878711D01*
X28149500Y-139878711D01*
X28149500Y-140121288D01*
X28181161Y-140361785D01*
X28243947Y-140596104D01*
X28336773Y-140820205D01*
X28336776Y-140820212D01*
X28458064Y-141030289D01*
X28458066Y-141030292D01*
X28458067Y-141030293D01*
X28605733Y-141222736D01*
X28605739Y-141222743D01*
X28777256Y-141394260D01*
X28777262Y-141394265D01*
X28969711Y-141541936D01*
X29179788Y-141663224D01*
X29403900Y-141756054D01*
X29638211Y-141818838D01*
X29818586Y-141842584D01*
X29878711Y-141850500D01*
X29878712Y-141850500D01*
X30121289Y-141850500D01*
X30169388Y-141844167D01*
X30361789Y-141818838D01*
X30596100Y-141756054D01*
X30820212Y-141663224D01*
X31030289Y-141541936D01*
X31222738Y-141394265D01*
X31394265Y-141222738D01*
X31541936Y-141030289D01*
X31663224Y-140820212D01*
X31756054Y-140596100D01*
X31818838Y-140361789D01*
X31850500Y-140121288D01*
X31850500Y-139878712D01*
X31850500Y-139878711D01*
X158149500Y-139878711D01*
X158149500Y-140121288D01*
X158181161Y-140361785D01*
X158243947Y-140596104D01*
X158336773Y-140820205D01*
X158336776Y-140820212D01*
X158458064Y-141030289D01*
X158458066Y-141030292D01*
X158458067Y-141030293D01*
X158605733Y-141222736D01*
X158605739Y-141222743D01*
X158777256Y-141394260D01*
X158777262Y-141394265D01*
X158969711Y-141541936D01*
X159179788Y-141663224D01*
X159403900Y-141756054D01*
X159638211Y-141818838D01*
X159818586Y-141842584D01*
X159878711Y-141850500D01*
X159878712Y-141850500D01*
X160121289Y-141850500D01*
X160169388Y-141844167D01*
X160361789Y-141818838D01*
X160596100Y-141756054D01*
X160820212Y-141663224D01*
X161030289Y-141541936D01*
X161222738Y-141394265D01*
X161394265Y-141222738D01*
X161541936Y-141030289D01*
X161663224Y-140820212D01*
X161756054Y-140596100D01*
X161818838Y-140361789D01*
X161850500Y-140121288D01*
X161850500Y-139878712D01*
X161818838Y-139638211D01*
X161756054Y-139403900D01*
X161663224Y-139179788D01*
X161541936Y-138969711D01*
X161394265Y-138777262D01*
X161394260Y-138777256D01*
X161222743Y-138605739D01*
X161222736Y-138605733D01*
X161030293Y-138458067D01*
X161030292Y-138458066D01*
X161030289Y-138458064D01*
X160820212Y-138336776D01*
X160820205Y-138336773D01*
X160596104Y-138243947D01*
X160361785Y-138181161D01*
X160121289Y-138149500D01*
X160121288Y-138149500D01*
X159878712Y-138149500D01*
X159878711Y-138149500D01*
X159638214Y-138181161D01*
X159403895Y-138243947D01*
X159179794Y-138336773D01*
X159179785Y-138336777D01*
X158969706Y-138458067D01*
X158777263Y-138605733D01*
X158777256Y-138605739D01*
X158605739Y-138777256D01*
X158605733Y-138777263D01*
X158458067Y-138969706D01*
X158336777Y-139179785D01*
X158336773Y-139179794D01*
X158243947Y-139403895D01*
X158181161Y-139638214D01*
X158149500Y-139878711D01*
X31850500Y-139878711D01*
X31818838Y-139638211D01*
X31756054Y-139403900D01*
X31663224Y-139179788D01*
X31541936Y-138969711D01*
X31394265Y-138777262D01*
X31394260Y-138777256D01*
X31222743Y-138605739D01*
X31222736Y-138605733D01*
X31030293Y-138458067D01*
X31030292Y-138458066D01*
X31030289Y-138458064D01*
X30820212Y-138336776D01*
X30820205Y-138336773D01*
X30596104Y-138243947D01*
X30361785Y-138181161D01*
X30121289Y-138149500D01*
X30121288Y-138149500D01*
X29878712Y-138149500D01*
X29878711Y-138149500D01*
X29638214Y-138181161D01*
X29403895Y-138243947D01*
X29179794Y-138336773D01*
X29179785Y-138336777D01*
X28969706Y-138458067D01*
X28777263Y-138605733D01*
X28777256Y-138605739D01*
X28605739Y-138777256D01*
X28605733Y-138777263D01*
X28458067Y-138969706D01*
X28336777Y-139179785D01*
X28336773Y-139179794D01*
X28243947Y-139403895D01*
X28181161Y-139638214D01*
X28149500Y-139878711D01*
X26000000Y-139878711D01*
X26000000Y-135947844D01*
X53600000Y-135947844D01*
X53606401Y-136007372D01*
X53606403Y-136007379D01*
X53656645Y-136142086D01*
X53656649Y-136142093D01*
X53742809Y-136257187D01*
X53742812Y-136257190D01*
X53857906Y-136343350D01*
X53857913Y-136343354D01*
X53992620Y-136393596D01*
X53992627Y-136393598D01*
X54052155Y-136399999D01*
X54052172Y-136400000D01*
X54600000Y-136400000D01*
X55400000Y-136400000D01*
X55947828Y-136400000D01*
X55947844Y-136399999D01*
X56007372Y-136393598D01*
X56007379Y-136393596D01*
X56142086Y-136343354D01*
X56142093Y-136343350D01*
X56257187Y-136257190D01*
X56257190Y-136257187D01*
X56343350Y-136142093D01*
X56343354Y-136142086D01*
X56393596Y-136007379D01*
X56393598Y-136007372D01*
X56399999Y-135947844D01*
X69600000Y-135947844D01*
X69606401Y-136007372D01*
X69606403Y-136007379D01*
X69656645Y-136142086D01*
X69656649Y-136142093D01*
X69742809Y-136257187D01*
X69742812Y-136257190D01*
X69857906Y-136343350D01*
X69857913Y-136343354D01*
X69992620Y-136393596D01*
X69992627Y-136393598D01*
X70052155Y-136399999D01*
X70052172Y-136400000D01*
X70600000Y-136400000D01*
X71400000Y-136400000D01*
X71947828Y-136400000D01*
X71947844Y-136399999D01*
X72007372Y-136393598D01*
X72007379Y-136393596D01*
X72142086Y-136343354D01*
X72142093Y-136343350D01*
X72257187Y-136257190D01*
X72257190Y-136257187D01*
X72343350Y-136142093D01*
X72343354Y-136142086D01*
X72393596Y-136007379D01*
X72393598Y-136007372D01*
X72399999Y-135947844D01*
X79600000Y-135947844D01*
X79606401Y-136007372D01*
X79606403Y-136007379D01*
X79656645Y-136142086D01*
X79656649Y-136142093D01*
X79742809Y-136257187D01*
X79742812Y-136257190D01*
X79857906Y-136343350D01*
X79857913Y-136343354D01*
X79992620Y-136393596D01*
X79992627Y-136393598D01*
X80052155Y-136399999D01*
X80052172Y-136400000D01*
X80600000Y-136400000D01*
X81400000Y-136400000D01*
X81947828Y-136400000D01*
X81947844Y-136399999D01*
X82007372Y-136393598D01*
X82007379Y-136393596D01*
X82142086Y-136343354D01*
X82142093Y-136343350D01*
X82257187Y-136257190D01*
X82257190Y-136257187D01*
X82343350Y-136142093D01*
X82343354Y-136142086D01*
X82393596Y-136007379D01*
X82393598Y-136007372D01*
X82399999Y-135947844D01*
X89600000Y-135947844D01*
X89606401Y-136007372D01*
X89606403Y-136007379D01*
X89656645Y-136142086D01*
X89656649Y-136142093D01*
X89742809Y-136257187D01*
X89742812Y-136257190D01*
X89857906Y-136343350D01*
X89857913Y-136343354D01*
X89992620Y-136393596D01*
X89992627Y-136393598D01*
X90052155Y-136399999D01*
X90052172Y-136400000D01*
X90600000Y-136400000D01*
X91400000Y-136400000D01*
X91947828Y-136400000D01*
X91947844Y-136399999D01*
X92007372Y-136393598D01*
X92007379Y-136393596D01*
X92142086Y-136343354D01*
X92142093Y-136343350D01*
X92257187Y-136257190D01*
X92257190Y-136257187D01*
X92343350Y-136142093D01*
X92343354Y-136142086D01*
X92393596Y-136007379D01*
X92393598Y-136007372D01*
X92399999Y-135947844D01*
X92400000Y-135947827D01*
X92400000Y-135400000D01*
X91400000Y-135400000D01*
X91400000Y-136400000D01*
X90600000Y-136400000D01*
X90600000Y-135400000D01*
X89600000Y-135400000D01*
X89600000Y-135947844D01*
X82399999Y-135947844D01*
X82400000Y-135947827D01*
X82400000Y-135400000D01*
X81400000Y-135400000D01*
X81400000Y-136400000D01*
X80600000Y-136400000D01*
X80600000Y-135400000D01*
X79600000Y-135400000D01*
X79600000Y-135947844D01*
X72399999Y-135947844D01*
X72400000Y-135947827D01*
X72400000Y-135400000D01*
X71400000Y-135400000D01*
X71400000Y-136400000D01*
X70600000Y-136400000D01*
X70600000Y-135400000D01*
X69600000Y-135400000D01*
X69600000Y-135947844D01*
X56399999Y-135947844D01*
X56400000Y-135947827D01*
X56400000Y-135400000D01*
X55400000Y-135400000D01*
X55400000Y-136400000D01*
X54600000Y-136400000D01*
X54600000Y-135400000D01*
X53600000Y-135400000D01*
X53600000Y-135947844D01*
X26000000Y-135947844D01*
X26000000Y-132349778D01*
X53599500Y-132349778D01*
X53599500Y-132570221D01*
X53633985Y-132787952D01*
X53702103Y-132997603D01*
X53702104Y-132997606D01*
X53802187Y-133194025D01*
X53931752Y-133372358D01*
X53931756Y-133372363D01*
X53982316Y-133422923D01*
X54015801Y-133484246D01*
X54010817Y-133553938D01*
X53968945Y-133609871D01*
X53937969Y-133626785D01*
X53857918Y-133656643D01*
X53857906Y-133656649D01*
X53742812Y-133742809D01*
X53742809Y-133742812D01*
X53656649Y-133857906D01*
X53656645Y-133857913D01*
X53606403Y-133992620D01*
X53606401Y-133992627D01*
X53600000Y-134052155D01*
X53600000Y-134600000D01*
X54792820Y-134600000D01*
X54723694Y-134639910D01*
X54639910Y-134723694D01*
X54580667Y-134826306D01*
X54550000Y-134940756D01*
X54550000Y-135059244D01*
X54580667Y-135173694D01*
X54639910Y-135276306D01*
X54723694Y-135360090D01*
X54826306Y-135419333D01*
X54940756Y-135450000D01*
X55059244Y-135450000D01*
X55173694Y-135419333D01*
X55276306Y-135360090D01*
X55360090Y-135276306D01*
X55419333Y-135173694D01*
X55450000Y-135059244D01*
X55450000Y-134940756D01*
X55419333Y-134826306D01*
X55360090Y-134723694D01*
X55276306Y-134639910D01*
X55207180Y-134600000D01*
X56400000Y-134600000D01*
X56400000Y-134052172D01*
X56399999Y-134052155D01*
X56393598Y-133992627D01*
X56393596Y-133992620D01*
X56343354Y-133857913D01*
X56343350Y-133857906D01*
X56257190Y-133742812D01*
X56257187Y-133742809D01*
X56142093Y-133656649D01*
X56142087Y-133656646D01*
X56062030Y-133626786D01*
X56006097Y-133584914D01*
X55981680Y-133519450D01*
X55996532Y-133451177D01*
X56017681Y-133422925D01*
X56068242Y-133372365D01*
X56197815Y-133194022D01*
X56297895Y-132997606D01*
X56366015Y-132787951D01*
X56400500Y-132570222D01*
X56400500Y-132349778D01*
X69599500Y-132349778D01*
X69599500Y-132570221D01*
X69633985Y-132787952D01*
X69702103Y-132997603D01*
X69702104Y-132997606D01*
X69802187Y-133194025D01*
X69931752Y-133372358D01*
X69931756Y-133372363D01*
X69982316Y-133422923D01*
X70015801Y-133484246D01*
X70010817Y-133553938D01*
X69968945Y-133609871D01*
X69937969Y-133626785D01*
X69857918Y-133656643D01*
X69857906Y-133656649D01*
X69742812Y-133742809D01*
X69742809Y-133742812D01*
X69656649Y-133857906D01*
X69656645Y-133857913D01*
X69606403Y-133992620D01*
X69606401Y-133992627D01*
X69600000Y-134052155D01*
X69600000Y-134600000D01*
X70792820Y-134600000D01*
X70723694Y-134639910D01*
X70639910Y-134723694D01*
X70580667Y-134826306D01*
X70550000Y-134940756D01*
X70550000Y-135059244D01*
X70580667Y-135173694D01*
X70639910Y-135276306D01*
X70723694Y-135360090D01*
X70826306Y-135419333D01*
X70940756Y-135450000D01*
X71059244Y-135450000D01*
X71173694Y-135419333D01*
X71276306Y-135360090D01*
X71360090Y-135276306D01*
X71419333Y-135173694D01*
X71450000Y-135059244D01*
X71450000Y-134940756D01*
X71419333Y-134826306D01*
X71360090Y-134723694D01*
X71276306Y-134639910D01*
X71207180Y-134600000D01*
X72400000Y-134600000D01*
X72400000Y-134052172D01*
X72399999Y-134052155D01*
X72393598Y-133992627D01*
X72393596Y-133992620D01*
X72343354Y-133857913D01*
X72343350Y-133857906D01*
X72257190Y-133742812D01*
X72257187Y-133742809D01*
X72142093Y-133656649D01*
X72142087Y-133656646D01*
X72062030Y-133626786D01*
X72006097Y-133584914D01*
X71981680Y-133519450D01*
X71996532Y-133451177D01*
X72017681Y-133422925D01*
X72068242Y-133372365D01*
X72197815Y-133194022D01*
X72297895Y-132997606D01*
X72366015Y-132787951D01*
X72400500Y-132570222D01*
X72400500Y-132349778D01*
X79599500Y-132349778D01*
X79599500Y-132570221D01*
X79633985Y-132787952D01*
X79702103Y-132997603D01*
X79702104Y-132997606D01*
X79802187Y-133194025D01*
X79931752Y-133372358D01*
X79931756Y-133372363D01*
X79982316Y-133422923D01*
X80015801Y-133484246D01*
X80010817Y-133553938D01*
X79968945Y-133609871D01*
X79937969Y-133626785D01*
X79857918Y-133656643D01*
X79857906Y-133656649D01*
X79742812Y-133742809D01*
X79742809Y-133742812D01*
X79656649Y-133857906D01*
X79656645Y-133857913D01*
X79606403Y-133992620D01*
X79606401Y-133992627D01*
X79600000Y-134052155D01*
X79600000Y-134600000D01*
X80792820Y-134600000D01*
X80723694Y-134639910D01*
X80639910Y-134723694D01*
X80580667Y-134826306D01*
X80550000Y-134940756D01*
X80550000Y-135059244D01*
X80580667Y-135173694D01*
X80639910Y-135276306D01*
X80723694Y-135360090D01*
X80826306Y-135419333D01*
X80940756Y-135450000D01*
X81059244Y-135450000D01*
X81173694Y-135419333D01*
X81276306Y-135360090D01*
X81360090Y-135276306D01*
X81419333Y-135173694D01*
X81450000Y-135059244D01*
X81450000Y-134940756D01*
X81419333Y-134826306D01*
X81360090Y-134723694D01*
X81276306Y-134639910D01*
X81207180Y-134600000D01*
X82400000Y-134600000D01*
X82400000Y-134052172D01*
X82399999Y-134052155D01*
X82393598Y-133992627D01*
X82393596Y-133992620D01*
X82343354Y-133857913D01*
X82343350Y-133857906D01*
X82257190Y-133742812D01*
X82257187Y-133742809D01*
X82142093Y-133656649D01*
X82142087Y-133656646D01*
X82062030Y-133626786D01*
X82006097Y-133584914D01*
X81981680Y-133519450D01*
X81996532Y-133451177D01*
X82017681Y-133422925D01*
X82068242Y-133372365D01*
X82197815Y-133194022D01*
X82297895Y-132997606D01*
X82366015Y-132787951D01*
X82400500Y-132570222D01*
X82400500Y-132349778D01*
X89599500Y-132349778D01*
X89599500Y-132570221D01*
X89633985Y-132787952D01*
X89702103Y-132997603D01*
X89702104Y-132997606D01*
X89802187Y-133194025D01*
X89931752Y-133372358D01*
X89931756Y-133372363D01*
X89982316Y-133422923D01*
X90015801Y-133484246D01*
X90010817Y-133553938D01*
X89968945Y-133609871D01*
X89937969Y-133626785D01*
X89857918Y-133656643D01*
X89857906Y-133656649D01*
X89742812Y-133742809D01*
X89742809Y-133742812D01*
X89656649Y-133857906D01*
X89656645Y-133857913D01*
X89606403Y-133992620D01*
X89606401Y-133992627D01*
X89600000Y-134052155D01*
X89600000Y-134600000D01*
X90792820Y-134600000D01*
X90723694Y-134639910D01*
X90639910Y-134723694D01*
X90580667Y-134826306D01*
X90550000Y-134940756D01*
X90550000Y-135059244D01*
X90580667Y-135173694D01*
X90639910Y-135276306D01*
X90723694Y-135360090D01*
X90826306Y-135419333D01*
X90940756Y-135450000D01*
X91059244Y-135450000D01*
X91173694Y-135419333D01*
X91276306Y-135360090D01*
X91360090Y-135276306D01*
X91419333Y-135173694D01*
X91450000Y-135059244D01*
X91450000Y-134940756D01*
X91419333Y-134826306D01*
X91360090Y-134723694D01*
X91276306Y-134639910D01*
X91207180Y-134600000D01*
X92400000Y-134600000D01*
X92400000Y-134052172D01*
X92399999Y-134052155D01*
X92393598Y-133992627D01*
X92393596Y-133992620D01*
X92343354Y-133857913D01*
X92343350Y-133857906D01*
X92257190Y-133742812D01*
X92257187Y-133742809D01*
X92142093Y-133656649D01*
X92142087Y-133656646D01*
X92062030Y-133626786D01*
X92006097Y-133584914D01*
X91981680Y-133519450D01*
X91996532Y-133451177D01*
X92017681Y-133422925D01*
X92068242Y-133372365D01*
X92197815Y-133194022D01*
X92297895Y-132997606D01*
X92366015Y-132787951D01*
X92400500Y-132570222D01*
X92400500Y-132349778D01*
X92366015Y-132132049D01*
X92297895Y-131922394D01*
X92297895Y-131922393D01*
X92263237Y-131854375D01*
X92197815Y-131725978D01*
X92185750Y-131709372D01*
X92068248Y-131547642D01*
X92068244Y-131547638D01*
X92068242Y-131547635D01*
X91936818Y-131416211D01*
X91903334Y-131354888D01*
X91900500Y-131328530D01*
X91900500Y-127610047D01*
X91920185Y-127543008D01*
X91936819Y-127522366D01*
X91991966Y-127467219D01*
X91991968Y-127467215D01*
X91991971Y-127467213D01*
X92044732Y-127394590D01*
X92112287Y-127301610D01*
X92205220Y-127119219D01*
X92268477Y-126924534D01*
X92300500Y-126722352D01*
X92300500Y-126517648D01*
X92268477Y-126315466D01*
X92205220Y-126120781D01*
X92205218Y-126120778D01*
X92205218Y-126120776D01*
X92171503Y-126054607D01*
X92112287Y-125938390D01*
X92104556Y-125927749D01*
X91991971Y-125772786D01*
X91847213Y-125628028D01*
X91681613Y-125507715D01*
X91681612Y-125507714D01*
X91681610Y-125507713D01*
X91624653Y-125478691D01*
X91499223Y-125414781D01*
X91304534Y-125351522D01*
X91129995Y-125323878D01*
X91102352Y-125319500D01*
X90897648Y-125319500D01*
X90873329Y-125323351D01*
X90695465Y-125351522D01*
X90500776Y-125414781D01*
X90318386Y-125507715D01*
X90152786Y-125628028D01*
X90008028Y-125772786D01*
X89887715Y-125938386D01*
X89794781Y-126120776D01*
X89731522Y-126315465D01*
X89699500Y-126517648D01*
X89699500Y-126722351D01*
X89731522Y-126924534D01*
X89794781Y-127119223D01*
X89887715Y-127301613D01*
X90008028Y-127467213D01*
X90063181Y-127522366D01*
X90096666Y-127583689D01*
X90099500Y-127610047D01*
X90099500Y-131328530D01*
X90079815Y-131395569D01*
X90063182Y-131416211D01*
X89931751Y-131547642D01*
X89802187Y-131725974D01*
X89702104Y-131922393D01*
X89702103Y-131922396D01*
X89633985Y-132132047D01*
X89599500Y-132349778D01*
X82400500Y-132349778D01*
X82366015Y-132132049D01*
X82297895Y-131922394D01*
X82297895Y-131922393D01*
X82263237Y-131854375D01*
X82197815Y-131725978D01*
X82185750Y-131709372D01*
X82068248Y-131547642D01*
X82068244Y-131547638D01*
X82068242Y-131547635D01*
X81936818Y-131416211D01*
X81903334Y-131354888D01*
X81900500Y-131328530D01*
X81900500Y-127610047D01*
X81920185Y-127543008D01*
X81936819Y-127522366D01*
X81991966Y-127467219D01*
X81991968Y-127467215D01*
X81991971Y-127467213D01*
X82044732Y-127394590D01*
X82112287Y-127301610D01*
X82205220Y-127119219D01*
X82268477Y-126924534D01*
X82300500Y-126722352D01*
X82300500Y-126517648D01*
X82268477Y-126315466D01*
X82205220Y-126120781D01*
X82205218Y-126120778D01*
X82205218Y-126120776D01*
X82171503Y-126054607D01*
X82112287Y-125938390D01*
X82104556Y-125927749D01*
X81991971Y-125772786D01*
X81847213Y-125628028D01*
X81681613Y-125507715D01*
X81681612Y-125507714D01*
X81681610Y-125507713D01*
X81624653Y-125478691D01*
X81499223Y-125414781D01*
X81304534Y-125351522D01*
X81129995Y-125323878D01*
X81102352Y-125319500D01*
X80897648Y-125319500D01*
X80873329Y-125323351D01*
X80695465Y-125351522D01*
X80500776Y-125414781D01*
X80318386Y-125507715D01*
X80152786Y-125628028D01*
X80008028Y-125772786D01*
X79887715Y-125938386D01*
X79794781Y-126120776D01*
X79731522Y-126315465D01*
X79699500Y-126517648D01*
X79699500Y-126722351D01*
X79731522Y-126924534D01*
X79794781Y-127119223D01*
X79887715Y-127301613D01*
X80008028Y-127467213D01*
X80063181Y-127522366D01*
X80096666Y-127583689D01*
X80099500Y-127610047D01*
X80099500Y-131328530D01*
X80079815Y-131395569D01*
X80063182Y-131416211D01*
X79931751Y-131547642D01*
X79802187Y-131725974D01*
X79702104Y-131922393D01*
X79702103Y-131922396D01*
X79633985Y-132132047D01*
X79599500Y-132349778D01*
X72400500Y-132349778D01*
X72366015Y-132132049D01*
X72297895Y-131922394D01*
X72297895Y-131922393D01*
X72263237Y-131854375D01*
X72197815Y-131725978D01*
X72185750Y-131709372D01*
X72068248Y-131547642D01*
X72068244Y-131547638D01*
X72068242Y-131547635D01*
X71936818Y-131416211D01*
X71903334Y-131354888D01*
X71900500Y-131328530D01*
X71900500Y-127610047D01*
X71920185Y-127543008D01*
X71936819Y-127522366D01*
X71991966Y-127467219D01*
X71991968Y-127467215D01*
X71991971Y-127467213D01*
X72044732Y-127394590D01*
X72112287Y-127301610D01*
X72205220Y-127119219D01*
X72268477Y-126924534D01*
X72300500Y-126722352D01*
X72300500Y-126517648D01*
X72268477Y-126315466D01*
X72205220Y-126120781D01*
X72205218Y-126120778D01*
X72205218Y-126120776D01*
X72171503Y-126054607D01*
X72112287Y-125938390D01*
X72104556Y-125927749D01*
X71991971Y-125772786D01*
X71847213Y-125628028D01*
X71681613Y-125507715D01*
X71681612Y-125507714D01*
X71681610Y-125507713D01*
X71624653Y-125478691D01*
X71499223Y-125414781D01*
X71304534Y-125351522D01*
X71129995Y-125323878D01*
X71102352Y-125319500D01*
X70897648Y-125319500D01*
X70873329Y-125323351D01*
X70695465Y-125351522D01*
X70500776Y-125414781D01*
X70318386Y-125507715D01*
X70152786Y-125628028D01*
X70008028Y-125772786D01*
X69887715Y-125938386D01*
X69794781Y-126120776D01*
X69731522Y-126315465D01*
X69699500Y-126517648D01*
X69699500Y-126722351D01*
X69731522Y-126924534D01*
X69794781Y-127119223D01*
X69887715Y-127301613D01*
X70008028Y-127467213D01*
X70063181Y-127522366D01*
X70096666Y-127583689D01*
X70099500Y-127610047D01*
X70099500Y-131328530D01*
X70079815Y-131395569D01*
X70063182Y-131416211D01*
X69931751Y-131547642D01*
X69802187Y-131725974D01*
X69702104Y-131922393D01*
X69702103Y-131922396D01*
X69633985Y-132132047D01*
X69599500Y-132349778D01*
X56400500Y-132349778D01*
X56366015Y-132132049D01*
X56297895Y-131922394D01*
X56297895Y-131922393D01*
X56263237Y-131854375D01*
X56197815Y-131725978D01*
X56185750Y-131709372D01*
X56068248Y-131547642D01*
X56068244Y-131547638D01*
X56068242Y-131547635D01*
X55936818Y-131416211D01*
X55903334Y-131354888D01*
X55900500Y-131328530D01*
X55900500Y-127610047D01*
X55920185Y-127543008D01*
X55936819Y-127522366D01*
X55991966Y-127467219D01*
X55991968Y-127467215D01*
X55991971Y-127467213D01*
X56044732Y-127394590D01*
X56112287Y-127301610D01*
X56205220Y-127119219D01*
X56268477Y-126924534D01*
X56300500Y-126722352D01*
X56300500Y-126517648D01*
X56268477Y-126315466D01*
X56205220Y-126120781D01*
X56205218Y-126120778D01*
X56205218Y-126120776D01*
X56171503Y-126054607D01*
X56112287Y-125938390D01*
X56104556Y-125927749D01*
X55991971Y-125772786D01*
X55847213Y-125628028D01*
X55681613Y-125507715D01*
X55681612Y-125507714D01*
X55681610Y-125507713D01*
X55624653Y-125478691D01*
X55499223Y-125414781D01*
X55304534Y-125351522D01*
X55129995Y-125323878D01*
X55102352Y-125319500D01*
X54897648Y-125319500D01*
X54873329Y-125323351D01*
X54695465Y-125351522D01*
X54500776Y-125414781D01*
X54318386Y-125507715D01*
X54152786Y-125628028D01*
X54008028Y-125772786D01*
X53887715Y-125938386D01*
X53794781Y-126120776D01*
X53731522Y-126315465D01*
X53699500Y-126517648D01*
X53699500Y-126722351D01*
X53731522Y-126924534D01*
X53794781Y-127119223D01*
X53887715Y-127301613D01*
X54008028Y-127467213D01*
X54063181Y-127522366D01*
X54096666Y-127583689D01*
X54099500Y-127610047D01*
X54099500Y-131328530D01*
X54079815Y-131395569D01*
X54063182Y-131416211D01*
X53931751Y-131547642D01*
X53802187Y-131725974D01*
X53702104Y-131922393D01*
X53702103Y-131922396D01*
X53633985Y-132132047D01*
X53599500Y-132349778D01*
X26000000Y-132349778D01*
X26000000Y-68897648D01*
X31699500Y-68897648D01*
X31699500Y-69102351D01*
X31731522Y-69304534D01*
X31794781Y-69499223D01*
X31885985Y-69678218D01*
X31899500Y-69734513D01*
X31899500Y-78265487D01*
X31885985Y-78321782D01*
X31794781Y-78500776D01*
X31731522Y-78695465D01*
X31699500Y-78897648D01*
X31699500Y-79102351D01*
X31731522Y-79304534D01*
X31794781Y-79499223D01*
X31887715Y-79681613D01*
X32008028Y-79847213D01*
X32152786Y-79991971D01*
X32307749Y-80104556D01*
X32318390Y-80112287D01*
X32407096Y-80157485D01*
X32500776Y-80205218D01*
X32500778Y-80205218D01*
X32500781Y-80205220D01*
X32605137Y-80239127D01*
X32695465Y-80268477D01*
X32796557Y-80284488D01*
X32897648Y-80300500D01*
X32897649Y-80300500D01*
X33102351Y-80300500D01*
X33102352Y-80300500D01*
X33304534Y-80268477D01*
X33499219Y-80205220D01*
X33592904Y-80157485D01*
X37408198Y-80157485D01*
X37500968Y-80204755D01*
X37695582Y-80267990D01*
X37897683Y-80300000D01*
X38102317Y-80300000D01*
X38304417Y-80267990D01*
X38499031Y-80204755D01*
X38591801Y-80157485D01*
X38000001Y-79565685D01*
X38000000Y-79565685D01*
X37408198Y-80157485D01*
X33592904Y-80157485D01*
X33681610Y-80112287D01*
X33797870Y-80027820D01*
X33816669Y-80014162D01*
X33816669Y-80014161D01*
X33847219Y-79991966D01*
X33991966Y-79847219D01*
X33991968Y-79847215D01*
X33991971Y-79847213D01*
X34099315Y-79699464D01*
X34112287Y-79681610D01*
X34205220Y-79499219D01*
X34268477Y-79304534D01*
X34300500Y-79102352D01*
X34300500Y-78897682D01*
X36700000Y-78897682D01*
X36700000Y-79102317D01*
X36732009Y-79304417D01*
X36795243Y-79499027D01*
X36795246Y-79499034D01*
X36842512Y-79591801D01*
X37434314Y-79000000D01*
X37434314Y-78999999D01*
X37381654Y-78947339D01*
X37600000Y-78947339D01*
X37600000Y-79052661D01*
X37627259Y-79154394D01*
X37679920Y-79245606D01*
X37754394Y-79320080D01*
X37845606Y-79372741D01*
X37947339Y-79400000D01*
X38052661Y-79400000D01*
X38154394Y-79372741D01*
X38245606Y-79320080D01*
X38320080Y-79245606D01*
X38372741Y-79154394D01*
X38400000Y-79052661D01*
X38400000Y-78999999D01*
X38565685Y-78999999D01*
X38565685Y-79000000D01*
X39157485Y-79591800D01*
X39204755Y-79499031D01*
X39267990Y-79304417D01*
X39300000Y-79102317D01*
X39300000Y-78897682D01*
X39267990Y-78695582D01*
X39204755Y-78500968D01*
X39157485Y-78408198D01*
X38565685Y-78999999D01*
X38400000Y-78999999D01*
X38400000Y-78947339D01*
X38372741Y-78845606D01*
X38320080Y-78754394D01*
X38245606Y-78679920D01*
X38154394Y-78627259D01*
X38052661Y-78600000D01*
X37947339Y-78600000D01*
X37845606Y-78627259D01*
X37754394Y-78679920D01*
X37679920Y-78754394D01*
X37627259Y-78845606D01*
X37600000Y-78947339D01*
X37381654Y-78947339D01*
X36842512Y-78408197D01*
X36795242Y-78500973D01*
X36795242Y-78500974D01*
X36732010Y-78695578D01*
X36732010Y-78695581D01*
X36700000Y-78897682D01*
X34300500Y-78897682D01*
X34300500Y-78897648D01*
X34285285Y-78801585D01*
X34268477Y-78695465D01*
X34237458Y-78600000D01*
X34205220Y-78500781D01*
X34205218Y-78500778D01*
X34205218Y-78500776D01*
X34114015Y-78321782D01*
X34100500Y-78265487D01*
X34100500Y-77842512D01*
X37408197Y-77842512D01*
X38000000Y-78434314D01*
X38000001Y-78434314D01*
X38591801Y-77842512D01*
X38499034Y-77795246D01*
X38499027Y-77795243D01*
X38304417Y-77732009D01*
X38102317Y-77700000D01*
X37897683Y-77700000D01*
X37695581Y-77732010D01*
X37695578Y-77732010D01*
X37500974Y-77795242D01*
X37500973Y-77795242D01*
X37408197Y-77842512D01*
X34100500Y-77842512D01*
X34100500Y-70157485D01*
X37408198Y-70157485D01*
X37500968Y-70204755D01*
X37695582Y-70267990D01*
X37897683Y-70300000D01*
X38102317Y-70300000D01*
X38304417Y-70267990D01*
X38499031Y-70204755D01*
X38591801Y-70157485D01*
X38000001Y-69565685D01*
X38000000Y-69565685D01*
X37408198Y-70157485D01*
X34100500Y-70157485D01*
X34100500Y-69734513D01*
X34114015Y-69678218D01*
X34205220Y-69499219D01*
X34268477Y-69304534D01*
X34269280Y-69299464D01*
X34269411Y-69298639D01*
X34291568Y-69245143D01*
X34341231Y-69176789D01*
X34342633Y-69174038D01*
X34419873Y-69022445D01*
X34460411Y-68897682D01*
X36700000Y-68897682D01*
X36700000Y-69102317D01*
X36732009Y-69304417D01*
X36795243Y-69499027D01*
X36795246Y-69499034D01*
X36842512Y-69591801D01*
X37434314Y-69000000D01*
X37434314Y-68999999D01*
X37381654Y-68947339D01*
X37600000Y-68947339D01*
X37600000Y-69052661D01*
X37627259Y-69154394D01*
X37679920Y-69245606D01*
X37754394Y-69320080D01*
X37845606Y-69372741D01*
X37947339Y-69400000D01*
X38052661Y-69400000D01*
X38154394Y-69372741D01*
X38245606Y-69320080D01*
X38320080Y-69245606D01*
X38372741Y-69154394D01*
X38400000Y-69052661D01*
X38400000Y-68999999D01*
X38565685Y-68999999D01*
X38565685Y-69000000D01*
X39157485Y-69591800D01*
X39204755Y-69499031D01*
X39267990Y-69304417D01*
X39300000Y-69102317D01*
X39300000Y-68897682D01*
X39267990Y-68695582D01*
X39204755Y-68500968D01*
X39157485Y-68408198D01*
X38565685Y-68999999D01*
X38400000Y-68999999D01*
X38400000Y-68947339D01*
X38372741Y-68845606D01*
X38320080Y-68754394D01*
X38245606Y-68679920D01*
X38154394Y-68627259D01*
X38052661Y-68600000D01*
X37947339Y-68600000D01*
X37845606Y-68627259D01*
X37754394Y-68679920D01*
X37679920Y-68754394D01*
X37627259Y-68845606D01*
X37600000Y-68947339D01*
X37381654Y-68947339D01*
X36842512Y-68408197D01*
X36795242Y-68500973D01*
X36795242Y-68500974D01*
X36732010Y-68695578D01*
X36732010Y-68695581D01*
X36700000Y-68897682D01*
X34460411Y-68897682D01*
X34473402Y-68857701D01*
X34500500Y-68686611D01*
X34500500Y-67842512D01*
X37408197Y-67842512D01*
X38000000Y-68434314D01*
X38000001Y-68434314D01*
X38591801Y-67842512D01*
X38499034Y-67795246D01*
X38499027Y-67795243D01*
X38304417Y-67732009D01*
X38102317Y-67700000D01*
X37897683Y-67700000D01*
X37695581Y-67732010D01*
X37695578Y-67732010D01*
X37500974Y-67795242D01*
X37500973Y-67795242D01*
X37408197Y-67842512D01*
X34500500Y-67842512D01*
X34500500Y-67424500D01*
X34520185Y-67357461D01*
X34572989Y-67311706D01*
X34624500Y-67300500D01*
X38286610Y-67300500D01*
X38286611Y-67300500D01*
X38457701Y-67273402D01*
X38622445Y-67219873D01*
X38776788Y-67141232D01*
X38916928Y-67039414D01*
X39039414Y-66916928D01*
X39141232Y-66776788D01*
X39219873Y-66622445D01*
X39273402Y-66457701D01*
X39300500Y-66286611D01*
X39300500Y-55424500D01*
X39320185Y-55357461D01*
X39372989Y-55311706D01*
X39424500Y-55300500D01*
X65486610Y-55300500D01*
X65486611Y-55300500D01*
X65657701Y-55273402D01*
X65822445Y-55219873D01*
X65976788Y-55141232D01*
X66116928Y-55039414D01*
X66239414Y-54916928D01*
X66341232Y-54776788D01*
X66419873Y-54622445D01*
X66473402Y-54457701D01*
X66500500Y-54286611D01*
X66500500Y-40108853D01*
X66520185Y-40041814D01*
X66572989Y-39996059D01*
X66642147Y-39986115D01*
X66705703Y-40015140D01*
X66735588Y-40053759D01*
X66782967Y-40149292D01*
X66782969Y-40149295D01*
X66902277Y-40297721D01*
X66902278Y-40297722D01*
X67050704Y-40417030D01*
X67050707Y-40417032D01*
X67221302Y-40501639D01*
X67221303Y-40501639D01*
X67221307Y-40501641D01*
X67406111Y-40547600D01*
X67448877Y-40550500D01*
X68851122Y-40550499D01*
X68893889Y-40547600D01*
X69078693Y-40501641D01*
X69249296Y-40417030D01*
X69360237Y-40327852D01*
X69424821Y-40301194D01*
X69437924Y-40300500D01*
X71673519Y-40300500D01*
X71740558Y-40320185D01*
X71784004Y-40368205D01*
X71844951Y-40487819D01*
X71969890Y-40659786D01*
X72120213Y-40810109D01*
X72292179Y-40935048D01*
X72292181Y-40935049D01*
X72292184Y-40935051D01*
X72481588Y-41031557D01*
X72683757Y-41097246D01*
X72893713Y-41130500D01*
X72893714Y-41130500D01*
X73106286Y-41130500D01*
X73106287Y-41130500D01*
X73316243Y-41097246D01*
X73518412Y-41031557D01*
X73707816Y-40935051D01*
X73729789Y-40919086D01*
X73879786Y-40810109D01*
X73879788Y-40810106D01*
X73879792Y-40810104D01*
X74030104Y-40659792D01*
X74030106Y-40659788D01*
X74030109Y-40659786D01*
X74155048Y-40487820D01*
X74155049Y-40487819D01*
X74155051Y-40487816D01*
X74251557Y-40298412D01*
X74317246Y-40096243D01*
X74350500Y-39886287D01*
X74350500Y-39673713D01*
X74317246Y-39463757D01*
X74251557Y-39261588D01*
X74155051Y-39072184D01*
X74155049Y-39072181D01*
X74155048Y-39072179D01*
X74030109Y-38900213D01*
X73879792Y-38749896D01*
X73845276Y-38724819D01*
X73802610Y-38669489D01*
X73796631Y-38599876D01*
X73829236Y-38538080D01*
X73890075Y-38503723D01*
X73918161Y-38500500D01*
X122175500Y-38500500D01*
X122242539Y-38520185D01*
X122288294Y-38572989D01*
X122299500Y-38624500D01*
X122299500Y-43838255D01*
X122279815Y-43905294D01*
X122248385Y-43938573D01*
X122152787Y-44008028D01*
X122152782Y-44008032D01*
X122008028Y-44152786D01*
X121887715Y-44318386D01*
X121794781Y-44500776D01*
X121731522Y-44695465D01*
X121699500Y-44897648D01*
X121699500Y-45102351D01*
X121731522Y-45304534D01*
X121794781Y-45499223D01*
X121885985Y-45678218D01*
X121899500Y-45734513D01*
X121899500Y-50265487D01*
X121885985Y-50321782D01*
X121794781Y-50500776D01*
X121731522Y-50695465D01*
X121699500Y-50897648D01*
X121699500Y-51102351D01*
X121731522Y-51304534D01*
X121794781Y-51499223D01*
X121887715Y-51681613D01*
X122008028Y-51847213D01*
X122152786Y-51991971D01*
X122290585Y-52092086D01*
X122318390Y-52112287D01*
X122425093Y-52166655D01*
X122500776Y-52205218D01*
X122500778Y-52205218D01*
X122500781Y-52205220D01*
X122567847Y-52227011D01*
X122695465Y-52268477D01*
X122767050Y-52279815D01*
X122897648Y-52300500D01*
X122897649Y-52300500D01*
X123102351Y-52300500D01*
X123102352Y-52300500D01*
X123304534Y-52268477D01*
X123499219Y-52205220D01*
X123681610Y-52112287D01*
X123774590Y-52044732D01*
X123847213Y-51991971D01*
X123847215Y-51991968D01*
X123847219Y-51991966D01*
X123991966Y-51847219D01*
X123991968Y-51847215D01*
X123991971Y-51847213D01*
X124044732Y-51774590D01*
X124112287Y-51681610D01*
X124205220Y-51499219D01*
X124268477Y-51304534D01*
X124300500Y-51102352D01*
X124300500Y-50897648D01*
X124273028Y-50724198D01*
X124268477Y-50695465D01*
X124205218Y-50500776D01*
X124114015Y-50321782D01*
X124100500Y-50265487D01*
X124100500Y-45734513D01*
X124114015Y-45678218D01*
X124205220Y-45499219D01*
X124268477Y-45304534D01*
X124269411Y-45298639D01*
X124291568Y-45245143D01*
X124341231Y-45176789D01*
X124341232Y-45176788D01*
X124419873Y-45022445D01*
X124473402Y-44857701D01*
X124500500Y-44686611D01*
X124500500Y-43424500D01*
X124520185Y-43357461D01*
X124572989Y-43311706D01*
X124624500Y-43300500D01*
X142975500Y-43300500D01*
X143042539Y-43320185D01*
X143088294Y-43372989D01*
X143099500Y-43424500D01*
X143099500Y-53486610D01*
X143124196Y-53642539D01*
X143126598Y-53657701D01*
X143180127Y-53822445D01*
X143258768Y-53976788D01*
X143360586Y-54116928D01*
X143483072Y-54239414D01*
X143623212Y-54341232D01*
X143777555Y-54419873D01*
X143942299Y-54473402D01*
X144113389Y-54500500D01*
X144286611Y-54500500D01*
X145999242Y-54500500D01*
X146066281Y-54520185D01*
X146086923Y-54536819D01*
X146120209Y-54570105D01*
X146120214Y-54570109D01*
X146264835Y-54675182D01*
X146307501Y-54730511D01*
X146313480Y-54800125D01*
X146280875Y-54861920D01*
X146220036Y-54896277D01*
X146191950Y-54899500D01*
X132024500Y-54899500D01*
X131957461Y-54879815D01*
X131911706Y-54827011D01*
X131900500Y-54775500D01*
X131900500Y-51311309D01*
X131897529Y-51296375D01*
X131896673Y-51252785D01*
X131920500Y-51102352D01*
X131920500Y-50897648D01*
X131893028Y-50724198D01*
X131888477Y-50695465D01*
X131825218Y-50500776D01*
X131791503Y-50434607D01*
X131732287Y-50318390D01*
X131693851Y-50265487D01*
X131611971Y-50152786D01*
X131467213Y-50008028D01*
X131301613Y-49887715D01*
X131301612Y-49887714D01*
X131301610Y-49887713D01*
X131244653Y-49858691D01*
X131119223Y-49794781D01*
X130924534Y-49731522D01*
X130749995Y-49703878D01*
X130722352Y-49699500D01*
X130517648Y-49699500D01*
X130493329Y-49703351D01*
X130315465Y-49731522D01*
X130120776Y-49794781D01*
X129938386Y-49887715D01*
X129772786Y-50008028D01*
X129628028Y-50152786D01*
X129507715Y-50318386D01*
X129414781Y-50500776D01*
X129351522Y-50695465D01*
X129346972Y-50724198D01*
X129317042Y-50787333D01*
X129257731Y-50824264D01*
X129187868Y-50823266D01*
X129129636Y-50784656D01*
X129101522Y-50720692D01*
X129100499Y-50704800D01*
X129100499Y-46424500D01*
X129120184Y-46357461D01*
X129172988Y-46311706D01*
X129224499Y-46300500D01*
X130288691Y-46300500D01*
X130311314Y-46295999D01*
X130368466Y-46284630D01*
X130412054Y-46283775D01*
X130517648Y-46300500D01*
X130517649Y-46300500D01*
X130722351Y-46300500D01*
X130722352Y-46300500D01*
X130924534Y-46268477D01*
X131119219Y-46205220D01*
X131301610Y-46112287D01*
X131394590Y-46044732D01*
X131467213Y-45991971D01*
X131467215Y-45991968D01*
X131467219Y-45991966D01*
X131611966Y-45847219D01*
X131611968Y-45847215D01*
X131611971Y-45847213D01*
X131720500Y-45697833D01*
X131732287Y-45681610D01*
X131825220Y-45499219D01*
X131888477Y-45304534D01*
X131920500Y-45102352D01*
X131920500Y-44897648D01*
X131888477Y-44695466D01*
X131825220Y-44500781D01*
X131825218Y-44500778D01*
X131825218Y-44500776D01*
X131790070Y-44431795D01*
X131732287Y-44318390D01*
X131724556Y-44307749D01*
X131611971Y-44152786D01*
X131467213Y-44008028D01*
X131301613Y-43887715D01*
X131301612Y-43887714D01*
X131301610Y-43887713D01*
X131221720Y-43847007D01*
X131119223Y-43794781D01*
X130924534Y-43731522D01*
X130749995Y-43703878D01*
X130722352Y-43699500D01*
X130517648Y-43699500D01*
X130493329Y-43703351D01*
X130315465Y-43731522D01*
X130120776Y-43794781D01*
X129938386Y-43887715D01*
X129772786Y-44008028D01*
X129628028Y-44152786D01*
X129507715Y-44318386D01*
X129449930Y-44431795D01*
X129401955Y-44482591D01*
X129339445Y-44499500D01*
X128111305Y-44499500D01*
X127937340Y-44534103D01*
X127937331Y-44534106D01*
X127773458Y-44601983D01*
X127773445Y-44601990D01*
X127625964Y-44700535D01*
X127625960Y-44700538D01*
X127500537Y-44825961D01*
X127500534Y-44825965D01*
X127401989Y-44973446D01*
X127401982Y-44973459D01*
X127334105Y-45137332D01*
X127334102Y-45137341D01*
X127299499Y-45311304D01*
X127299499Y-53575500D01*
X127279814Y-53642539D01*
X127227010Y-53688294D01*
X127175499Y-53699500D01*
X94111306Y-53699500D01*
X93937341Y-53734103D01*
X93937332Y-53734106D01*
X93773459Y-53801983D01*
X93773446Y-53801990D01*
X93625965Y-53900535D01*
X93625961Y-53900538D01*
X93500538Y-54025961D01*
X93500535Y-54025965D01*
X93401990Y-54173446D01*
X93401983Y-54173459D01*
X93334106Y-54337332D01*
X93334103Y-54337341D01*
X93299500Y-54511304D01*
X93299500Y-56277919D01*
X93279815Y-56344958D01*
X93227011Y-56390713D01*
X93157853Y-56400657D01*
X93094297Y-56371632D01*
X93060939Y-56325371D01*
X92998016Y-56173459D01*
X92998009Y-56173446D01*
X92899464Y-56025965D01*
X92899461Y-56025961D01*
X92774038Y-55900538D01*
X92774034Y-55900535D01*
X92626553Y-55801990D01*
X92626540Y-55801983D01*
X92462667Y-55734106D01*
X92462658Y-55734103D01*
X92288694Y-55699500D01*
X92288691Y-55699500D01*
X52688691Y-55699500D01*
X52511309Y-55699500D01*
X52511306Y-55699500D01*
X52337341Y-55734103D01*
X52337332Y-55734106D01*
X52173459Y-55801983D01*
X52173446Y-55801990D01*
X52025965Y-55900535D01*
X52025961Y-55900538D01*
X51900538Y-56025961D01*
X51900535Y-56025965D01*
X51801990Y-56173446D01*
X51801983Y-56173459D01*
X51734106Y-56337332D01*
X51734103Y-56337341D01*
X51699500Y-56511304D01*
X51699500Y-123488695D01*
X51734103Y-123662658D01*
X51734106Y-123662667D01*
X51801983Y-123826540D01*
X51801990Y-123826553D01*
X51900535Y-123974034D01*
X51900538Y-123974038D01*
X52025961Y-124099461D01*
X52025965Y-124099464D01*
X52173446Y-124198009D01*
X52173459Y-124198016D01*
X52296363Y-124248923D01*
X52337334Y-124265894D01*
X52337336Y-124265894D01*
X52337341Y-124265896D01*
X52511304Y-124300499D01*
X52511307Y-124300500D01*
X52511309Y-124300500D01*
X93488693Y-124300500D01*
X93488694Y-124300499D01*
X93546682Y-124288964D01*
X93662658Y-124265896D01*
X93662661Y-124265894D01*
X93662666Y-124265894D01*
X93826547Y-124198013D01*
X93974035Y-124099464D01*
X94099464Y-123974035D01*
X94198013Y-123826547D01*
X94265894Y-123662666D01*
X94300500Y-123488691D01*
X94300500Y-123084660D01*
X106371023Y-123084660D01*
X106481782Y-123141095D01*
X106683870Y-123206757D01*
X106893754Y-123240000D01*
X107106246Y-123240000D01*
X107316127Y-123206757D01*
X107316130Y-123206757D01*
X107518222Y-123141092D01*
X107628975Y-123084660D01*
X107000001Y-122455686D01*
X107000000Y-122455686D01*
X106371023Y-123084660D01*
X94300500Y-123084660D01*
X94300500Y-121783753D01*
X105650000Y-121783753D01*
X105650000Y-121996246D01*
X105683242Y-122206127D01*
X105683242Y-122206130D01*
X105748904Y-122408217D01*
X105748906Y-122408220D01*
X105805338Y-122518975D01*
X106434314Y-121890000D01*
X106368488Y-121824174D01*
X106500000Y-121824174D01*
X106500000Y-121955826D01*
X106534075Y-122082993D01*
X106599901Y-122197007D01*
X106692993Y-122290099D01*
X106807007Y-122355925D01*
X106934174Y-122390000D01*
X107065826Y-122390000D01*
X107192993Y-122355925D01*
X107307007Y-122290099D01*
X107400099Y-122197007D01*
X107465925Y-122082993D01*
X107500000Y-121955826D01*
X107500000Y-121889999D01*
X107565686Y-121889999D01*
X107565686Y-121890000D01*
X108194660Y-122518975D01*
X108251092Y-122408222D01*
X108316757Y-122206130D01*
X108316757Y-122206127D01*
X108350000Y-121996246D01*
X108350000Y-121783753D01*
X108316757Y-121573872D01*
X108316757Y-121573869D01*
X108251095Y-121371782D01*
X108194660Y-121261023D01*
X107565686Y-121889999D01*
X107500000Y-121889999D01*
X107500000Y-121824174D01*
X107465925Y-121697007D01*
X107400099Y-121582993D01*
X107307007Y-121489901D01*
X107192993Y-121424075D01*
X107065826Y-121390000D01*
X106934174Y-121390000D01*
X106807007Y-121424075D01*
X106692993Y-121489901D01*
X106599901Y-121582993D01*
X106534075Y-121697007D01*
X106500000Y-121824174D01*
X106368488Y-121824174D01*
X105805337Y-121261023D01*
X105748905Y-121371780D01*
X105748905Y-121371781D01*
X105683242Y-121573869D01*
X105683242Y-121573872D01*
X105650000Y-121783753D01*
X94300500Y-121783753D01*
X94300500Y-120544660D01*
X106371023Y-120544660D01*
X106379884Y-120600602D01*
X106379884Y-120639398D01*
X106371023Y-120695337D01*
X107000000Y-121324314D01*
X107000001Y-121324314D01*
X107526468Y-120797844D01*
X120500000Y-120797844D01*
X120506401Y-120857372D01*
X120506403Y-120857379D01*
X120556645Y-120992086D01*
X120556649Y-120992093D01*
X120642809Y-121107187D01*
X120642812Y-121107190D01*
X120757906Y-121193350D01*
X120757913Y-121193354D01*
X120892620Y-121243596D01*
X120892627Y-121243598D01*
X120952155Y-121249999D01*
X120952172Y-121250000D01*
X121600000Y-121250000D01*
X122400000Y-121250000D01*
X123047828Y-121250000D01*
X123047844Y-121249999D01*
X123107372Y-121243598D01*
X123107379Y-121243596D01*
X123242086Y-121193354D01*
X123242093Y-121193350D01*
X123357187Y-121107190D01*
X123357190Y-121107187D01*
X123443350Y-120992093D01*
X123443354Y-120992086D01*
X123493596Y-120857379D01*
X123493598Y-120857372D01*
X123499999Y-120797844D01*
X123500000Y-120797827D01*
X123500000Y-120400000D01*
X122400000Y-120400000D01*
X122400000Y-121250000D01*
X121600000Y-121250000D01*
X121600000Y-120400000D01*
X120500000Y-120400000D01*
X120500000Y-120797844D01*
X107526468Y-120797844D01*
X107628975Y-120695337D01*
X107620115Y-120639398D01*
X107620115Y-120600602D01*
X107628975Y-120544660D01*
X107000001Y-119915686D01*
X107000000Y-119915686D01*
X106371023Y-120544660D01*
X94300500Y-120544660D01*
X94300500Y-119243753D01*
X105650000Y-119243753D01*
X105650000Y-119456246D01*
X105683242Y-119666127D01*
X105683242Y-119666130D01*
X105748904Y-119868217D01*
X105748906Y-119868220D01*
X105805338Y-119978975D01*
X106434314Y-119350000D01*
X106368488Y-119284174D01*
X106500000Y-119284174D01*
X106500000Y-119415826D01*
X106534075Y-119542993D01*
X106599901Y-119657007D01*
X106692993Y-119750099D01*
X106807007Y-119815925D01*
X106934174Y-119850000D01*
X107065826Y-119850000D01*
X107192993Y-119815925D01*
X107307007Y-119750099D01*
X107400099Y-119657007D01*
X107465925Y-119542993D01*
X107500000Y-119415826D01*
X107500000Y-119349999D01*
X107565686Y-119349999D01*
X107565686Y-119350000D01*
X108194660Y-119978975D01*
X108251092Y-119868222D01*
X108316757Y-119666130D01*
X108316757Y-119666127D01*
X108350000Y-119456246D01*
X108350000Y-119243753D01*
X108316757Y-119033872D01*
X108316757Y-119033869D01*
X108251095Y-118831782D01*
X108194660Y-118721023D01*
X107565686Y-119349999D01*
X107500000Y-119349999D01*
X107500000Y-119284174D01*
X107465925Y-119157007D01*
X107400099Y-119042993D01*
X107307007Y-118949901D01*
X107192993Y-118884075D01*
X107065826Y-118850000D01*
X106934174Y-118850000D01*
X106807007Y-118884075D01*
X106692993Y-118949901D01*
X106599901Y-119042993D01*
X106534075Y-119157007D01*
X106500000Y-119284174D01*
X106368488Y-119284174D01*
X105805337Y-118721023D01*
X105748905Y-118831780D01*
X105748905Y-118831781D01*
X105683242Y-119033869D01*
X105683242Y-119033872D01*
X105650000Y-119243753D01*
X94300500Y-119243753D01*
X94300500Y-118004660D01*
X106371023Y-118004660D01*
X106379884Y-118060602D01*
X106379884Y-118099398D01*
X106371023Y-118155337D01*
X107000000Y-118784314D01*
X107000001Y-118784314D01*
X107628975Y-118155337D01*
X107620115Y-118099398D01*
X107620115Y-118060602D01*
X107628975Y-118004660D01*
X107000001Y-117375686D01*
X107000000Y-117375686D01*
X106371023Y-118004660D01*
X94300500Y-118004660D01*
X94300500Y-116703753D01*
X105650000Y-116703753D01*
X105650000Y-116916246D01*
X105683242Y-117126127D01*
X105683242Y-117126130D01*
X105748904Y-117328217D01*
X105748906Y-117328220D01*
X105805338Y-117438975D01*
X106434314Y-116810000D01*
X106368488Y-116744174D01*
X106500000Y-116744174D01*
X106500000Y-116875826D01*
X106534075Y-117002993D01*
X106599901Y-117117007D01*
X106692993Y-117210099D01*
X106807007Y-117275925D01*
X106934174Y-117310000D01*
X107065826Y-117310000D01*
X107192993Y-117275925D01*
X107307007Y-117210099D01*
X107400099Y-117117007D01*
X107465925Y-117002993D01*
X107500000Y-116875826D01*
X107500000Y-116809999D01*
X107565686Y-116809999D01*
X107565686Y-116810000D01*
X108194660Y-117438975D01*
X108251092Y-117328222D01*
X108316757Y-117126130D01*
X108316757Y-117126127D01*
X108350000Y-116916246D01*
X108350000Y-116703753D01*
X108316757Y-116493872D01*
X108316757Y-116493869D01*
X108251095Y-116291782D01*
X108194660Y-116181023D01*
X107565686Y-116809999D01*
X107500000Y-116809999D01*
X107500000Y-116744174D01*
X107465925Y-116617007D01*
X107400099Y-116502993D01*
X107307007Y-116409901D01*
X107192993Y-116344075D01*
X107065826Y-116310000D01*
X106934174Y-116310000D01*
X106807007Y-116344075D01*
X106692993Y-116409901D01*
X106599901Y-116502993D01*
X106534075Y-116617007D01*
X106500000Y-116744174D01*
X106368488Y-116744174D01*
X105805337Y-116181023D01*
X105748905Y-116291780D01*
X105748905Y-116291781D01*
X105683242Y-116493869D01*
X105683242Y-116493872D01*
X105650000Y-116703753D01*
X94300500Y-116703753D01*
X94300500Y-115624500D01*
X94320185Y-115557461D01*
X94372989Y-115511706D01*
X94424500Y-115500500D01*
X106244027Y-115500500D01*
X106311066Y-115520185D01*
X106356821Y-115572989D01*
X106361547Y-115605861D01*
X107000000Y-116244314D01*
X107000001Y-116244314D01*
X107628974Y-115615338D01*
X107621067Y-115565415D01*
X107630021Y-115496122D01*
X107675017Y-115442669D01*
X107687238Y-115435535D01*
X107707816Y-115425051D01*
X107787007Y-115367515D01*
X107879786Y-115300109D01*
X107879788Y-115300106D01*
X107879792Y-115300104D01*
X108030104Y-115149792D01*
X108030110Y-115149783D01*
X108033270Y-115146085D01*
X108034540Y-115147170D01*
X108084116Y-115108946D01*
X108129098Y-115100500D01*
X120375500Y-115100500D01*
X120442539Y-115120185D01*
X120488294Y-115172989D01*
X120499500Y-115224500D01*
X120499500Y-116797870D01*
X120499501Y-116797876D01*
X120505909Y-116857484D01*
X120542901Y-116956668D01*
X120547885Y-117026360D01*
X120542901Y-117043332D01*
X120505909Y-117142514D01*
X120505908Y-117142516D01*
X120499501Y-117202116D01*
X120499501Y-117202123D01*
X120499500Y-117202135D01*
X120499500Y-118797870D01*
X120499501Y-118797876D01*
X120505908Y-118857483D01*
X120543168Y-118957381D01*
X120548152Y-119027073D01*
X120543168Y-119044046D01*
X120506403Y-119142617D01*
X120506401Y-119142627D01*
X120500000Y-119202155D01*
X120500000Y-119600000D01*
X123500000Y-119600000D01*
X123500000Y-119202172D01*
X123499999Y-119202155D01*
X123493598Y-119142627D01*
X123493596Y-119142620D01*
X123456831Y-119044047D01*
X123451847Y-118974356D01*
X123456831Y-118957381D01*
X123494091Y-118857483D01*
X123500500Y-118797873D01*
X123500499Y-117202128D01*
X123494091Y-117142517D01*
X123457096Y-117043330D01*
X123452113Y-116973642D01*
X123457092Y-116956680D01*
X123494091Y-116857483D01*
X123500500Y-116797873D01*
X123500499Y-115202128D01*
X123494091Y-115142517D01*
X123457096Y-115043330D01*
X123452113Y-114973642D01*
X123457092Y-114956680D01*
X123494091Y-114857483D01*
X123500500Y-114797873D01*
X123500499Y-113202128D01*
X123494091Y-113142517D01*
X123457096Y-113043330D01*
X123452113Y-112973642D01*
X123457092Y-112956680D01*
X123494091Y-112857483D01*
X123500500Y-112797873D01*
X123500499Y-111202128D01*
X123494091Y-111142517D01*
X123457096Y-111043330D01*
X123452113Y-110973642D01*
X123457092Y-110956680D01*
X123494091Y-110857483D01*
X123500500Y-110797873D01*
X123500499Y-109202128D01*
X123494091Y-109142517D01*
X123457096Y-109043330D01*
X123452113Y-108973642D01*
X123457092Y-108956680D01*
X123494091Y-108857483D01*
X123500500Y-108797873D01*
X123500499Y-107202128D01*
X123494103Y-107142627D01*
X123494091Y-107142516D01*
X123456831Y-107042618D01*
X123451847Y-106972927D01*
X123456831Y-106955951D01*
X123493597Y-106857376D01*
X123493598Y-106857372D01*
X123499999Y-106797844D01*
X136500000Y-106797844D01*
X136506401Y-106857372D01*
X136506403Y-106857383D01*
X136543434Y-106956668D01*
X136548418Y-107026360D01*
X136543434Y-107043332D01*
X136506403Y-107142616D01*
X136506401Y-107142627D01*
X136500000Y-107202155D01*
X136500000Y-107600000D01*
X137600000Y-107600000D01*
X138400000Y-107600000D01*
X139500000Y-107600000D01*
X139500000Y-107202172D01*
X139499999Y-107202155D01*
X139493598Y-107142627D01*
X139493597Y-107142623D01*
X139456564Y-107043334D01*
X139451580Y-106973642D01*
X139456564Y-106956666D01*
X139493597Y-106857376D01*
X139493598Y-106857372D01*
X139499999Y-106797844D01*
X139500000Y-106797827D01*
X139500000Y-106400000D01*
X138400000Y-106400000D01*
X138400000Y-107600000D01*
X137600000Y-107600000D01*
X137600000Y-106400000D01*
X136500000Y-106400000D01*
X136500000Y-106797844D01*
X123499999Y-106797844D01*
X123500000Y-106797827D01*
X123500000Y-106400000D01*
X120500000Y-106400000D01*
X120500000Y-106775500D01*
X120480315Y-106842539D01*
X120427511Y-106888294D01*
X120376000Y-106899500D01*
X109999915Y-106899500D01*
X109932876Y-106879815D01*
X109887121Y-106827011D01*
X109878298Y-106799691D01*
X109865896Y-106737341D01*
X109865893Y-106737332D01*
X109798016Y-106573459D01*
X109798009Y-106573446D01*
X109699464Y-106425965D01*
X109699461Y-106425961D01*
X109574038Y-106300538D01*
X109574034Y-106300535D01*
X109426553Y-106201990D01*
X109426540Y-106201983D01*
X109262667Y-106134106D01*
X109262658Y-106134103D01*
X109088694Y-106099500D01*
X109088691Y-106099500D01*
X108311195Y-106099500D01*
X108244156Y-106079815D01*
X108200710Y-106031795D01*
X108170016Y-105971555D01*
X108155051Y-105942184D01*
X108129971Y-105907664D01*
X108030109Y-105770213D01*
X107916181Y-105656285D01*
X107882696Y-105594962D01*
X107887680Y-105525270D01*
X107929552Y-105469337D01*
X107960529Y-105452422D01*
X108092086Y-105403354D01*
X108092093Y-105403350D01*
X108207187Y-105317190D01*
X108207190Y-105317187D01*
X108293304Y-105202155D01*
X120500000Y-105202155D01*
X120500000Y-105600000D01*
X121600000Y-105600000D01*
X122400000Y-105600000D01*
X123500000Y-105600000D01*
X123500000Y-105202172D01*
X123499999Y-105202155D01*
X136500000Y-105202155D01*
X136500000Y-105600000D01*
X137600000Y-105600000D01*
X138400000Y-105600000D01*
X139500000Y-105600000D01*
X139500000Y-105202172D01*
X139499999Y-105202155D01*
X139493598Y-105142627D01*
X139493596Y-105142620D01*
X139443354Y-105007913D01*
X139443350Y-105007906D01*
X139357190Y-104892812D01*
X139357187Y-104892809D01*
X139242093Y-104806649D01*
X139242086Y-104806645D01*
X139107379Y-104756403D01*
X139107372Y-104756401D01*
X139047844Y-104750000D01*
X138400000Y-104750000D01*
X138400000Y-105600000D01*
X137600000Y-105600000D01*
X137600000Y-104750000D01*
X136952155Y-104750000D01*
X136892627Y-104756401D01*
X136892620Y-104756403D01*
X136757913Y-104806645D01*
X136757906Y-104806649D01*
X136642812Y-104892809D01*
X136642809Y-104892812D01*
X136556649Y-105007906D01*
X136556645Y-105007913D01*
X136506403Y-105142620D01*
X136506401Y-105142627D01*
X136500000Y-105202155D01*
X123499999Y-105202155D01*
X123493598Y-105142627D01*
X123493596Y-105142620D01*
X123443354Y-105007913D01*
X123443350Y-105007906D01*
X123357190Y-104892812D01*
X123357187Y-104892809D01*
X123242093Y-104806649D01*
X123242086Y-104806645D01*
X123107379Y-104756403D01*
X123107372Y-104756401D01*
X123047844Y-104750000D01*
X122400000Y-104750000D01*
X122400000Y-105600000D01*
X121600000Y-105600000D01*
X121600000Y-104750000D01*
X120952155Y-104750000D01*
X120892627Y-104756401D01*
X120892620Y-104756403D01*
X120757913Y-104806645D01*
X120757906Y-104806649D01*
X120642812Y-104892809D01*
X120642809Y-104892812D01*
X120556649Y-105007906D01*
X120556645Y-105007913D01*
X120506403Y-105142620D01*
X120506401Y-105142627D01*
X120500000Y-105202155D01*
X108293304Y-105202155D01*
X108293350Y-105202093D01*
X108293354Y-105202086D01*
X108310723Y-105155518D01*
X108343596Y-105067379D01*
X108343598Y-105067372D01*
X108349999Y-105007844D01*
X108350000Y-105007827D01*
X108350000Y-104510000D01*
X107307106Y-104510000D01*
X107400099Y-104417007D01*
X107465925Y-104302993D01*
X107500000Y-104175826D01*
X107500000Y-104044174D01*
X107465925Y-103917007D01*
X107400099Y-103802993D01*
X107307106Y-103710000D01*
X107400000Y-103710000D01*
X108350000Y-103710000D01*
X108350000Y-103212172D01*
X108349999Y-103212155D01*
X108343598Y-103152627D01*
X108343596Y-103152620D01*
X108293354Y-103017913D01*
X108293350Y-103017906D01*
X108207190Y-102902812D01*
X108207187Y-102902809D01*
X108092093Y-102816649D01*
X108092086Y-102816645D01*
X107957379Y-102766403D01*
X107957372Y-102766401D01*
X107897844Y-102760000D01*
X107400000Y-102760000D01*
X107400000Y-103710000D01*
X107307106Y-103710000D01*
X107307007Y-103709901D01*
X107192993Y-103644075D01*
X107065826Y-103610000D01*
X106934174Y-103610000D01*
X106807007Y-103644075D01*
X106692993Y-103709901D01*
X106599901Y-103802993D01*
X106534075Y-103917007D01*
X106500000Y-104044174D01*
X106500000Y-104175826D01*
X106534075Y-104302993D01*
X106599901Y-104417007D01*
X106692894Y-104510000D01*
X105650000Y-104510000D01*
X105650000Y-105007844D01*
X105656401Y-105067372D01*
X105656403Y-105067379D01*
X105706645Y-105202086D01*
X105706649Y-105202093D01*
X105792809Y-105317187D01*
X105792812Y-105317190D01*
X105907906Y-105403350D01*
X105907913Y-105403354D01*
X106039470Y-105452422D01*
X106095404Y-105494293D01*
X106119821Y-105559758D01*
X106104969Y-105628031D01*
X106083819Y-105656285D01*
X105969889Y-105770215D01*
X105844951Y-105942179D01*
X105748444Y-106131585D01*
X105682753Y-106333760D01*
X105656503Y-106499500D01*
X105649500Y-106543713D01*
X105649500Y-106756287D01*
X105682754Y-106966243D01*
X105740061Y-107142616D01*
X105748444Y-107168414D01*
X105844951Y-107357820D01*
X105969890Y-107529786D01*
X106120213Y-107680109D01*
X106292182Y-107805050D01*
X106300946Y-107809516D01*
X106351742Y-107857491D01*
X106368536Y-107925312D01*
X106345998Y-107991447D01*
X106300946Y-108030484D01*
X106292182Y-108034949D01*
X106120213Y-108159890D01*
X105969890Y-108310213D01*
X105844951Y-108482179D01*
X105748444Y-108671585D01*
X105682753Y-108873760D01*
X105659340Y-109021585D01*
X105649500Y-109083713D01*
X105649500Y-109296287D01*
X105682754Y-109506243D01*
X105728257Y-109646287D01*
X105748444Y-109708414D01*
X105844951Y-109897820D01*
X105969890Y-110069786D01*
X106120213Y-110220109D01*
X106292182Y-110345050D01*
X106300946Y-110349516D01*
X106351742Y-110397491D01*
X106368536Y-110465312D01*
X106345998Y-110531447D01*
X106300946Y-110570484D01*
X106292182Y-110574949D01*
X106120213Y-110699890D01*
X105969890Y-110850213D01*
X105844951Y-111022179D01*
X105748444Y-111211585D01*
X105682753Y-111413760D01*
X105659340Y-111561585D01*
X105649500Y-111623713D01*
X105649500Y-111836287D01*
X105682754Y-112046243D01*
X105728257Y-112186287D01*
X105748444Y-112248414D01*
X105844951Y-112437820D01*
X105969890Y-112609786D01*
X106120213Y-112760109D01*
X106292182Y-112885050D01*
X106300946Y-112889516D01*
X106351742Y-112937491D01*
X106368536Y-113005312D01*
X106345998Y-113071447D01*
X106300946Y-113110484D01*
X106292182Y-113114949D01*
X106120213Y-113239890D01*
X105969890Y-113390213D01*
X105844949Y-113562182D01*
X105809479Y-113631796D01*
X105761505Y-113682591D01*
X105698995Y-113699500D01*
X93311306Y-113699500D01*
X93137341Y-113734103D01*
X93137332Y-113734106D01*
X92973459Y-113801983D01*
X92973446Y-113801990D01*
X92825965Y-113900535D01*
X92825961Y-113900538D01*
X92700538Y-114025961D01*
X92700535Y-114025965D01*
X92601990Y-114173446D01*
X92601983Y-114173459D01*
X92539061Y-114325371D01*
X92495221Y-114379775D01*
X92428927Y-114401840D01*
X92361227Y-114384561D01*
X92313616Y-114333424D01*
X92300500Y-114277919D01*
X92300500Y-98424500D01*
X92320185Y-98357461D01*
X92372989Y-98311706D01*
X92424500Y-98300500D01*
X97564423Y-98300500D01*
X97631462Y-98320185D01*
X97677217Y-98372989D01*
X97687161Y-98442147D01*
X97658136Y-98505703D01*
X97637310Y-98524816D01*
X97587790Y-98560795D01*
X97520207Y-98609896D01*
X97369890Y-98760213D01*
X97244951Y-98932179D01*
X97148444Y-99121585D01*
X97082753Y-99323760D01*
X97049500Y-99533713D01*
X97049500Y-99746286D01*
X97082753Y-99956239D01*
X97148444Y-100158414D01*
X97244951Y-100347820D01*
X97369890Y-100519786D01*
X97520213Y-100670109D01*
X97692182Y-100795050D01*
X97700946Y-100799516D01*
X97751742Y-100847491D01*
X97768536Y-100915312D01*
X97745998Y-100981447D01*
X97700946Y-101020484D01*
X97692182Y-101024949D01*
X97520213Y-101149890D01*
X97369890Y-101300213D01*
X97244951Y-101472179D01*
X97148444Y-101661585D01*
X97082753Y-101863760D01*
X97049500Y-102073713D01*
X97049500Y-102286286D01*
X97082753Y-102496239D01*
X97148444Y-102698414D01*
X97244951Y-102887820D01*
X97369890Y-103059786D01*
X97520213Y-103210109D01*
X97692182Y-103335050D01*
X97700946Y-103339516D01*
X97751742Y-103387491D01*
X97768536Y-103455312D01*
X97745998Y-103521447D01*
X97700946Y-103560484D01*
X97692182Y-103564949D01*
X97520213Y-103689890D01*
X97369890Y-103840213D01*
X97244951Y-104012179D01*
X97148444Y-104201585D01*
X97082753Y-104403760D01*
X97065911Y-104510099D01*
X97049500Y-104613713D01*
X97049500Y-104826287D01*
X97082754Y-105036243D01*
X97136662Y-105202155D01*
X97148444Y-105238414D01*
X97244951Y-105427820D01*
X97369890Y-105599786D01*
X97520213Y-105750109D01*
X97692179Y-105875048D01*
X97692181Y-105875049D01*
X97692184Y-105875051D01*
X97881588Y-105971557D01*
X98083757Y-106037246D01*
X98293713Y-106070500D01*
X98293714Y-106070500D01*
X98506286Y-106070500D01*
X98506287Y-106070500D01*
X98716243Y-106037246D01*
X98918412Y-105971557D01*
X99107816Y-105875051D01*
X99129789Y-105859086D01*
X99279786Y-105750109D01*
X99279788Y-105750106D01*
X99279792Y-105750104D01*
X99430104Y-105599792D01*
X99430106Y-105599788D01*
X99430109Y-105599786D01*
X99555048Y-105427820D01*
X99555047Y-105427820D01*
X99555051Y-105427816D01*
X99651557Y-105238412D01*
X99717246Y-105036243D01*
X99750500Y-104826287D01*
X99750500Y-104613713D01*
X99717246Y-104403757D01*
X99651557Y-104201588D01*
X99555051Y-104012184D01*
X99555049Y-104012181D01*
X99555048Y-104012179D01*
X99430109Y-103840213D01*
X99279786Y-103689890D01*
X99107820Y-103564951D01*
X99107115Y-103564591D01*
X99099054Y-103560485D01*
X99048259Y-103512512D01*
X99031463Y-103444692D01*
X99053999Y-103378556D01*
X99099054Y-103339515D01*
X99107816Y-103335051D01*
X99276946Y-103212172D01*
X99276969Y-103212155D01*
X105650000Y-103212155D01*
X105650000Y-103710000D01*
X106600000Y-103710000D01*
X106600000Y-102760000D01*
X106102155Y-102760000D01*
X106042627Y-102766401D01*
X106042620Y-102766403D01*
X105907913Y-102816645D01*
X105907906Y-102816649D01*
X105792812Y-102902809D01*
X105792809Y-102902812D01*
X105706649Y-103017906D01*
X105706645Y-103017913D01*
X105656403Y-103152620D01*
X105656401Y-103152627D01*
X105650000Y-103212155D01*
X99276969Y-103212155D01*
X99279786Y-103210109D01*
X99279788Y-103210106D01*
X99279792Y-103210104D01*
X99430104Y-103059792D01*
X99430106Y-103059788D01*
X99430109Y-103059786D01*
X99555048Y-102887820D01*
X99555047Y-102887820D01*
X99555051Y-102887816D01*
X99651557Y-102698412D01*
X99717246Y-102496243D01*
X99750500Y-102286287D01*
X99750500Y-102073713D01*
X99717246Y-101863757D01*
X99651557Y-101661588D01*
X99555051Y-101472184D01*
X99555049Y-101472181D01*
X99555048Y-101472179D01*
X99430109Y-101300213D01*
X99279786Y-101149890D01*
X99107820Y-101024951D01*
X99107115Y-101024591D01*
X99099054Y-101020485D01*
X99048259Y-100972512D01*
X99031463Y-100904692D01*
X99053999Y-100838556D01*
X99099054Y-100799515D01*
X99107816Y-100795051D01*
X99129789Y-100779086D01*
X99279786Y-100670109D01*
X99279788Y-100670106D01*
X99279792Y-100670104D01*
X99430104Y-100519792D01*
X99430106Y-100519788D01*
X99430109Y-100519786D01*
X99555048Y-100347820D01*
X99555047Y-100347820D01*
X99555051Y-100347816D01*
X99651557Y-100158412D01*
X99717246Y-99956243D01*
X99750500Y-99746287D01*
X99750500Y-99533713D01*
X99717246Y-99323757D01*
X99651557Y-99121588D01*
X99555051Y-98932184D01*
X99555049Y-98932181D01*
X99555048Y-98932179D01*
X99430109Y-98760213D01*
X99279786Y-98609890D01*
X99107820Y-98484951D01*
X99107115Y-98484591D01*
X99099054Y-98480485D01*
X99048259Y-98432512D01*
X99031463Y-98364692D01*
X99053999Y-98298556D01*
X99099054Y-98259515D01*
X99107816Y-98255051D01*
X99129789Y-98239086D01*
X99279786Y-98130109D01*
X99279788Y-98130106D01*
X99279792Y-98130104D01*
X99430104Y-97979792D01*
X99430106Y-97979788D01*
X99430109Y-97979786D01*
X99555048Y-97807820D01*
X99555047Y-97807820D01*
X99555051Y-97807816D01*
X99651557Y-97618412D01*
X99717246Y-97416243D01*
X99750500Y-97206287D01*
X99750500Y-96993713D01*
X99717246Y-96783757D01*
X99651557Y-96581588D01*
X99555051Y-96392184D01*
X99555049Y-96392181D01*
X99555048Y-96392179D01*
X99430109Y-96220213D01*
X99279786Y-96069890D01*
X99107820Y-95944951D01*
X99107115Y-95944591D01*
X99099054Y-95940485D01*
X99048259Y-95892512D01*
X99031463Y-95824692D01*
X99053999Y-95758556D01*
X99099054Y-95719515D01*
X99107816Y-95715051D01*
X99197209Y-95650104D01*
X99279786Y-95590109D01*
X99279788Y-95590106D01*
X99279792Y-95590104D01*
X99430104Y-95439792D01*
X99430106Y-95439788D01*
X99430109Y-95439786D01*
X99555048Y-95267820D01*
X99555047Y-95267820D01*
X99555051Y-95267816D01*
X99651557Y-95078412D01*
X99717246Y-94876243D01*
X99750500Y-94666287D01*
X99750500Y-94453713D01*
X99717246Y-94243757D01*
X99651557Y-94041588D01*
X99555051Y-93852184D01*
X99555049Y-93852181D01*
X99555048Y-93852179D01*
X99430109Y-93680213D01*
X99279786Y-93529890D01*
X99107820Y-93404951D01*
X99107115Y-93404591D01*
X99099054Y-93400485D01*
X99048259Y-93352512D01*
X99031463Y-93284692D01*
X99053999Y-93218556D01*
X99099054Y-93179515D01*
X99107816Y-93175051D01*
X99197209Y-93110104D01*
X99279786Y-93050109D01*
X99279788Y-93050106D01*
X99279792Y-93050104D01*
X99430104Y-92899792D01*
X99430106Y-92899788D01*
X99430109Y-92899786D01*
X99555048Y-92727820D01*
X99555047Y-92727820D01*
X99555051Y-92727816D01*
X99651557Y-92538412D01*
X99717246Y-92336243D01*
X99750500Y-92126287D01*
X99750500Y-91913713D01*
X99717246Y-91703757D01*
X99651557Y-91501588D01*
X99555051Y-91312184D01*
X99555049Y-91312181D01*
X99555048Y-91312179D01*
X99430109Y-91140213D01*
X99279786Y-90989890D01*
X99107820Y-90864951D01*
X99107115Y-90864591D01*
X99099054Y-90860485D01*
X99048259Y-90812512D01*
X99031463Y-90744692D01*
X99053999Y-90678556D01*
X99099054Y-90639515D01*
X99107816Y-90635051D01*
X99129789Y-90619086D01*
X99279786Y-90510109D01*
X99279788Y-90510106D01*
X99279792Y-90510104D01*
X99430104Y-90359792D01*
X99430106Y-90359788D01*
X99430109Y-90359786D01*
X99555048Y-90187820D01*
X99555047Y-90187820D01*
X99555051Y-90187816D01*
X99651557Y-89998412D01*
X99717246Y-89796243D01*
X99750500Y-89586287D01*
X99750500Y-89373713D01*
X99717246Y-89163757D01*
X99651557Y-88961588D01*
X99555051Y-88772184D01*
X99555049Y-88772181D01*
X99555048Y-88772179D01*
X99430109Y-88600213D01*
X99279786Y-88449890D01*
X99107820Y-88324951D01*
X99107115Y-88324591D01*
X99099054Y-88320485D01*
X99048259Y-88272512D01*
X99031463Y-88204692D01*
X99053999Y-88138556D01*
X99099054Y-88099515D01*
X99107816Y-88095051D01*
X99129789Y-88079086D01*
X99279786Y-87970109D01*
X99279788Y-87970106D01*
X99279792Y-87970104D01*
X99430104Y-87819792D01*
X99430106Y-87819788D01*
X99430109Y-87819786D01*
X99555048Y-87647820D01*
X99555047Y-87647820D01*
X99555051Y-87647816D01*
X99651557Y-87458412D01*
X99717246Y-87256243D01*
X99750500Y-87046287D01*
X99750500Y-86833713D01*
X99717246Y-86623757D01*
X99651557Y-86421588D01*
X99555051Y-86232184D01*
X99555049Y-86232181D01*
X99555048Y-86232179D01*
X99430109Y-86060213D01*
X99279786Y-85909890D01*
X99107820Y-85784951D01*
X99107115Y-85784591D01*
X99099054Y-85780485D01*
X99048259Y-85732512D01*
X99031463Y-85664692D01*
X99053999Y-85598556D01*
X99099054Y-85559515D01*
X99107816Y-85555051D01*
X99129789Y-85539086D01*
X99279786Y-85430109D01*
X99279788Y-85430106D01*
X99279792Y-85430104D01*
X99430104Y-85279792D01*
X99430106Y-85279788D01*
X99430109Y-85279786D01*
X99555048Y-85107820D01*
X99555047Y-85107820D01*
X99555051Y-85107816D01*
X99651557Y-84918412D01*
X99717246Y-84716243D01*
X99750500Y-84506287D01*
X99750500Y-84293713D01*
X99717246Y-84083757D01*
X99651557Y-83881588D01*
X99555051Y-83692184D01*
X99555049Y-83692181D01*
X99555048Y-83692179D01*
X99430109Y-83520213D01*
X99279786Y-83369890D01*
X99107820Y-83244951D01*
X99107115Y-83244591D01*
X99099054Y-83240485D01*
X99048259Y-83192512D01*
X99031463Y-83124692D01*
X99053999Y-83058556D01*
X99099054Y-83019515D01*
X99107816Y-83015051D01*
X99129789Y-82999086D01*
X99279786Y-82890109D01*
X99279788Y-82890106D01*
X99279792Y-82890104D01*
X99430104Y-82739792D01*
X99430106Y-82739788D01*
X99430109Y-82739786D01*
X99555048Y-82567820D01*
X99555047Y-82567820D01*
X99555051Y-82567816D01*
X99651557Y-82378412D01*
X99717246Y-82176243D01*
X99750500Y-81966287D01*
X99750500Y-81753713D01*
X99717246Y-81543757D01*
X99651557Y-81341588D01*
X99555051Y-81152184D01*
X99555049Y-81152181D01*
X99555048Y-81152179D01*
X99430109Y-80980213D01*
X99279786Y-80829890D01*
X99107820Y-80704951D01*
X99107115Y-80704591D01*
X99099054Y-80700485D01*
X99048259Y-80652512D01*
X99031463Y-80584692D01*
X99053999Y-80518556D01*
X99099054Y-80479515D01*
X99107816Y-80475051D01*
X99129789Y-80459086D01*
X99279786Y-80350109D01*
X99279788Y-80350106D01*
X99279792Y-80350104D01*
X99430104Y-80199792D01*
X99430106Y-80199788D01*
X99430109Y-80199786D01*
X99555048Y-80027820D01*
X99555047Y-80027820D01*
X99555051Y-80027816D01*
X99651557Y-79838412D01*
X99717246Y-79636243D01*
X99750500Y-79426287D01*
X99750500Y-79213713D01*
X99717246Y-79003757D01*
X99651557Y-78801588D01*
X99555051Y-78612184D01*
X99555049Y-78612181D01*
X99555048Y-78612179D01*
X99430109Y-78440213D01*
X99279786Y-78289890D01*
X99107820Y-78164951D01*
X99107115Y-78164591D01*
X99099054Y-78160485D01*
X99048259Y-78112512D01*
X99031463Y-78044692D01*
X99053999Y-77978556D01*
X99099054Y-77939515D01*
X99107816Y-77935051D01*
X99190221Y-77875181D01*
X99279786Y-77810109D01*
X99279788Y-77810106D01*
X99279792Y-77810104D01*
X99430104Y-77659792D01*
X99430106Y-77659788D01*
X99430109Y-77659786D01*
X99555048Y-77487820D01*
X99555047Y-77487820D01*
X99555051Y-77487816D01*
X99651557Y-77298412D01*
X99717246Y-77096243D01*
X99750500Y-76886287D01*
X99750500Y-76673713D01*
X99717246Y-76463757D01*
X99651557Y-76261588D01*
X99555051Y-76072184D01*
X99555049Y-76072181D01*
X99555048Y-76072179D01*
X99430109Y-75900213D01*
X99279786Y-75749890D01*
X99107817Y-75624949D01*
X99087245Y-75614467D01*
X99036450Y-75566493D01*
X99019655Y-75498672D01*
X99021068Y-75484585D01*
X99028975Y-75434660D01*
X98400001Y-74805686D01*
X98400000Y-74805686D01*
X97771023Y-75434660D01*
X97778931Y-75484586D01*
X97769975Y-75553880D01*
X97724978Y-75607331D01*
X97712756Y-75614466D01*
X97692180Y-75624950D01*
X97520213Y-75749890D01*
X97369890Y-75900213D01*
X97244951Y-76072179D01*
X97148444Y-76261585D01*
X97082753Y-76463760D01*
X97049500Y-76673713D01*
X97049500Y-76886286D01*
X97082753Y-77096239D01*
X97148444Y-77298414D01*
X97244951Y-77487820D01*
X97369890Y-77659786D01*
X97369896Y-77659792D01*
X97520208Y-77810104D01*
X97609780Y-77875181D01*
X97652446Y-77930511D01*
X97658425Y-78000124D01*
X97625820Y-78061920D01*
X97564981Y-78096277D01*
X97536895Y-78099500D01*
X93224500Y-78099500D01*
X93157461Y-78079815D01*
X93111706Y-78027011D01*
X93100500Y-77975500D01*
X93100500Y-74133753D01*
X97050000Y-74133753D01*
X97050000Y-74346246D01*
X97083242Y-74556127D01*
X97083242Y-74556130D01*
X97148904Y-74758217D01*
X97148906Y-74758220D01*
X97205338Y-74868975D01*
X97834314Y-74240000D01*
X97768488Y-74174174D01*
X97900000Y-74174174D01*
X97900000Y-74305826D01*
X97934075Y-74432993D01*
X97999901Y-74547007D01*
X98092993Y-74640099D01*
X98207007Y-74705925D01*
X98334174Y-74740000D01*
X98465826Y-74740000D01*
X98592993Y-74705925D01*
X98707007Y-74640099D01*
X98800099Y-74547007D01*
X98865925Y-74432993D01*
X98900000Y-74305826D01*
X98900000Y-74239999D01*
X98965686Y-74239999D01*
X98965686Y-74240001D01*
X99594660Y-74868975D01*
X99651092Y-74758222D01*
X99716757Y-74556130D01*
X99716757Y-74556127D01*
X99750000Y-74346246D01*
X99750000Y-74133753D01*
X99716757Y-73923872D01*
X99716757Y-73923869D01*
X99651095Y-73721782D01*
X99594660Y-73611023D01*
X98965686Y-74239999D01*
X98900000Y-74239999D01*
X98900000Y-74174174D01*
X98865925Y-74047007D01*
X98800099Y-73932993D01*
X98707007Y-73839901D01*
X98592993Y-73774075D01*
X98465826Y-73740000D01*
X98334174Y-73740000D01*
X98207007Y-73774075D01*
X98092993Y-73839901D01*
X97999901Y-73932993D01*
X97934075Y-74047007D01*
X97900000Y-74174174D01*
X97768488Y-74174174D01*
X97205337Y-73611023D01*
X97148905Y-73721780D01*
X97148905Y-73721781D01*
X97083242Y-73923869D01*
X97083242Y-73923872D01*
X97050000Y-74133753D01*
X93100500Y-74133753D01*
X93100500Y-71722080D01*
X93120185Y-71655041D01*
X93172989Y-71609286D01*
X93242147Y-71599342D01*
X93305703Y-71628367D01*
X93339061Y-71674628D01*
X93401983Y-71826541D01*
X93401990Y-71826553D01*
X93500535Y-71974034D01*
X93500538Y-71974038D01*
X93625961Y-72099461D01*
X93625965Y-72099464D01*
X93773446Y-72198009D01*
X93773459Y-72198016D01*
X93896363Y-72248923D01*
X93937334Y-72265894D01*
X93937336Y-72265894D01*
X93937341Y-72265896D01*
X94111304Y-72300499D01*
X94111307Y-72300500D01*
X94111309Y-72300500D01*
X94288691Y-72300500D01*
X97114281Y-72300500D01*
X97181320Y-72320185D01*
X97224765Y-72368205D01*
X97244947Y-72407814D01*
X97244948Y-72407815D01*
X97369890Y-72579786D01*
X97520213Y-72730109D01*
X97692182Y-72855050D01*
X97712752Y-72865531D01*
X97763548Y-72913505D01*
X97780344Y-72981325D01*
X97778931Y-72995414D01*
X97771023Y-73045337D01*
X98400000Y-73674314D01*
X98400001Y-73674314D01*
X99028974Y-73045338D01*
X99021067Y-72995415D01*
X99030021Y-72926122D01*
X99075017Y-72872669D01*
X99087238Y-72865535D01*
X99107816Y-72855051D01*
X99187007Y-72797515D01*
X99279786Y-72730109D01*
X99279788Y-72730106D01*
X99279792Y-72730104D01*
X99430104Y-72579792D01*
X99430106Y-72579788D01*
X99430109Y-72579786D01*
X99555048Y-72407820D01*
X99555047Y-72407820D01*
X99555051Y-72407816D01*
X99651557Y-72218412D01*
X99717246Y-72016243D01*
X99750500Y-71806287D01*
X99750500Y-71593713D01*
X99717246Y-71383757D01*
X99651557Y-71181588D01*
X99555051Y-70992184D01*
X99555049Y-70992181D01*
X99555048Y-70992179D01*
X99430109Y-70820213D01*
X99279786Y-70669890D01*
X99107820Y-70544951D01*
X99107115Y-70544591D01*
X99099054Y-70540485D01*
X99048259Y-70492512D01*
X99031463Y-70424692D01*
X99053999Y-70358556D01*
X99099054Y-70319515D01*
X99107816Y-70315051D01*
X99162693Y-70275181D01*
X99279786Y-70190109D01*
X99279788Y-70190106D01*
X99279792Y-70190104D01*
X99430104Y-70039792D01*
X99430106Y-70039788D01*
X99430109Y-70039786D01*
X99555048Y-69867820D01*
X99555047Y-69867820D01*
X99555051Y-69867816D01*
X99651557Y-69678412D01*
X99717246Y-69476243D01*
X99750500Y-69266287D01*
X99750500Y-69053713D01*
X99717246Y-68843757D01*
X99651557Y-68641588D01*
X99555051Y-68452184D01*
X99555049Y-68452181D01*
X99555048Y-68452179D01*
X99430109Y-68280213D01*
X99279792Y-68129896D01*
X99272804Y-68124819D01*
X99230138Y-68069489D01*
X99224159Y-67999876D01*
X99256764Y-67938080D01*
X99317603Y-67903723D01*
X99345689Y-67900500D01*
X99975500Y-67900500D01*
X100042539Y-67920185D01*
X100088294Y-67972989D01*
X100099500Y-68024500D01*
X100099500Y-94288695D01*
X100134103Y-94462658D01*
X100134106Y-94462667D01*
X100201983Y-94626540D01*
X100201990Y-94626553D01*
X100300535Y-94774034D01*
X100300538Y-94774038D01*
X100425961Y-94899461D01*
X100425965Y-94899464D01*
X100573446Y-94998009D01*
X100573459Y-94998016D01*
X100696363Y-95048923D01*
X100737334Y-95065894D01*
X100737336Y-95065894D01*
X100737341Y-95065896D01*
X100911304Y-95100499D01*
X100911307Y-95100500D01*
X100911309Y-95100500D01*
X145653138Y-95100500D01*
X145720177Y-95120185D01*
X145763623Y-95168205D01*
X145844951Y-95327819D01*
X145969890Y-95499786D01*
X146120213Y-95650109D01*
X146292179Y-95775048D01*
X146292181Y-95775049D01*
X146292184Y-95775051D01*
X146481588Y-95871557D01*
X146683757Y-95937246D01*
X146893713Y-95970500D01*
X146893714Y-95970500D01*
X147106286Y-95970500D01*
X147106287Y-95970500D01*
X147316243Y-95937246D01*
X147518412Y-95871557D01*
X147707816Y-95775051D01*
X147784257Y-95719514D01*
X147879786Y-95650109D01*
X147879788Y-95650106D01*
X147879792Y-95650104D01*
X148030104Y-95499792D01*
X148030106Y-95499788D01*
X148030109Y-95499786D01*
X148155048Y-95327820D01*
X148155049Y-95327819D01*
X148155051Y-95327816D01*
X148251557Y-95138412D01*
X148317246Y-94936243D01*
X148350500Y-94726287D01*
X148350500Y-94513713D01*
X148317246Y-94303757D01*
X148251557Y-94101588D01*
X148155051Y-93912184D01*
X148155049Y-93912181D01*
X148155048Y-93912179D01*
X148030109Y-93740213D01*
X147879786Y-93589890D01*
X147707820Y-93464951D01*
X147707115Y-93464591D01*
X147699054Y-93460485D01*
X147648259Y-93412512D01*
X147631463Y-93344692D01*
X147653999Y-93278556D01*
X147699054Y-93239515D01*
X147707816Y-93235051D01*
X147784257Y-93179514D01*
X147879786Y-93110109D01*
X147879788Y-93110106D01*
X147879792Y-93110104D01*
X148030104Y-92959792D01*
X148030106Y-92959788D01*
X148030109Y-92959786D01*
X148155048Y-92787820D01*
X148155050Y-92787817D01*
X148155051Y-92787816D01*
X148251557Y-92598412D01*
X148317246Y-92396243D01*
X148350500Y-92186287D01*
X148350500Y-91973713D01*
X148317246Y-91763757D01*
X148251557Y-91561588D01*
X148155051Y-91372184D01*
X148155049Y-91372181D01*
X148155048Y-91372179D01*
X148030109Y-91200213D01*
X147879786Y-91049890D01*
X147707817Y-90924949D01*
X147687245Y-90914467D01*
X147636450Y-90866493D01*
X147619655Y-90798672D01*
X147621068Y-90784585D01*
X147628975Y-90734660D01*
X147000001Y-90105686D01*
X147000000Y-90105686D01*
X146371023Y-90734660D01*
X146374420Y-90756103D01*
X146365464Y-90825397D01*
X146320467Y-90878848D01*
X146253716Y-90899487D01*
X146251946Y-90899500D01*
X104024500Y-90899500D01*
X103957461Y-90879815D01*
X103911706Y-90827011D01*
X103900500Y-90775500D01*
X103900500Y-89433753D01*
X145650000Y-89433753D01*
X145650000Y-89646246D01*
X145683242Y-89856127D01*
X145683242Y-89856130D01*
X145748904Y-90058217D01*
X145748906Y-90058220D01*
X145805338Y-90168975D01*
X146434314Y-89540000D01*
X146368488Y-89474174D01*
X146500000Y-89474174D01*
X146500000Y-89605826D01*
X146534075Y-89732993D01*
X146599901Y-89847007D01*
X146692993Y-89940099D01*
X146807007Y-90005925D01*
X146934174Y-90040000D01*
X147065826Y-90040000D01*
X147192993Y-90005925D01*
X147307007Y-89940099D01*
X147400099Y-89847007D01*
X147465925Y-89732993D01*
X147500000Y-89605826D01*
X147500000Y-89539999D01*
X147565686Y-89539999D01*
X147565686Y-89540000D01*
X148194660Y-90168975D01*
X148251092Y-90058222D01*
X148316757Y-89856130D01*
X148316757Y-89856127D01*
X148350000Y-89646246D01*
X148350000Y-89433753D01*
X148316757Y-89223872D01*
X148316757Y-89223869D01*
X148251095Y-89021782D01*
X148194660Y-88911023D01*
X147565686Y-89539999D01*
X147500000Y-89539999D01*
X147500000Y-89474174D01*
X147465925Y-89347007D01*
X147400099Y-89232993D01*
X147307007Y-89139901D01*
X147192993Y-89074075D01*
X147065826Y-89040000D01*
X146934174Y-89040000D01*
X146807007Y-89074075D01*
X146692993Y-89139901D01*
X146599901Y-89232993D01*
X146534075Y-89347007D01*
X146500000Y-89474174D01*
X146368488Y-89474174D01*
X145805337Y-88911023D01*
X145748905Y-89021780D01*
X145748905Y-89021781D01*
X145683242Y-89223869D01*
X145683242Y-89223872D01*
X145650000Y-89433753D01*
X103900500Y-89433753D01*
X103900500Y-86102135D01*
X145649500Y-86102135D01*
X145649500Y-87897870D01*
X145649501Y-87897876D01*
X145655908Y-87957483D01*
X145706202Y-88092328D01*
X145706206Y-88092335D01*
X145792452Y-88207544D01*
X145792455Y-88207547D01*
X145907664Y-88293793D01*
X145907671Y-88293797D01*
X145952618Y-88310561D01*
X146042517Y-88344091D01*
X146102127Y-88350500D01*
X146324824Y-88350499D01*
X146391862Y-88370183D01*
X146412504Y-88386818D01*
X147000000Y-88974314D01*
X147000001Y-88974314D01*
X147587495Y-88386818D01*
X147648818Y-88353333D01*
X147675174Y-88350499D01*
X147897872Y-88350499D01*
X147957483Y-88344091D01*
X148092331Y-88293796D01*
X148207546Y-88207546D01*
X148293796Y-88092331D01*
X148344091Y-87957483D01*
X148350500Y-87897873D01*
X148350499Y-86102128D01*
X148344091Y-86042517D01*
X148294624Y-85909890D01*
X148293797Y-85907671D01*
X148293793Y-85907664D01*
X148207547Y-85792455D01*
X148207544Y-85792452D01*
X148092335Y-85706206D01*
X148092328Y-85706202D01*
X147957482Y-85655908D01*
X147957483Y-85655908D01*
X147897883Y-85649501D01*
X147897881Y-85649500D01*
X147897873Y-85649500D01*
X147897864Y-85649500D01*
X146102129Y-85649500D01*
X146102123Y-85649501D01*
X146042516Y-85655908D01*
X145907671Y-85706202D01*
X145907664Y-85706206D01*
X145792455Y-85792452D01*
X145792452Y-85792455D01*
X145706206Y-85907664D01*
X145706202Y-85907671D01*
X145655908Y-86042517D01*
X145654006Y-86060213D01*
X145649501Y-86102123D01*
X145649500Y-86102135D01*
X103900500Y-86102135D01*
X103900500Y-56511306D01*
X103900499Y-56511304D01*
X103865896Y-56337341D01*
X103865893Y-56337332D01*
X103798016Y-56173459D01*
X103798009Y-56173446D01*
X103699464Y-56025965D01*
X103699461Y-56025961D01*
X103574038Y-55900538D01*
X103574034Y-55900535D01*
X103426553Y-55801990D01*
X103426541Y-55801983D01*
X103294718Y-55747382D01*
X103274627Y-55739060D01*
X103220224Y-55695221D01*
X103198159Y-55628927D01*
X103215438Y-55561227D01*
X103266575Y-55513617D01*
X103322080Y-55500500D01*
X127175499Y-55500500D01*
X127242538Y-55520185D01*
X127288293Y-55572989D01*
X127299499Y-55624500D01*
X127299499Y-58288695D01*
X127334102Y-58462658D01*
X127334105Y-58462667D01*
X127401982Y-58626540D01*
X127401989Y-58626553D01*
X127500534Y-58774034D01*
X127500537Y-58774038D01*
X127625960Y-58899461D01*
X127625964Y-58899464D01*
X127773445Y-58998009D01*
X127773458Y-58998016D01*
X127896362Y-59048923D01*
X127937333Y-59065894D01*
X127937335Y-59065894D01*
X127937340Y-59065896D01*
X128111303Y-59100499D01*
X128111306Y-59100500D01*
X128111308Y-59100500D01*
X128288690Y-59100500D01*
X145653138Y-59100500D01*
X145720177Y-59120185D01*
X145763623Y-59168205D01*
X145841007Y-59320080D01*
X145844951Y-59327819D01*
X145969890Y-59499786D01*
X146120213Y-59650109D01*
X146292179Y-59775048D01*
X146292181Y-59775049D01*
X146292184Y-59775051D01*
X146481588Y-59871557D01*
X146683757Y-59937246D01*
X146893713Y-59970500D01*
X146893714Y-59970500D01*
X147106286Y-59970500D01*
X147106287Y-59970500D01*
X147316243Y-59937246D01*
X147518412Y-59871557D01*
X147707816Y-59775051D01*
X147729789Y-59759086D01*
X147879786Y-59650109D01*
X147879788Y-59650106D01*
X147879792Y-59650104D01*
X148030104Y-59499792D01*
X148030106Y-59499788D01*
X148030109Y-59499786D01*
X148155048Y-59327820D01*
X148155049Y-59327819D01*
X148155051Y-59327816D01*
X148251557Y-59138412D01*
X148317246Y-58936243D01*
X148350500Y-58726287D01*
X148350500Y-58513713D01*
X148317246Y-58303757D01*
X148251557Y-58101588D01*
X148155051Y-57912184D01*
X148155049Y-57912181D01*
X148155048Y-57912179D01*
X148030109Y-57740213D01*
X147879786Y-57589890D01*
X147707820Y-57464951D01*
X147707115Y-57464591D01*
X147699054Y-57460485D01*
X147648259Y-57412512D01*
X147631463Y-57344692D01*
X147653999Y-57278556D01*
X147699054Y-57239515D01*
X147707816Y-57235051D01*
X147730137Y-57218834D01*
X147879786Y-57110109D01*
X147879788Y-57110106D01*
X147879792Y-57110104D01*
X148030104Y-56959792D01*
X148030106Y-56959788D01*
X148030109Y-56959786D01*
X148155048Y-56787820D01*
X148155050Y-56787817D01*
X148155051Y-56787816D01*
X148251557Y-56598412D01*
X148317246Y-56396243D01*
X148350500Y-56186287D01*
X148350500Y-55973713D01*
X148317246Y-55763757D01*
X148251557Y-55561588D01*
X148155051Y-55372184D01*
X148155049Y-55372181D01*
X148155048Y-55372179D01*
X148030109Y-55200213D01*
X147942077Y-55112181D01*
X147908592Y-55050858D01*
X147913576Y-54981166D01*
X147955448Y-54925233D01*
X148020912Y-54900816D01*
X148029758Y-54900500D01*
X149375500Y-54900500D01*
X149442539Y-54920185D01*
X149488294Y-54972989D01*
X149499500Y-55024500D01*
X149499500Y-106375500D01*
X149479815Y-106442539D01*
X149427011Y-106488294D01*
X149375500Y-106499500D01*
X148511306Y-106499500D01*
X148337341Y-106534103D01*
X148337332Y-106534106D01*
X148173459Y-106601983D01*
X148173446Y-106601990D01*
X148025965Y-106700535D01*
X148025961Y-106700538D01*
X147900538Y-106825961D01*
X147900535Y-106825965D01*
X147801990Y-106973446D01*
X147801983Y-106973459D01*
X147734106Y-107137332D01*
X147734103Y-107137341D01*
X147699500Y-107311304D01*
X147699500Y-109175500D01*
X147679815Y-109242539D01*
X147627011Y-109288294D01*
X147575500Y-109299500D01*
X139622351Y-109299500D01*
X139555312Y-109279815D01*
X139509557Y-109227011D01*
X139499061Y-109188752D01*
X139494091Y-109142516D01*
X139456831Y-109042618D01*
X139451847Y-108972927D01*
X139456831Y-108955951D01*
X139493597Y-108857376D01*
X139493598Y-108857372D01*
X139499999Y-108797844D01*
X139500000Y-108797827D01*
X139500000Y-108400000D01*
X136500000Y-108400000D01*
X136500000Y-108797844D01*
X136506401Y-108857372D01*
X136506403Y-108857380D01*
X136543168Y-108955952D01*
X136548152Y-109025644D01*
X136543168Y-109042617D01*
X136505909Y-109142514D01*
X136505908Y-109142516D01*
X136500938Y-109188752D01*
X136499501Y-109202123D01*
X136499500Y-109202135D01*
X136499500Y-110797870D01*
X136499501Y-110797876D01*
X136505909Y-110857484D01*
X136542901Y-110956668D01*
X136547885Y-111026360D01*
X136542901Y-111043332D01*
X136505909Y-111142514D01*
X136505908Y-111142516D01*
X136499706Y-111200208D01*
X136499501Y-111202123D01*
X136499500Y-111202135D01*
X136499500Y-112797870D01*
X136499501Y-112797876D01*
X136505909Y-112857484D01*
X136542901Y-112956668D01*
X136547885Y-113026360D01*
X136542901Y-113043332D01*
X136505909Y-113142514D01*
X136505908Y-113142516D01*
X136499501Y-113202116D01*
X136499501Y-113202123D01*
X136499500Y-113202135D01*
X136499500Y-114797870D01*
X136499501Y-114797876D01*
X136505909Y-114857484D01*
X136542901Y-114956668D01*
X136547885Y-115026360D01*
X136542901Y-115043332D01*
X136505909Y-115142514D01*
X136505908Y-115142516D01*
X136499501Y-115202116D01*
X136499501Y-115202123D01*
X136499500Y-115202135D01*
X136499500Y-116797870D01*
X136499501Y-116797876D01*
X136505909Y-116857484D01*
X136542901Y-116956668D01*
X136547885Y-117026360D01*
X136542901Y-117043332D01*
X136505909Y-117142514D01*
X136505908Y-117142516D01*
X136499501Y-117202116D01*
X136499501Y-117202123D01*
X136499500Y-117202135D01*
X136499500Y-118797870D01*
X136499501Y-118797876D01*
X136505909Y-118857484D01*
X136542901Y-118956668D01*
X136547885Y-119026360D01*
X136542901Y-119043332D01*
X136505909Y-119142514D01*
X136505908Y-119142516D01*
X136499501Y-119202116D01*
X136499501Y-119202123D01*
X136499500Y-119202135D01*
X136499500Y-120797870D01*
X136499501Y-120797876D01*
X136505908Y-120857483D01*
X136556202Y-120992328D01*
X136556206Y-120992335D01*
X136642452Y-121107544D01*
X136642455Y-121107547D01*
X136757664Y-121193793D01*
X136757671Y-121193797D01*
X136892517Y-121244091D01*
X136892516Y-121244091D01*
X136899444Y-121244835D01*
X136952127Y-121250500D01*
X139047872Y-121250499D01*
X139107483Y-121244091D01*
X139242331Y-121193796D01*
X139357546Y-121107546D01*
X139443796Y-120992331D01*
X139494091Y-120857483D01*
X139500500Y-120797873D01*
X139500499Y-119202128D01*
X139494091Y-119142517D01*
X139457096Y-119043330D01*
X139452113Y-118973642D01*
X139457092Y-118956680D01*
X139494091Y-118857483D01*
X139500500Y-118797873D01*
X139500499Y-117202128D01*
X139494091Y-117142517D01*
X139457096Y-117043330D01*
X139452113Y-116973642D01*
X139457092Y-116956680D01*
X139494091Y-116857483D01*
X139500500Y-116797873D01*
X139500499Y-115224499D01*
X139520184Y-115157461D01*
X139572987Y-115111706D01*
X139624499Y-115100500D01*
X150688693Y-115100500D01*
X150688694Y-115100499D01*
X150746682Y-115088964D01*
X150862658Y-115065896D01*
X150862661Y-115065894D01*
X150862666Y-115065894D01*
X151026547Y-114998013D01*
X151174035Y-114899464D01*
X151299464Y-114774035D01*
X151398013Y-114626547D01*
X151465894Y-114462666D01*
X151500500Y-114288691D01*
X151500500Y-113416670D01*
X151520185Y-113349631D01*
X151568204Y-113306186D01*
X151707816Y-113235051D01*
X151771542Y-113188752D01*
X151879786Y-113110109D01*
X151879788Y-113110106D01*
X151879792Y-113110104D01*
X152030104Y-112959792D01*
X152030106Y-112959788D01*
X152030109Y-112959786D01*
X152155048Y-112787820D01*
X152155047Y-112787820D01*
X152155051Y-112787816D01*
X152251557Y-112598412D01*
X152317246Y-112396243D01*
X152350500Y-112186287D01*
X152350500Y-111973713D01*
X152317246Y-111763757D01*
X152251557Y-111561588D01*
X152155051Y-111372184D01*
X152155049Y-111372181D01*
X152155048Y-111372179D01*
X152030109Y-111200213D01*
X151879786Y-111049890D01*
X151707820Y-110924951D01*
X151707115Y-110924591D01*
X151699054Y-110920485D01*
X151648259Y-110872512D01*
X151631463Y-110804692D01*
X151653999Y-110738556D01*
X151699054Y-110699515D01*
X151707816Y-110695051D01*
X151802096Y-110626553D01*
X151879786Y-110570109D01*
X151879788Y-110570106D01*
X151879792Y-110570104D01*
X152030104Y-110419792D01*
X152030106Y-110419788D01*
X152030109Y-110419786D01*
X152155048Y-110247820D01*
X152155047Y-110247820D01*
X152155051Y-110247816D01*
X152251557Y-110058412D01*
X152317246Y-109856243D01*
X152350500Y-109646287D01*
X152350500Y-109433713D01*
X152317246Y-109223757D01*
X152251557Y-109021588D01*
X152155051Y-108832184D01*
X152155049Y-108832181D01*
X152155048Y-108832179D01*
X152030109Y-108660213D01*
X151916569Y-108546673D01*
X151883084Y-108485350D01*
X151888068Y-108415658D01*
X151929940Y-108359725D01*
X151960915Y-108342810D01*
X152092331Y-108293796D01*
X152207546Y-108207546D01*
X152293796Y-108092331D01*
X152344091Y-107957483D01*
X152350500Y-107897873D01*
X152350499Y-106102128D01*
X152344091Y-106042517D01*
X152319095Y-105975500D01*
X152293797Y-105907671D01*
X152293793Y-105907664D01*
X152207547Y-105792455D01*
X152207544Y-105792452D01*
X152092335Y-105706206D01*
X152092328Y-105706202D01*
X151957482Y-105655908D01*
X151957483Y-105655908D01*
X151897883Y-105649501D01*
X151897881Y-105649500D01*
X151897873Y-105649500D01*
X151897865Y-105649500D01*
X151824500Y-105649500D01*
X151757461Y-105629815D01*
X151711706Y-105577011D01*
X151700500Y-105525500D01*
X151700500Y-53713389D01*
X151686217Y-53623211D01*
X151673402Y-53542299D01*
X151619873Y-53377555D01*
X151541232Y-53223212D01*
X151439414Y-53083072D01*
X151316928Y-52960586D01*
X151176788Y-52858768D01*
X151022445Y-52780127D01*
X150857701Y-52726598D01*
X150857699Y-52726597D01*
X150857698Y-52726597D01*
X150726271Y-52705781D01*
X150686611Y-52699500D01*
X150686610Y-52699500D01*
X148120758Y-52699500D01*
X148053719Y-52679815D01*
X148033077Y-52663181D01*
X147916181Y-52546285D01*
X147882696Y-52484962D01*
X147887680Y-52415270D01*
X147929552Y-52359337D01*
X147960529Y-52342422D01*
X148092086Y-52293354D01*
X148092093Y-52293350D01*
X148207187Y-52207190D01*
X148207190Y-52207187D01*
X148293350Y-52092093D01*
X148293354Y-52092086D01*
X148343596Y-51957379D01*
X148343598Y-51957372D01*
X148349999Y-51897844D01*
X148350000Y-51897827D01*
X148350000Y-51400000D01*
X147307106Y-51400000D01*
X147400099Y-51307007D01*
X147465925Y-51192993D01*
X147500000Y-51065826D01*
X147500000Y-50934174D01*
X147465925Y-50807007D01*
X147400099Y-50692993D01*
X147307106Y-50600000D01*
X147400000Y-50600000D01*
X148350000Y-50600000D01*
X148350000Y-50102172D01*
X148349999Y-50102155D01*
X148343598Y-50042627D01*
X148343596Y-50042620D01*
X148293354Y-49907913D01*
X148293350Y-49907906D01*
X148207190Y-49792812D01*
X148207187Y-49792809D01*
X148092093Y-49706649D01*
X148092086Y-49706645D01*
X147957379Y-49656403D01*
X147957372Y-49656401D01*
X147897844Y-49650000D01*
X147400000Y-49650000D01*
X147400000Y-50600000D01*
X147307106Y-50600000D01*
X147307007Y-50599901D01*
X147192993Y-50534075D01*
X147065826Y-50500000D01*
X146934174Y-50500000D01*
X146807007Y-50534075D01*
X146692993Y-50599901D01*
X146599901Y-50692993D01*
X146534075Y-50807007D01*
X146500000Y-50934174D01*
X146500000Y-51065826D01*
X146534075Y-51192993D01*
X146599901Y-51307007D01*
X146692894Y-51400000D01*
X145650000Y-51400000D01*
X145650000Y-51897844D01*
X145656401Y-51957372D01*
X145656403Y-51957379D01*
X145706645Y-52092086D01*
X145706646Y-52092088D01*
X145713460Y-52101190D01*
X145737876Y-52166655D01*
X145723024Y-52234928D01*
X145673618Y-52284333D01*
X145614192Y-52299500D01*
X145424500Y-52299500D01*
X145357461Y-52279815D01*
X145311706Y-52227011D01*
X145300500Y-52175500D01*
X145300500Y-50102155D01*
X145650000Y-50102155D01*
X145650000Y-50600000D01*
X146600000Y-50600000D01*
X146600000Y-49650000D01*
X146102155Y-49650000D01*
X146042627Y-49656401D01*
X146042620Y-49656403D01*
X145907913Y-49706645D01*
X145907906Y-49706649D01*
X145792812Y-49792809D01*
X145792809Y-49792812D01*
X145706649Y-49907906D01*
X145706645Y-49907913D01*
X145656403Y-50042620D01*
X145656401Y-50042627D01*
X145650000Y-50102155D01*
X145300500Y-50102155D01*
X145300500Y-42113389D01*
X145275807Y-41957486D01*
X145273402Y-41942299D01*
X145219873Y-41777555D01*
X145141232Y-41623212D01*
X145039414Y-41483072D01*
X144916928Y-41360586D01*
X144776788Y-41258768D01*
X144622445Y-41180127D01*
X144457701Y-41126598D01*
X144457699Y-41126597D01*
X144457698Y-41126597D01*
X144326271Y-41105781D01*
X144286611Y-41099500D01*
X144286610Y-41099500D01*
X124624500Y-41099500D01*
X124557461Y-41079815D01*
X124511706Y-41027011D01*
X124500500Y-40975500D01*
X124500500Y-37313389D01*
X124473402Y-37142302D01*
X124473402Y-37142299D01*
X124419873Y-36977555D01*
X124341232Y-36823212D01*
X124239414Y-36683072D01*
X124116928Y-36560586D01*
X123976788Y-36458768D01*
X123822445Y-36380127D01*
X123657701Y-36326598D01*
X123657699Y-36326597D01*
X123657698Y-36326597D01*
X123526271Y-36305781D01*
X123486611Y-36299500D01*
X123486610Y-36299500D01*
X74020758Y-36299500D01*
X73953719Y-36279815D01*
X73933077Y-36263181D01*
X73916181Y-36246285D01*
X73882696Y-36184962D01*
X73887680Y-36115270D01*
X73929552Y-36059337D01*
X73960529Y-36042422D01*
X74092086Y-35993354D01*
X74092093Y-35993350D01*
X74207187Y-35907190D01*
X74207190Y-35907187D01*
X74293350Y-35792093D01*
X74293354Y-35792086D01*
X74343596Y-35657379D01*
X74343598Y-35657372D01*
X74349999Y-35597844D01*
X74350000Y-35597827D01*
X74350000Y-35100000D01*
X73307106Y-35100000D01*
X73400099Y-35007007D01*
X73465925Y-34892993D01*
X73500000Y-34765826D01*
X73500000Y-34634174D01*
X73465925Y-34507007D01*
X73400099Y-34392993D01*
X73307106Y-34300000D01*
X73400000Y-34300000D01*
X74350000Y-34300000D01*
X74350000Y-33802172D01*
X74349999Y-33802155D01*
X74343598Y-33742627D01*
X74343596Y-33742620D01*
X74293354Y-33607913D01*
X74293350Y-33607906D01*
X74207190Y-33492812D01*
X74207187Y-33492809D01*
X74092093Y-33406649D01*
X74092086Y-33406645D01*
X73957379Y-33356403D01*
X73957372Y-33356401D01*
X73897844Y-33350000D01*
X73400000Y-33350000D01*
X73400000Y-34300000D01*
X73307106Y-34300000D01*
X73307007Y-34299901D01*
X73192993Y-34234075D01*
X73065826Y-34200000D01*
X72934174Y-34200000D01*
X72807007Y-34234075D01*
X72692993Y-34299901D01*
X72599901Y-34392993D01*
X72534075Y-34507007D01*
X72500000Y-34634174D01*
X72500000Y-34765826D01*
X72534075Y-34892993D01*
X72599901Y-35007007D01*
X72692894Y-35100000D01*
X71650000Y-35100000D01*
X71650000Y-35597844D01*
X71656401Y-35657372D01*
X71656403Y-35657379D01*
X71684297Y-35732167D01*
X71689281Y-35801859D01*
X71655796Y-35863182D01*
X71594473Y-35896666D01*
X71568115Y-35899500D01*
X69493656Y-35899500D01*
X69426617Y-35879815D01*
X69380862Y-35827011D01*
X69370918Y-35757853D01*
X69397009Y-35697813D01*
X69516607Y-35549025D01*
X69516609Y-35549022D01*
X69601168Y-35378523D01*
X69647102Y-35193824D01*
X69650000Y-35151096D01*
X69650000Y-35100000D01*
X66650000Y-35100000D01*
X66650000Y-35151096D01*
X66652897Y-35193824D01*
X66698831Y-35378523D01*
X66783390Y-35549022D01*
X66783392Y-35549025D01*
X66902991Y-35697813D01*
X66929650Y-35762397D01*
X66917159Y-35831141D01*
X66869486Y-35882220D01*
X66806344Y-35899500D01*
X65486611Y-35899500D01*
X65313389Y-35899500D01*
X65273728Y-35905781D01*
X65142302Y-35926597D01*
X64977552Y-35980128D01*
X64823211Y-36058768D01*
X64787177Y-36084949D01*
X64683072Y-36160586D01*
X64683070Y-36160588D01*
X64683069Y-36160588D01*
X64560588Y-36283069D01*
X64560588Y-36283070D01*
X64560586Y-36283072D01*
X64516859Y-36343256D01*
X64458768Y-36423211D01*
X64380128Y-36577552D01*
X64326597Y-36742302D01*
X64299500Y-36913389D01*
X64299500Y-52975500D01*
X64279815Y-53042539D01*
X64227011Y-53088294D01*
X64175500Y-53099500D01*
X38286611Y-53099500D01*
X38113389Y-53099500D01*
X38073728Y-53105781D01*
X37942302Y-53126597D01*
X37777552Y-53180128D01*
X37623211Y-53258768D01*
X37543256Y-53316859D01*
X37483072Y-53360586D01*
X37483070Y-53360588D01*
X37483069Y-53360588D01*
X37360588Y-53483069D01*
X37360588Y-53483070D01*
X37360586Y-53483072D01*
X37358015Y-53486611D01*
X37258768Y-53623211D01*
X37180128Y-53777552D01*
X37180127Y-53777554D01*
X37180127Y-53777555D01*
X37172188Y-53801990D01*
X37126597Y-53942302D01*
X37099500Y-54113389D01*
X37099500Y-64975500D01*
X37079815Y-65042539D01*
X37027011Y-65088294D01*
X36975500Y-65099500D01*
X33486611Y-65099500D01*
X33313389Y-65099500D01*
X33273728Y-65105781D01*
X33142302Y-65126597D01*
X32977552Y-65180128D01*
X32823211Y-65258768D01*
X32795976Y-65278556D01*
X32683072Y-65360586D01*
X32683070Y-65360588D01*
X32683069Y-65360588D01*
X32560588Y-65483069D01*
X32560588Y-65483070D01*
X32560586Y-65483072D01*
X32516859Y-65543256D01*
X32458768Y-65623211D01*
X32380128Y-65777552D01*
X32326597Y-65942302D01*
X32299500Y-66113389D01*
X32299500Y-67838255D01*
X32279815Y-67905294D01*
X32248385Y-67938573D01*
X32152787Y-68008028D01*
X32152782Y-68008032D01*
X32008028Y-68152786D01*
X31887715Y-68318386D01*
X31794781Y-68500776D01*
X31731522Y-68695465D01*
X31699500Y-68897648D01*
X26000000Y-68897648D01*
X26000000Y-58399983D01*
X31699500Y-58399983D01*
X31699500Y-59600001D01*
X31699501Y-59600018D01*
X31710000Y-59702796D01*
X31710001Y-59702799D01*
X31765185Y-59869331D01*
X31765187Y-59869336D01*
X31782771Y-59897844D01*
X31857288Y-60018656D01*
X31981344Y-60142712D01*
X32130666Y-60234814D01*
X32297203Y-60289999D01*
X32399991Y-60300500D01*
X33600008Y-60300499D01*
X33702797Y-60289999D01*
X33869334Y-60234814D01*
X33994705Y-60157485D01*
X34908198Y-60157485D01*
X35000968Y-60204755D01*
X35195582Y-60267990D01*
X35397683Y-60300000D01*
X35602317Y-60300000D01*
X35804417Y-60267990D01*
X35999031Y-60204755D01*
X36091801Y-60157485D01*
X35500001Y-59565685D01*
X35500000Y-59565685D01*
X34908198Y-60157485D01*
X33994705Y-60157485D01*
X34018656Y-60142712D01*
X34142712Y-60018656D01*
X34234814Y-59869334D01*
X34289999Y-59702797D01*
X34292170Y-59681544D01*
X34318566Y-59616853D01*
X34327847Y-59606466D01*
X34934314Y-59000000D01*
X34934314Y-58999999D01*
X34881654Y-58947339D01*
X35100000Y-58947339D01*
X35100000Y-59052661D01*
X35127259Y-59154394D01*
X35179920Y-59245606D01*
X35254394Y-59320080D01*
X35345606Y-59372741D01*
X35447339Y-59400000D01*
X35552661Y-59400000D01*
X35654394Y-59372741D01*
X35745606Y-59320080D01*
X35820080Y-59245606D01*
X35872741Y-59154394D01*
X35900000Y-59052661D01*
X35900000Y-58999999D01*
X36065685Y-58999999D01*
X36065685Y-59000000D01*
X36657485Y-59591800D01*
X36704755Y-59499031D01*
X36767990Y-59304417D01*
X36800000Y-59102317D01*
X36800000Y-58897682D01*
X36767990Y-58695582D01*
X36704755Y-58500968D01*
X36657485Y-58408198D01*
X36065685Y-58999999D01*
X35900000Y-58999999D01*
X35900000Y-58947339D01*
X35872741Y-58845606D01*
X35820080Y-58754394D01*
X35745606Y-58679920D01*
X35654394Y-58627259D01*
X35552661Y-58600000D01*
X35447339Y-58600000D01*
X35345606Y-58627259D01*
X35254394Y-58679920D01*
X35179920Y-58754394D01*
X35127259Y-58845606D01*
X35100000Y-58947339D01*
X34881654Y-58947339D01*
X34327846Y-58393531D01*
X34294361Y-58332208D01*
X34292169Y-58318449D01*
X34289999Y-58297203D01*
X34289998Y-58297200D01*
X34287178Y-58288691D01*
X34234814Y-58130666D01*
X34142712Y-57981344D01*
X34018656Y-57857288D01*
X33994700Y-57842512D01*
X34908197Y-57842512D01*
X35500000Y-58434314D01*
X35500001Y-58434314D01*
X36091801Y-57842512D01*
X35999034Y-57795246D01*
X35999027Y-57795243D01*
X35804417Y-57732009D01*
X35602317Y-57700000D01*
X35397683Y-57700000D01*
X35195581Y-57732010D01*
X35195578Y-57732010D01*
X35000974Y-57795242D01*
X35000973Y-57795242D01*
X34908197Y-57842512D01*
X33994700Y-57842512D01*
X33913543Y-57792454D01*
X33869336Y-57765187D01*
X33869331Y-57765185D01*
X33867862Y-57764698D01*
X33702797Y-57710001D01*
X33702795Y-57710000D01*
X33600010Y-57699500D01*
X32399998Y-57699500D01*
X32399981Y-57699501D01*
X32297203Y-57710000D01*
X32297200Y-57710001D01*
X32130668Y-57765185D01*
X32130663Y-57765187D01*
X31981342Y-57857289D01*
X31857289Y-57981342D01*
X31765187Y-58130663D01*
X31765186Y-58130666D01*
X31710001Y-58297203D01*
X31710001Y-58297204D01*
X31710000Y-58297204D01*
X31699500Y-58399983D01*
X26000000Y-58399983D01*
X26000000Y-44734660D01*
X38371023Y-44734660D01*
X38481782Y-44791095D01*
X38683870Y-44856757D01*
X38893754Y-44890000D01*
X39106246Y-44890000D01*
X39316127Y-44856757D01*
X39316130Y-44856757D01*
X39518222Y-44791092D01*
X39628975Y-44734660D01*
X39000001Y-44105686D01*
X39000000Y-44105686D01*
X38371023Y-44734660D01*
X26000000Y-44734660D01*
X26000000Y-43433753D01*
X37650000Y-43433753D01*
X37650000Y-43646246D01*
X37683242Y-43856127D01*
X37683242Y-43856130D01*
X37748904Y-44058217D01*
X37748906Y-44058220D01*
X37805338Y-44168975D01*
X38434314Y-43540000D01*
X38368488Y-43474174D01*
X38500000Y-43474174D01*
X38500000Y-43605826D01*
X38534075Y-43732993D01*
X38599901Y-43847007D01*
X38692993Y-43940099D01*
X38807007Y-44005925D01*
X38934174Y-44040000D01*
X39065826Y-44040000D01*
X39192993Y-44005925D01*
X39307007Y-43940099D01*
X39400099Y-43847007D01*
X39465925Y-43732993D01*
X39500000Y-43605826D01*
X39500000Y-43539999D01*
X39565686Y-43539999D01*
X39565686Y-43540000D01*
X40194660Y-44168975D01*
X40251092Y-44058222D01*
X40316757Y-43856130D01*
X40316757Y-43856127D01*
X40350000Y-43646246D01*
X40350000Y-43433753D01*
X40316757Y-43223872D01*
X40316757Y-43223869D01*
X40251095Y-43021782D01*
X40194660Y-42911023D01*
X39565686Y-43539999D01*
X39500000Y-43539999D01*
X39500000Y-43474174D01*
X39465925Y-43347007D01*
X39400099Y-43232993D01*
X39307007Y-43139901D01*
X39192993Y-43074075D01*
X39065826Y-43040000D01*
X38934174Y-43040000D01*
X38807007Y-43074075D01*
X38692993Y-43139901D01*
X38599901Y-43232993D01*
X38534075Y-43347007D01*
X38500000Y-43474174D01*
X38368488Y-43474174D01*
X37805337Y-42911023D01*
X37748905Y-43021780D01*
X37748905Y-43021781D01*
X37683242Y-43223869D01*
X37683242Y-43223872D01*
X37650000Y-43433753D01*
X26000000Y-43433753D01*
X26000000Y-40102135D01*
X37649500Y-40102135D01*
X37649500Y-41897870D01*
X37649501Y-41897876D01*
X37655908Y-41957483D01*
X37706202Y-42092328D01*
X37706206Y-42092335D01*
X37792452Y-42207544D01*
X37792455Y-42207547D01*
X37907664Y-42293793D01*
X37907671Y-42293797D01*
X37952618Y-42310561D01*
X38042517Y-42344091D01*
X38102127Y-42350500D01*
X38324824Y-42350499D01*
X38391862Y-42370183D01*
X38412504Y-42386818D01*
X39000000Y-42974314D01*
X39000001Y-42974314D01*
X39587495Y-42386818D01*
X39648818Y-42353333D01*
X39675174Y-42350499D01*
X39897872Y-42350499D01*
X39957483Y-42344091D01*
X40092331Y-42293796D01*
X40207546Y-42207546D01*
X40293796Y-42092331D01*
X40344091Y-41957483D01*
X40350500Y-41897873D01*
X40350499Y-41822890D01*
X40370183Y-41755852D01*
X40386818Y-41735209D01*
X40544517Y-41577510D01*
X40683343Y-41386433D01*
X40790568Y-41175992D01*
X40863553Y-40951368D01*
X40866138Y-40935048D01*
X40900500Y-40718097D01*
X40900500Y-39814660D01*
X54371023Y-39814660D01*
X54481782Y-39871095D01*
X54683870Y-39936757D01*
X54893754Y-39970000D01*
X55106246Y-39970000D01*
X55316127Y-39936757D01*
X55316130Y-39936757D01*
X55518222Y-39871092D01*
X55628975Y-39814660D01*
X55000001Y-39185686D01*
X55000000Y-39185686D01*
X54371023Y-39814660D01*
X40900500Y-39814660D01*
X40900500Y-38513753D01*
X53650000Y-38513753D01*
X53650000Y-38726246D01*
X53683242Y-38936127D01*
X53683242Y-38936130D01*
X53748904Y-39138217D01*
X53748906Y-39138220D01*
X53805338Y-39248975D01*
X54434314Y-38620000D01*
X54368488Y-38554174D01*
X54500000Y-38554174D01*
X54500000Y-38685826D01*
X54534075Y-38812993D01*
X54599901Y-38927007D01*
X54692993Y-39020099D01*
X54807007Y-39085925D01*
X54934174Y-39120000D01*
X55065826Y-39120000D01*
X55192993Y-39085925D01*
X55307007Y-39020099D01*
X55400099Y-38927007D01*
X55465925Y-38812993D01*
X55500000Y-38685826D01*
X55500000Y-38619999D01*
X55565686Y-38619999D01*
X55565686Y-38620001D01*
X56194660Y-39248975D01*
X56251092Y-39138222D01*
X56316757Y-38936130D01*
X56316757Y-38936127D01*
X56350000Y-38726246D01*
X56350000Y-38513753D01*
X56316757Y-38303872D01*
X56316757Y-38303869D01*
X56251095Y-38101782D01*
X56194660Y-37991023D01*
X55565686Y-38619999D01*
X55500000Y-38619999D01*
X55500000Y-38554174D01*
X55465925Y-38427007D01*
X55400099Y-38312993D01*
X55307007Y-38219901D01*
X55192993Y-38154075D01*
X55065826Y-38120000D01*
X54934174Y-38120000D01*
X54807007Y-38154075D01*
X54692993Y-38219901D01*
X54599901Y-38312993D01*
X54534075Y-38427007D01*
X54500000Y-38554174D01*
X54368488Y-38554174D01*
X53805337Y-37991023D01*
X53748905Y-38101780D01*
X53748905Y-38101781D01*
X53683242Y-38303869D01*
X53683242Y-38303872D01*
X53650000Y-38513753D01*
X40900500Y-38513753D01*
X40900500Y-35973713D01*
X53649500Y-35973713D01*
X53649500Y-36186286D01*
X53680201Y-36380128D01*
X53682754Y-36396243D01*
X53736153Y-36560588D01*
X53748444Y-36598414D01*
X53844951Y-36787820D01*
X53969890Y-36959786D01*
X54120213Y-37110109D01*
X54292182Y-37235050D01*
X54312752Y-37245531D01*
X54363548Y-37293505D01*
X54380344Y-37361325D01*
X54378931Y-37375414D01*
X54371023Y-37425337D01*
X55000000Y-38054314D01*
X55000001Y-38054314D01*
X55628974Y-37425338D01*
X55621067Y-37375415D01*
X55630021Y-37306122D01*
X55675017Y-37252669D01*
X55687238Y-37245535D01*
X55707816Y-37235051D01*
X55835475Y-37142302D01*
X55879786Y-37110109D01*
X55879788Y-37110106D01*
X55879792Y-37110104D01*
X56030104Y-36959792D01*
X56030106Y-36959788D01*
X56030109Y-36959786D01*
X56155048Y-36787820D01*
X56155047Y-36787820D01*
X56155051Y-36787816D01*
X56251557Y-36598412D01*
X56317246Y-36396243D01*
X56350500Y-36186287D01*
X56350500Y-35973713D01*
X56317246Y-35763757D01*
X56251557Y-35561588D01*
X56241559Y-35541966D01*
X60349500Y-35541966D01*
X60349500Y-38458028D01*
X60349501Y-38458034D01*
X60360113Y-38577415D01*
X60416089Y-38773045D01*
X60416090Y-38773048D01*
X60416091Y-38773049D01*
X60510302Y-38953407D01*
X60510304Y-38953409D01*
X60638890Y-39111109D01*
X60672142Y-39138222D01*
X60796593Y-39239698D01*
X60976951Y-39333909D01*
X61172582Y-39389886D01*
X61291963Y-39400500D01*
X62408036Y-39400499D01*
X62527418Y-39389886D01*
X62723049Y-39333909D01*
X62903407Y-39239698D01*
X63061109Y-39111109D01*
X63189698Y-38953407D01*
X63283909Y-38773049D01*
X63339886Y-38577418D01*
X63350500Y-38458037D01*
X63350499Y-35541964D01*
X63339886Y-35422582D01*
X63283909Y-35226951D01*
X63189698Y-35046593D01*
X63137684Y-34982803D01*
X63061109Y-34888890D01*
X62933188Y-34784585D01*
X62903407Y-34760302D01*
X62723049Y-34666091D01*
X62723048Y-34666090D01*
X62723045Y-34666089D01*
X62605829Y-34632550D01*
X62527418Y-34610114D01*
X62527415Y-34610113D01*
X62527413Y-34610113D01*
X62461102Y-34604217D01*
X62408037Y-34599500D01*
X62408032Y-34599500D01*
X61291971Y-34599500D01*
X61291965Y-34599500D01*
X61291964Y-34599501D01*
X61280316Y-34600536D01*
X61172584Y-34610113D01*
X60976954Y-34666089D01*
X60886772Y-34713196D01*
X60796593Y-34760302D01*
X60796591Y-34760303D01*
X60796590Y-34760304D01*
X60638890Y-34888890D01*
X60510304Y-35046590D01*
X60416089Y-35226954D01*
X60360114Y-35422583D01*
X60360113Y-35422586D01*
X60349500Y-35541966D01*
X56241559Y-35541966D01*
X56155051Y-35372184D01*
X56155049Y-35372181D01*
X56155048Y-35372179D01*
X56030109Y-35200213D01*
X55879786Y-35049890D01*
X55707817Y-34924949D01*
X55687245Y-34914467D01*
X55636450Y-34866493D01*
X55619655Y-34798672D01*
X55621068Y-34784585D01*
X55628975Y-34734660D01*
X55143218Y-34248903D01*
X66650000Y-34248903D01*
X66650000Y-34300000D01*
X67750000Y-34300000D01*
X68550000Y-34300000D01*
X69650000Y-34300000D01*
X69650000Y-34248903D01*
X69647102Y-34206175D01*
X69601168Y-34021476D01*
X69518082Y-33853947D01*
X69518080Y-33853945D01*
X69516605Y-33850972D01*
X69477365Y-33802155D01*
X71650000Y-33802155D01*
X71650000Y-34300000D01*
X72600000Y-34300000D01*
X72600000Y-33350000D01*
X72102155Y-33350000D01*
X72042627Y-33356401D01*
X72042620Y-33356403D01*
X71907913Y-33406645D01*
X71907906Y-33406649D01*
X71792812Y-33492809D01*
X71792809Y-33492812D01*
X71706649Y-33607906D01*
X71706645Y-33607913D01*
X71656403Y-33742620D01*
X71656401Y-33742627D01*
X71650000Y-33802155D01*
X69477365Y-33802155D01*
X69397367Y-33702633D01*
X69397366Y-33702632D01*
X69249025Y-33583392D01*
X69249022Y-33583390D01*
X69078523Y-33498831D01*
X68893824Y-33452897D01*
X68851097Y-33450000D01*
X68550000Y-33450000D01*
X68550000Y-34300000D01*
X67750000Y-34300000D01*
X67750000Y-33450000D01*
X67448903Y-33450000D01*
X67406175Y-33452897D01*
X67221476Y-33498831D01*
X67050977Y-33583390D01*
X67050974Y-33583392D01*
X66902633Y-33702632D01*
X66902632Y-33702633D01*
X66783392Y-33850974D01*
X66783390Y-33850977D01*
X66698831Y-34021476D01*
X66652897Y-34206175D01*
X66650000Y-34248903D01*
X55143218Y-34248903D01*
X55000001Y-34105686D01*
X55000000Y-34105686D01*
X54371023Y-34734660D01*
X54378931Y-34784586D01*
X54369975Y-34853880D01*
X54324978Y-34907331D01*
X54312756Y-34914466D01*
X54292180Y-34924950D01*
X54120213Y-35049890D01*
X53969890Y-35200213D01*
X53844951Y-35372179D01*
X53748444Y-35561585D01*
X53682753Y-35763760D01*
X53649500Y-35973713D01*
X40900500Y-35973713D01*
X40900500Y-33433753D01*
X53650000Y-33433753D01*
X53650000Y-33646246D01*
X53683242Y-33856127D01*
X53683242Y-33856130D01*
X53748904Y-34058217D01*
X53748906Y-34058220D01*
X53805338Y-34168975D01*
X54434314Y-33540000D01*
X54368488Y-33474174D01*
X54500000Y-33474174D01*
X54500000Y-33605826D01*
X54534075Y-33732993D01*
X54599901Y-33847007D01*
X54692993Y-33940099D01*
X54807007Y-34005925D01*
X54934174Y-34040000D01*
X55065826Y-34040000D01*
X55192993Y-34005925D01*
X55307007Y-33940099D01*
X55400099Y-33847007D01*
X55465925Y-33732993D01*
X55500000Y-33605826D01*
X55500000Y-33539999D01*
X55565686Y-33539999D01*
X55565686Y-33540001D01*
X56194660Y-34168975D01*
X56194661Y-34168975D01*
X56251090Y-34058228D01*
X56251091Y-34058226D01*
X56316757Y-33856130D01*
X56316757Y-33856127D01*
X56350000Y-33646246D01*
X56350000Y-33433753D01*
X56316757Y-33223872D01*
X56316757Y-33223869D01*
X56251095Y-33021782D01*
X56194660Y-32911023D01*
X55565686Y-33539999D01*
X55500000Y-33539999D01*
X55500000Y-33474174D01*
X55465925Y-33347007D01*
X55400099Y-33232993D01*
X55307007Y-33139901D01*
X55192993Y-33074075D01*
X55065826Y-33040000D01*
X54934174Y-33040000D01*
X54807007Y-33074075D01*
X54692993Y-33139901D01*
X54599901Y-33232993D01*
X54534075Y-33347007D01*
X54500000Y-33474174D01*
X54368488Y-33474174D01*
X53805337Y-32911023D01*
X53748905Y-33021780D01*
X53748905Y-33021781D01*
X53683242Y-33223869D01*
X53683242Y-33223872D01*
X53650000Y-33433753D01*
X40900500Y-33433753D01*
X40900500Y-32224500D01*
X40920185Y-32157461D01*
X40972989Y-32111706D01*
X41024500Y-32100500D01*
X53650249Y-32100500D01*
X53717288Y-32120185D01*
X53749515Y-32150188D01*
X53754960Y-32157461D01*
X53792454Y-32207546D01*
X53792457Y-32207548D01*
X53907664Y-32293793D01*
X53907671Y-32293797D01*
X53952618Y-32310561D01*
X54042517Y-32344091D01*
X54102127Y-32350500D01*
X54324824Y-32350499D01*
X54391862Y-32370183D01*
X54412504Y-32386818D01*
X55000000Y-32974314D01*
X55000001Y-32974314D01*
X55587495Y-32386818D01*
X55648818Y-32353333D01*
X55675174Y-32350499D01*
X55897872Y-32350499D01*
X55957483Y-32344091D01*
X56092331Y-32293796D01*
X56207546Y-32207546D01*
X56293796Y-32092331D01*
X56344091Y-31957483D01*
X56350500Y-31897873D01*
X56350499Y-30102128D01*
X56344091Y-30042517D01*
X56293796Y-29907669D01*
X56293793Y-29907664D01*
X56272119Y-29878711D01*
X158149500Y-29878711D01*
X158149500Y-30121288D01*
X158181161Y-30361785D01*
X158243947Y-30596104D01*
X158336773Y-30820205D01*
X158336776Y-30820212D01*
X158458064Y-31030289D01*
X158458066Y-31030292D01*
X158458067Y-31030293D01*
X158605733Y-31222736D01*
X158605739Y-31222743D01*
X158777256Y-31394260D01*
X158777262Y-31394265D01*
X158969711Y-31541936D01*
X159179788Y-31663224D01*
X159403900Y-31756054D01*
X159638211Y-31818838D01*
X159818586Y-31842584D01*
X159878711Y-31850500D01*
X159878712Y-31850500D01*
X160121289Y-31850500D01*
X160169388Y-31844167D01*
X160361789Y-31818838D01*
X160596100Y-31756054D01*
X160820212Y-31663224D01*
X161030289Y-31541936D01*
X161222738Y-31394265D01*
X161394265Y-31222738D01*
X161541936Y-31030289D01*
X161663224Y-30820212D01*
X161756054Y-30596100D01*
X161818838Y-30361789D01*
X161850500Y-30121288D01*
X161850500Y-29878712D01*
X161818838Y-29638211D01*
X161756054Y-29403900D01*
X161663224Y-29179788D01*
X161541936Y-28969711D01*
X161394265Y-28777262D01*
X161394260Y-28777256D01*
X161222743Y-28605739D01*
X161222736Y-28605733D01*
X161030293Y-28458067D01*
X161030292Y-28458066D01*
X161030289Y-28458064D01*
X160820212Y-28336776D01*
X160820205Y-28336773D01*
X160596104Y-28243947D01*
X160361785Y-28181161D01*
X160121289Y-28149500D01*
X160121288Y-28149500D01*
X159878712Y-28149500D01*
X159878711Y-28149500D01*
X159638214Y-28181161D01*
X159403895Y-28243947D01*
X159179794Y-28336773D01*
X159179785Y-28336777D01*
X158969706Y-28458067D01*
X158777263Y-28605733D01*
X158777256Y-28605739D01*
X158605739Y-28777256D01*
X158605733Y-28777263D01*
X158458067Y-28969706D01*
X158336777Y-29179785D01*
X158336773Y-29179794D01*
X158243947Y-29403895D01*
X158181161Y-29638214D01*
X158149500Y-29878711D01*
X56272119Y-29878711D01*
X56207547Y-29792455D01*
X56207544Y-29792452D01*
X56092335Y-29706206D01*
X56092328Y-29706202D01*
X55957482Y-29655908D01*
X55957483Y-29655908D01*
X55897883Y-29649501D01*
X55897881Y-29649500D01*
X55897873Y-29649500D01*
X55897865Y-29649500D01*
X55822889Y-29649500D01*
X55755850Y-29629815D01*
X55735208Y-29613181D01*
X55577512Y-29455485D01*
X55577510Y-29455483D01*
X55386433Y-29316657D01*
X55175996Y-29209433D01*
X54951368Y-29136446D01*
X54718097Y-29099500D01*
X54718092Y-29099500D01*
X39518092Y-29099500D01*
X39281908Y-29099500D01*
X39281903Y-29099500D01*
X39048631Y-29136446D01*
X38824003Y-29209433D01*
X38613566Y-29316657D01*
X38504550Y-29395862D01*
X38422490Y-29455483D01*
X38422488Y-29455485D01*
X38422487Y-29455485D01*
X38255485Y-29622487D01*
X38255485Y-29622488D01*
X38255483Y-29622490D01*
X38231203Y-29655909D01*
X38116657Y-29813566D01*
X38009433Y-30024003D01*
X37936446Y-30248631D01*
X37899500Y-30481902D01*
X37899500Y-39650249D01*
X37879815Y-39717288D01*
X37849812Y-39749515D01*
X37792457Y-39792451D01*
X37792451Y-39792457D01*
X37706206Y-39907664D01*
X37706202Y-39907671D01*
X37655908Y-40042517D01*
X37649501Y-40102116D01*
X37649500Y-40102135D01*
X26000000Y-40102135D01*
X26000000Y-29878711D01*
X28149500Y-29878711D01*
X28149500Y-30121288D01*
X28181161Y-30361785D01*
X28243947Y-30596104D01*
X28336773Y-30820205D01*
X28336776Y-30820212D01*
X28458064Y-31030289D01*
X28458066Y-31030292D01*
X28458067Y-31030293D01*
X28605733Y-31222736D01*
X28605739Y-31222743D01*
X28777256Y-31394260D01*
X28777262Y-31394265D01*
X28969711Y-31541936D01*
X29179788Y-31663224D01*
X29403900Y-31756054D01*
X29638211Y-31818838D01*
X29818586Y-31842584D01*
X29878711Y-31850500D01*
X29878712Y-31850500D01*
X30121289Y-31850500D01*
X30169388Y-31844167D01*
X30361789Y-31818838D01*
X30596100Y-31756054D01*
X30820212Y-31663224D01*
X31030289Y-31541936D01*
X31222738Y-31394265D01*
X31394265Y-31222738D01*
X31541936Y-31030289D01*
X31663224Y-30820212D01*
X31756054Y-30596100D01*
X31818838Y-30361789D01*
X31850500Y-30121288D01*
X31850500Y-29878712D01*
X31818838Y-29638211D01*
X31756054Y-29403900D01*
X31663224Y-29179788D01*
X31541936Y-28969711D01*
X31394265Y-28777262D01*
X31394260Y-28777256D01*
X31222743Y-28605739D01*
X31222736Y-28605733D01*
X31030293Y-28458067D01*
X31030292Y-28458066D01*
X31030289Y-28458064D01*
X30820212Y-28336776D01*
X30820205Y-28336773D01*
X30596104Y-28243947D01*
X30361785Y-28181161D01*
X30121289Y-28149500D01*
X30121288Y-28149500D01*
X29878712Y-28149500D01*
X29878711Y-28149500D01*
X29638214Y-28181161D01*
X29403895Y-28243947D01*
X29179794Y-28336773D01*
X29179785Y-28336777D01*
X28969706Y-28458067D01*
X28777263Y-28605733D01*
X28777256Y-28605739D01*
X28605739Y-28777256D01*
X28605733Y-28777263D01*
X28458067Y-28969706D01*
X28336777Y-29179785D01*
X28336773Y-29179794D01*
X28243947Y-29403895D01*
X28181161Y-29638214D01*
X28149500Y-29878711D01*
X26000000Y-29878711D01*
X26000000Y-26124000D01*
X26019685Y-26056961D01*
X26072489Y-26011206D01*
X26124000Y-26000000D01*
X163876000Y-26000000D01*
X163943039Y-26019685D01*
G37*
%TD.AperFunction*%
%TD*%
M02*
