%TF.GenerationSoftware,KiCad,Pcbnew,10.0.5*%
%TF.CreationDate,2026-08-21T07:14:12+02:00*%
%TF.ProjectId,BS-02,42532d30-322e-46b6-9963-61645f706362,rev?*%
%TF.SameCoordinates,Original*%
%TF.FileFunction,Soldermask,Top*%
%TF.FilePolarity,Negative*%
%FSLAX46Y46*%
G04 Gerber Fmt 4.6, Leading zero omitted, Abs format (unit mm)*
G04 Created by KiCad (PCBNEW 10.0.5) date 2026-08-21 07:14:12*
%MOMM*%
%LPD*%
G01*
G04 APERTURE LIST*
G04 Aperture macros list*
%AMRoundRect*
0 Rectangle with rounded corners*
0 $1 Rounding radius*
0 $2 $3 $4 $5 $6 $7 $8 $9 X,Y pos of 4 corners*
0 Add a 4 corners polygon primitive as box body*
4,1,4,$2,$3,$4,$5,$6,$7,$8,$9,$2,$3,0*
0 Add four circle primitives for the rounded corners*
1,1,$1+$1,$2,$3*
1,1,$1+$1,$4,$5*
1,1,$1+$1,$6,$7*
1,1,$1+$1,$8,$9*
0 Add four rect primitives between the rounded corners*
20,1,$1+$1,$2,$3,$4,$5,0*
20,1,$1+$1,$4,$5,$6,$7,0*
20,1,$1+$1,$6,$7,$8,$9,0*
20,1,$1+$1,$8,$9,$2,$3,0*%
G04 Aperture macros list end*
%ADD10C,1.600000*%
%ADD11RoundRect,0.250000X-0.550000X-0.550000X0.550000X-0.550000X0.550000X0.550000X-0.550000X0.550000X0*%
%ADD12C,3.200000*%
%ADD13R,1.700000X1.700000*%
%ADD14C,1.700000*%
%ADD15R,1.800000X1.800000*%
%ADD16C,1.800000*%
G04 APERTURE END LIST*
D10*
%TO.C,R4*%
X55000000Y-119000000D03*
X55000000Y-126620000D03*
%TD*%
%TO.C,C2*%
X33000000Y-79000000D03*
X38000000Y-79000000D03*
%TD*%
D11*
%TO.C,C5*%
X33000000Y-59000000D03*
D10*
X35500000Y-59000000D03*
%TD*%
%TO.C,R6*%
X123000000Y-51000000D03*
X130620000Y-51000000D03*
%TD*%
D12*
%TO.C,MH4*%
X160000000Y-140000000D03*
%TD*%
D10*
%TO.C,R2*%
X81000000Y-119000000D03*
X81000000Y-126620000D03*
%TD*%
D13*
%TO.C,J2*%
X151000000Y-107000000D03*
D14*
X151000000Y-109540000D03*
X151000000Y-112080000D03*
%TD*%
D15*
%TO.C,LED4*%
X55000000Y-135000000D03*
D16*
X55000000Y-132460000D03*
%TD*%
D10*
%TO.C,C1*%
X33000000Y-69000000D03*
X38000000Y-69000000D03*
%TD*%
D13*
%TO.C,U1B*%
X98400000Y-59000000D03*
D14*
X98400000Y-61540000D03*
X98400000Y-64080000D03*
X98400000Y-66620000D03*
X98400000Y-69160000D03*
X98400000Y-71700000D03*
X98400000Y-74240000D03*
X98400000Y-76780000D03*
X98400000Y-79320000D03*
X98400000Y-81860000D03*
X98400000Y-84400000D03*
X98400000Y-86940000D03*
X98400000Y-89480000D03*
X98400000Y-92020000D03*
X98400000Y-94560000D03*
X98400000Y-97100000D03*
X98400000Y-99640000D03*
X98400000Y-102180000D03*
X98400000Y-104720000D03*
%TD*%
D12*
%TO.C,MH2*%
X160000000Y-30000000D03*
%TD*%
D10*
%TO.C,R3*%
X91000000Y-119000000D03*
X91000000Y-126620000D03*
%TD*%
D13*
%TO.C,U4*%
X55000000Y-31000000D03*
D14*
X55000000Y-33540000D03*
X55000000Y-36080000D03*
X55000000Y-38620000D03*
%TD*%
D12*
%TO.C,MH1*%
X30000000Y-30000000D03*
%TD*%
D15*
%TO.C,LED2*%
X81000000Y-135000000D03*
D16*
X81000000Y-132460000D03*
%TD*%
D13*
%TO.C,CN2*%
X147000000Y-87000000D03*
D14*
X147000000Y-89540000D03*
X147000000Y-92080000D03*
X147000000Y-94620000D03*
%TD*%
D13*
%TO.C,U3*%
X147000000Y-51000000D03*
D14*
X147000000Y-53540000D03*
X147000000Y-56080000D03*
X147000000Y-58620000D03*
%TD*%
D13*
%TO.C,U1A*%
X73000000Y-59000000D03*
D14*
X73000000Y-61540000D03*
X73000000Y-64080000D03*
X73000000Y-66620000D03*
X73000000Y-69160000D03*
X73000000Y-71700000D03*
X73000000Y-74240000D03*
X73000000Y-76780000D03*
X73000000Y-79320000D03*
X73000000Y-81860000D03*
X73000000Y-84400000D03*
X73000000Y-86940000D03*
X73000000Y-89480000D03*
X73000000Y-92020000D03*
X73000000Y-94560000D03*
X73000000Y-97100000D03*
X73000000Y-99640000D03*
X73000000Y-102180000D03*
X73000000Y-104720000D03*
%TD*%
D13*
%TO.C,CN1*%
X39000000Y-41000000D03*
D14*
X39000000Y-43540000D03*
%TD*%
D10*
%TO.C,R5*%
X123000000Y-45000000D03*
X130620000Y-45000000D03*
%TD*%
D12*
%TO.C,MH3*%
X30000000Y-140000000D03*
%TD*%
D13*
%TO.C,J1*%
X107000000Y-104110000D03*
D14*
X107000000Y-106650000D03*
X107000000Y-109190000D03*
X107000000Y-111730000D03*
X107000000Y-114270000D03*
X107000000Y-116810000D03*
X107000000Y-119350000D03*
X107000000Y-121890000D03*
%TD*%
D15*
%TO.C,LED3*%
X91000000Y-135000000D03*
D16*
X91000000Y-132460000D03*
%TD*%
D10*
%TO.C,R1*%
X71000000Y-119000000D03*
X71000000Y-126620000D03*
%TD*%
D13*
%TO.C,J3*%
X73000000Y-34700000D03*
D14*
X73000000Y-37240000D03*
X73000000Y-39780000D03*
%TD*%
D15*
%TO.C,LED1*%
X71000000Y-135000000D03*
D16*
X71000000Y-132460000D03*
%TD*%
M02*
