M48
; DRILL file KiCad 10.0.5 date 2026-08-21T07:14:13
; FORMAT={-:-/ absolute / metric / decimal}
; #@! TF.CreationDate,2026-08-21T07:14:13+02:00
; #@! TF.GenerationSoftware,Kicad,Pcbnew,10.0.5
; #@! TF.FileFunction,Plated,1,2,PTH
FMAT,2
METRIC
; #@! TA.AperFunction,Plated,PTH,ComponentDrill
T1C0.800
; #@! TA.AperFunction,Plated,PTH,ComponentDrill
T2C0.900
; #@! TA.AperFunction,Plated,PTH,ComponentDrill
T3C1.000
%
G90
G05
T1
X33.0Y-59.0
X33.0Y-69.0
X33.0Y-79.0
X35.5Y-59.0
X38.0Y-69.0
X38.0Y-79.0
X55.0Y-119.0
X55.0Y-126.62
X71.0Y-119.0
X71.0Y-126.62
X81.0Y-119.0
X81.0Y-126.62
X91.0Y-119.0
X91.0Y-126.62
X123.0Y-45.0
X123.0Y-51.0
X130.62Y-45.0
X130.62Y-51.0
T2
X55.0Y-132.46
X55.0Y-135.0
X71.0Y-132.46
X71.0Y-135.0
X81.0Y-132.46
X81.0Y-135.0
X91.0Y-132.46
X91.0Y-135.0
T3
X39.0Y-41.0
X39.0Y-43.54
X55.0Y-31.0
X55.0Y-33.54
X55.0Y-36.08
X55.0Y-38.62
X73.0Y-34.7
X73.0Y-37.24
X73.0Y-39.78
X73.0Y-59.0
X73.0Y-61.54
X73.0Y-64.08
X73.0Y-66.62
X73.0Y-69.16
X73.0Y-71.7
X73.0Y-74.24
X73.0Y-76.78
X73.0Y-79.32
X73.0Y-81.86
X73.0Y-84.4
X73.0Y-86.94
X73.0Y-89.48
X73.0Y-92.02
X73.0Y-94.56
X73.0Y-97.1
X73.0Y-99.64
X73.0Y-102.18
X73.0Y-104.72
X98.4Y-59.0
X98.4Y-61.54
X98.4Y-64.08
X98.4Y-66.62
X98.4Y-69.16
X98.4Y-71.7
X98.4Y-74.24
X98.4Y-76.78
X98.4Y-79.32
X98.4Y-81.86
X98.4Y-84.4
X98.4Y-86.94
X98.4Y-89.48
X98.4Y-92.02
X98.4Y-94.56
X98.4Y-97.1
X98.4Y-99.64
X98.4Y-102.18
X98.4Y-104.72
X107.0Y-104.11
X107.0Y-106.65
X107.0Y-109.19
X107.0Y-111.73
X107.0Y-114.27
X107.0Y-116.81
X107.0Y-119.35
X107.0Y-121.89
X147.0Y-51.0
X147.0Y-53.54
X147.0Y-56.08
X147.0Y-58.62
X147.0Y-87.0
X147.0Y-89.54
X147.0Y-92.08
X147.0Y-94.62
X151.0Y-107.0
X151.0Y-109.54
X151.0Y-112.08
M30
