M48
; DRILL file KiCad 10.0.5 date 2026-08-21T07:14:15
; FORMAT={-:-/ absolute / metric / decimal}
; #@! TF.CreationDate,2026-08-21T07:14:15+02:00
; #@! TF.GenerationSoftware,Kicad,Pcbnew,10.0.5
; #@! TF.FileFunction,Plated,1,2,PTH
FMAT,2
METRIC
; #@! TA.AperFunction,Plated,PTH,ComponentDrill
T1C0.800
; #@! TA.AperFunction,Plated,PTH,ComponentDrill
T2C0.900
; #@! TA.AperFunction,Plated,PTH,ComponentDrill
T3C1.000
%
G90
G05
T1
X33.0Y-57.0
X35.5Y-57.0
X55.0Y-49.0
X55.0Y-56.62
X55.0Y-59.0
X55.0Y-66.62
X61.0Y-137.0
X61.0Y-144.62
X83.0Y-45.0
X83.0Y-52.0
X88.0Y-45.0
X88.0Y-52.0
X151.0Y-75.0
X151.0Y-81.0
X151.0Y-91.0
X156.0Y-91.0
X157.0Y-113.0
X157.0Y-120.62
X158.62Y-75.0
X158.62Y-81.0
T2
X61.0Y-150.46
X61.0Y-153.0
T3
X33.0Y-35.0
X33.0Y-37.54
X33.0Y-45.0
X33.0Y-47.54
X43.0Y-33.0
X43.0Y-35.54
X43.0Y-38.08
X43.0Y-40.62
X43.0Y-43.16
X43.0Y-45.7
X53.0Y-33.0
X53.0Y-35.54
X53.0Y-38.08
X53.0Y-40.62
X77.0Y-65.0
X77.0Y-67.54
X77.0Y-70.08
X77.0Y-72.62
X77.0Y-75.16
X77.0Y-77.7
X77.0Y-80.24
X77.0Y-82.78
X77.0Y-85.32
X77.0Y-87.86
X77.0Y-90.4
X77.0Y-92.94
X77.0Y-95.48
X77.0Y-98.02
X77.0Y-100.56
X77.0Y-103.1
X77.0Y-105.64
X77.0Y-108.18
X77.0Y-110.72
X78.0Y-38.7
X78.0Y-41.24
X78.0Y-43.78
X102.4Y-65.0
X102.4Y-67.54
X102.4Y-70.08
X102.4Y-72.62
X102.4Y-75.16
X102.4Y-77.7
X102.4Y-80.24
X102.4Y-82.78
X102.4Y-85.32
X102.4Y-87.86
X102.4Y-90.4
X102.4Y-92.94
X102.4Y-95.48
X102.4Y-98.02
X102.4Y-100.56
X102.4Y-103.1
X102.4Y-105.64
X102.4Y-108.18
X102.4Y-110.72
X113.0Y-128.11
X113.0Y-130.65
X113.0Y-133.19
X113.0Y-135.73
X113.0Y-138.27
X113.0Y-140.81
X113.0Y-143.35
X113.0Y-145.89
X151.0Y-131.0
X151.0Y-133.54
X151.0Y-136.08
X165.0Y-55.0
X165.0Y-57.54
X165.0Y-60.08
X165.0Y-62.62
X165.0Y-75.0
X165.0Y-77.54
X165.0Y-80.08
X165.0Y-82.62
X165.0Y-85.16
X165.0Y-87.7
X165.0Y-90.24
X165.0Y-92.78
X165.0Y-101.0
X165.0Y-103.54
X165.0Y-106.08
X165.0Y-108.62
X165.0Y-111.16
X165.0Y-121.0
X165.0Y-123.54
X165.0Y-126.08
X165.0Y-137.0
X165.0Y-139.54
X165.0Y-142.08
X165.0Y-144.62
M30
