%TF.GenerationSoftware,KiCad,Pcbnew,10.0.5*%
%TF.CreationDate,2026-08-21T07:14:14+02:00*%
%TF.ProjectId,CN-02,434e2d30-322e-46b6-9963-61645f706362,rev?*%
%TF.SameCoordinates,Original*%
%TF.FileFunction,Copper,L1,Top*%
%TF.FilePolarity,Positive*%
%FSLAX46Y46*%
G04 Gerber Fmt 4.6, Leading zero omitted, Abs format (unit mm)*
G04 Created by KiCad (PCBNEW 10.0.5) date 2026-08-21 07:14:14*
%MOMM*%
%LPD*%
G01*
G04 APERTURE LIST*
G04 Aperture macros list*
%AMRoundRect*
0 Rectangle with rounded corners*
0 $1 Rounding radius*
0 $2 $3 $4 $5 $6 $7 $8 $9 X,Y pos of 4 corners*
0 Add a 4 corners polygon primitive as box body*
4,1,4,$2,$3,$4,$5,$6,$7,$8,$9,$2,$3,0*
0 Add four circle primitives for the rounded corners*
1,1,$1+$1,$2,$3*
1,1,$1+$1,$4,$5*
1,1,$1+$1,$6,$7*
1,1,$1+$1,$8,$9*
0 Add four rect primitives between the rounded corners*
20,1,$1+$1,$2,$3,$4,$5,0*
20,1,$1+$1,$4,$5,$6,$7,0*
20,1,$1+$1,$6,$7,$8,$9,0*
20,1,$1+$1,$8,$9,$2,$3,0*%
G04 Aperture macros list end*
%TA.AperFunction,ComponentPad*%
%ADD10R,1.700000X1.700000*%
%TD*%
%TA.AperFunction,ComponentPad*%
%ADD11C,1.700000*%
%TD*%
%TA.AperFunction,ComponentPad*%
%ADD12R,1.800000X1.800000*%
%TD*%
%TA.AperFunction,ComponentPad*%
%ADD13C,1.800000*%
%TD*%
%TA.AperFunction,ComponentPad*%
%ADD14C,1.600000*%
%TD*%
%TA.AperFunction,ComponentPad*%
%ADD15RoundRect,0.250000X-0.550000X-0.550000X0.550000X-0.550000X0.550000X0.550000X-0.550000X0.550000X0*%
%TD*%
%TA.AperFunction,Conductor*%
%ADD16C,0.400000*%
%TD*%
G04 APERTURE END LIST*
D10*
%TO.P,J1,1*%
%TO.N,GND*%
X113000000Y-128110000D03*
D11*
%TO.P,J1,2*%
%TO.N,LORA_NSS*%
X113000000Y-130650000D03*
%TO.P,J1,3*%
%TO.N,SPI_MOSI*%
X113000000Y-133190000D03*
%TO.P,J1,4*%
%TO.N,SPI_MISO*%
X113000000Y-135730000D03*
%TO.P,J1,5*%
%TO.N,SPI_SCK*%
X113000000Y-138270000D03*
%TO.P,J1,6*%
%TO.N,GND*%
X113000000Y-140810000D03*
%TO.P,J1,7*%
X113000000Y-143350000D03*
%TO.P,J1,8*%
X113000000Y-145890000D03*
%TD*%
D12*
%TO.P,LED1,1*%
%TO.N,GND*%
X61000000Y-153000000D03*
D13*
%TO.P,LED1,2*%
%TO.N,K1*%
X61000000Y-150460000D03*
%TD*%
D14*
%TO.P,R2,1*%
%TO.N,VBAT*%
X55000000Y-49000000D03*
%TO.P,R2,2*%
%TO.N,VBAT_SENSE*%
X55000000Y-56620000D03*
%TD*%
%TO.P,R3,1*%
%TO.N,VBAT_SENSE*%
X55000000Y-59000000D03*
%TO.P,R3,2*%
%TO.N,GND*%
X55000000Y-66620000D03*
%TD*%
D10*
%TO.P,J2,1*%
%TO.N,+3V3*%
X151000000Y-131000000D03*
D11*
%TO.P,J2,2*%
%TO.N,LORA_RST*%
X151000000Y-133540000D03*
%TO.P,J2,3*%
%TO.N,LORA_DIO0*%
X151000000Y-136080000D03*
%TD*%
D10*
%TO.P,CN2,1*%
%TO.N,VSOL*%
X33000000Y-45000000D03*
D11*
%TO.P,CN2,2*%
%TO.N,GND*%
X33000000Y-47540000D03*
%TD*%
D14*
%TO.P,C4,1*%
%TO.N,+3V3*%
X151000000Y-91000000D03*
%TO.P,C4,2*%
%TO.N,GND*%
X156000000Y-91000000D03*
%TD*%
D10*
%TO.P,CN3,1*%
%TO.N,+3V3*%
X165000000Y-121000000D03*
D11*
%TO.P,CN3,2*%
%TO.N,DS18B20*%
X165000000Y-123540000D03*
%TO.P,CN3,3*%
%TO.N,GND*%
X165000000Y-126080000D03*
%TD*%
D10*
%TO.P,U1B,1*%
%TO.N,GND*%
X102400000Y-65000000D03*
D11*
%TO.P,U1B,2*%
%TO.N,SPI_MOSI*%
X102400000Y-67540000D03*
%TO.P,U1B,3*%
%TO.N,I2C_SCL*%
X102400000Y-70080000D03*
%TO.P,U1B,4*%
%TO.N,TX0*%
X102400000Y-72620000D03*
%TO.P,U1B,5*%
%TO.N,RX0*%
X102400000Y-75160000D03*
%TO.P,U1B,6*%
%TO.N,I2C_SDA*%
X102400000Y-77700000D03*
%TO.P,U1B,7*%
%TO.N,GND*%
X102400000Y-80240000D03*
%TO.P,U1B,8*%
%TO.N,SPI_MISO*%
X102400000Y-82780000D03*
%TO.P,U1B,9*%
%TO.N,SPI_SCK*%
X102400000Y-85320000D03*
%TO.P,U1B,10*%
%TO.N,LORA_NSS*%
X102400000Y-87860000D03*
%TO.P,U1B,11*%
%TO.N,GPS_RX*%
X102400000Y-90400000D03*
%TO.P,U1B,12*%
%TO.N,GPS_TX*%
X102400000Y-92940000D03*
%TO.P,U1B,13*%
%TO.N,DS18B20*%
X102400000Y-95480000D03*
%TO.P,U1B,14*%
%TO.N,N/C*%
X102400000Y-98020000D03*
%TO.P,U1B,15*%
%TO.N,LED1_A*%
X102400000Y-100560000D03*
%TO.P,U1B,16*%
%TO.N,N/C*%
X102400000Y-103100000D03*
%TO.P,U1B,17*%
X102400000Y-105640000D03*
%TO.P,U1B,18*%
X102400000Y-108180000D03*
%TO.P,U1B,19*%
X102400000Y-110720000D03*
%TD*%
D15*
%TO.P,C1,1*%
%TO.N,+3V3*%
X33000000Y-57000000D03*
D14*
%TO.P,C1,2*%
%TO.N,GND*%
X35500000Y-57000000D03*
%TD*%
%TO.P,C2,1*%
%TO.N,+3V3*%
X83000000Y-45000000D03*
%TO.P,C2,2*%
%TO.N,GND*%
X88000000Y-45000000D03*
%TD*%
D10*
%TO.P,U4,1*%
%TO.N,+3V3*%
X165000000Y-75000000D03*
D11*
%TO.P,U4,2*%
%TO.N,GND*%
X165000000Y-77540000D03*
%TO.P,U4,3*%
%TO.N,I2C_SCL*%
X165000000Y-80080000D03*
%TO.P,U4,4*%
%TO.N,I2C_SDA*%
X165000000Y-82620000D03*
%TO.P,U4,5*%
%TO.N,N/C*%
X165000000Y-85160000D03*
%TO.P,U4,6*%
X165000000Y-87700000D03*
%TO.P,U4,7*%
%TO.N,GND*%
X165000000Y-90240000D03*
%TO.P,U4,8*%
%TO.N,MPU_INT*%
X165000000Y-92780000D03*
%TD*%
D14*
%TO.P,R4,1*%
%TO.N,LED1_A*%
X61000000Y-137000000D03*
%TO.P,R4,2*%
%TO.N,K1*%
X61000000Y-144620000D03*
%TD*%
D10*
%TO.P,U9,1*%
%TO.N,VBAT*%
X53000000Y-33000000D03*
D11*
%TO.P,U9,2*%
%TO.N,GND*%
X53000000Y-35540000D03*
%TO.P,U9,3*%
%TO.N,+5V*%
X53000000Y-38080000D03*
%TO.P,U9,4*%
%TO.N,GND*%
X53000000Y-40620000D03*
%TD*%
D14*
%TO.P,R1,1*%
%TO.N,+3V3*%
X157000000Y-113000000D03*
%TO.P,R1,2*%
%TO.N,DS18B20*%
X157000000Y-120620000D03*
%TD*%
D10*
%TO.P,J3,1*%
%TO.N,GND*%
X78000000Y-38700000D03*
D11*
%TO.P,J3,2*%
%TO.N,+3V3*%
X78000000Y-41240000D03*
%TO.P,J3,3*%
%TO.N,+5V*%
X78000000Y-43780000D03*
%TD*%
D14*
%TO.P,C3,1*%
%TO.N,+3V3*%
X83000000Y-52000000D03*
%TO.P,C3,2*%
%TO.N,GND*%
X88000000Y-52000000D03*
%TD*%
D10*
%TO.P,U7,1*%
%TO.N,VSOL*%
X43000000Y-33000000D03*
D11*
%TO.P,U7,2*%
%TO.N,GND*%
X43000000Y-35540000D03*
%TO.P,U7,3*%
%TO.N,VBAT*%
X43000000Y-38080000D03*
%TO.P,U7,4*%
%TO.N,GND*%
X43000000Y-40620000D03*
%TO.P,U7,5*%
%TO.N,VBAT*%
X43000000Y-43160000D03*
%TO.P,U7,6*%
%TO.N,GND*%
X43000000Y-45700000D03*
%TD*%
D10*
%TO.P,U2,1*%
%TO.N,+3V3*%
X165000000Y-55000000D03*
D11*
%TO.P,U2,2*%
%TO.N,GPS_RX*%
X165000000Y-57540000D03*
%TO.P,U2,3*%
%TO.N,GPS_TX*%
X165000000Y-60080000D03*
%TO.P,U2,4*%
%TO.N,GND*%
X165000000Y-62620000D03*
%TD*%
D10*
%TO.P,CN1,1*%
%TO.N,VBAT*%
X33000000Y-35000000D03*
D11*
%TO.P,CN1,2*%
%TO.N,GND*%
X33000000Y-37540000D03*
%TD*%
D14*
%TO.P,R5,1*%
%TO.N,+3V3*%
X151000000Y-75000000D03*
%TO.P,R5,2*%
%TO.N,I2C_SDA*%
X158620000Y-75000000D03*
%TD*%
%TO.P,R6,1*%
%TO.N,+3V3*%
X151000000Y-81000000D03*
%TO.P,R6,2*%
%TO.N,I2C_SCL*%
X158620000Y-81000000D03*
%TD*%
D10*
%TO.P,U5,1*%
%TO.N,+3V3*%
X165000000Y-101000000D03*
D11*
%TO.P,U5,2*%
%TO.N,GND*%
X165000000Y-103540000D03*
%TO.P,U5,3*%
%TO.N,I2C_SCL*%
X165000000Y-106080000D03*
%TO.P,U5,4*%
%TO.N,I2C_SDA*%
X165000000Y-108620000D03*
%TO.P,U5,5*%
%TO.N,N/C*%
X165000000Y-111160000D03*
%TD*%
D10*
%TO.P,CN4,1*%
%TO.N,+5V*%
X165000000Y-137000000D03*
D11*
%TO.P,CN4,2*%
%TO.N,GND*%
X165000000Y-139540000D03*
%TO.P,CN4,3*%
%TO.N,RX0*%
X165000000Y-142080000D03*
%TO.P,CN4,4*%
%TO.N,TX0*%
X165000000Y-144620000D03*
%TD*%
D10*
%TO.P,U1A,1*%
%TO.N,N/C*%
X77000000Y-65000000D03*
D11*
%TO.P,U1A,2*%
X77000000Y-67540000D03*
%TO.P,U1A,3*%
X77000000Y-70080000D03*
%TO.P,U1A,4*%
X77000000Y-72620000D03*
%TO.P,U1A,5*%
%TO.N,VBAT_SENSE*%
X77000000Y-75160000D03*
%TO.P,U1A,6*%
%TO.N,MPU_INT*%
X77000000Y-77700000D03*
%TO.P,U1A,7*%
%TO.N,N/C*%
X77000000Y-80240000D03*
%TO.P,U1A,8*%
X77000000Y-82780000D03*
%TO.P,U1A,9*%
X77000000Y-85320000D03*
%TO.P,U1A,10*%
%TO.N,LORA_DIO0*%
X77000000Y-87860000D03*
%TO.P,U1A,11*%
%TO.N,N/C*%
X77000000Y-90400000D03*
%TO.P,U1A,12*%
%TO.N,LORA_RST*%
X77000000Y-92940000D03*
%TO.P,U1A,13*%
%TO.N,N/C*%
X77000000Y-95480000D03*
%TO.P,U1A,14*%
%TO.N,GND*%
X77000000Y-98020000D03*
%TO.P,U1A,15*%
%TO.N,N/C*%
X77000000Y-100560000D03*
%TO.P,U1A,16*%
X77000000Y-103100000D03*
%TO.P,U1A,17*%
X77000000Y-105640000D03*
%TO.P,U1A,18*%
X77000000Y-108180000D03*
%TO.P,U1A,19*%
%TO.N,+5V*%
X77000000Y-110720000D03*
%TD*%
%TO.N,VBAT*%
D16*
X45000000Y-31000000D02*
X45000000Y-37800000D01*
X43400000Y-42600000D02*
X45000000Y-42600000D01*
X45000000Y-33400000D02*
X45000000Y-37800000D01*
X52600000Y-33400000D02*
X45000000Y-33400000D01*
X33400000Y-31000000D02*
X45000000Y-31000000D01*
X45000000Y-37800000D02*
X43400000Y-37800000D01*
X45000000Y-42600000D02*
X45000000Y-38600000D01*
X33400000Y-34600000D02*
X33400000Y-31000000D01*
X45000000Y-37800000D02*
X43400000Y-37800000D01*
X45000000Y-38600000D02*
X43400000Y-38600000D01*
%TO.N,VSOL*%
X41000000Y-33400000D02*
X42600000Y-33400000D01*
X33400000Y-44600000D02*
X41000000Y-44600000D01*
X41000000Y-44600000D02*
X41000000Y-33400000D01*
%TO.N,+5V*%
X79800000Y-36600000D02*
X79800000Y-43400000D01*
X76600000Y-110200000D02*
X75000000Y-110200000D01*
X53400000Y-37800000D02*
X76200000Y-37800000D01*
X76200000Y-37800000D02*
X76200000Y-36600000D01*
X75000000Y-110200000D02*
X75000000Y-44200000D01*
X79800000Y-43400000D02*
X78200000Y-43400000D01*
X75000000Y-44200000D02*
X77400000Y-44200000D01*
X76200000Y-36600000D02*
X79800000Y-36600000D01*
%TO.N,+3V3*%
X164600000Y-120600000D02*
X164600000Y-113400000D01*
X73400000Y-51000000D02*
X73400000Y-41800000D01*
X164600000Y-113400000D02*
X157400000Y-113400000D01*
X33400000Y-51000000D02*
X73400000Y-51000000D01*
X164600000Y-101400000D02*
X157400000Y-101400000D01*
X157400000Y-101400000D02*
X157400000Y-112600000D01*
X73400000Y-41800000D02*
X77400000Y-41800000D01*
X83000000Y-51800000D02*
X83000000Y-45400000D01*
X33400000Y-56600000D02*
X33400000Y-51000000D01*
%TO.N,VBAT_SENSE*%
X55000000Y-58600000D02*
X55000000Y-57000000D01*
%TO.N,MPU_INT*%
X77400000Y-77400000D02*
X100600000Y-77400000D01*
X163000000Y-92200000D02*
X164600000Y-92200000D01*
X163000000Y-63000000D02*
X163000000Y-92200000D01*
X100600000Y-63000000D02*
X163000000Y-63000000D01*
X100600000Y-77400000D02*
X100600000Y-63000000D01*
%TO.N,LORA_DIO0*%
X149000000Y-126200000D02*
X149000000Y-135800000D01*
X77400000Y-88200000D02*
X100600000Y-88200000D01*
X149000000Y-135800000D02*
X150600000Y-135800000D01*
X100600000Y-88200000D02*
X100600000Y-126200000D01*
X100600000Y-126200000D02*
X149000000Y-126200000D01*
%TO.N,LORA_RST*%
X99000000Y-147800000D02*
X153000000Y-147800000D01*
X99000000Y-93400000D02*
X99000000Y-147800000D01*
X153000000Y-133800000D02*
X151400000Y-133800000D01*
X77400000Y-93400000D02*
X99000000Y-93400000D01*
X153000000Y-147800000D02*
X153000000Y-133800000D01*
%TO.N,I2C_SCL*%
X103000000Y-70600000D02*
X156600000Y-70600000D01*
X156600000Y-80600000D02*
X158200000Y-80600000D01*
X156600000Y-70600000D02*
X156600000Y-80600000D01*
%TO.N,GPS_RX*%
X149000000Y-94600000D02*
X167000000Y-94600000D01*
X167000000Y-94600000D02*
X167000000Y-57800000D01*
X103000000Y-91000000D02*
X149000000Y-91000000D01*
X167000000Y-57800000D02*
X165400000Y-57800000D01*
X149000000Y-91000000D02*
X149000000Y-94600000D01*
%TO.N,GPS_TX*%
X103000000Y-93400000D02*
X147400000Y-93400000D01*
X163000000Y-59800000D02*
X164600000Y-59800000D01*
X147400000Y-93400000D02*
X147400000Y-96200000D01*
X168600000Y-96200000D02*
X168600000Y-53000000D01*
X163000000Y-53000000D02*
X163000000Y-59800000D01*
X147400000Y-96200000D02*
X168600000Y-96200000D01*
X168600000Y-53000000D02*
X163000000Y-53000000D01*
%TO.N,DS18B20*%
X145800000Y-95800000D02*
X145800000Y-120200000D01*
X157400000Y-123000000D02*
X157400000Y-121000000D01*
X103000000Y-95800000D02*
X145800000Y-95800000D01*
X164600000Y-123000000D02*
X157400000Y-123000000D01*
X145800000Y-120200000D02*
X156600000Y-120200000D01*
%TO.N,LED1_A*%
X63000000Y-137400000D02*
X61400000Y-137400000D01*
X144200000Y-101000000D02*
X144200000Y-124600000D01*
X63000000Y-149400000D02*
X63000000Y-137400000D01*
X154600000Y-149400000D02*
X63000000Y-149400000D01*
X144200000Y-124600000D02*
X154600000Y-124600000D01*
X154600000Y-124600000D02*
X154600000Y-149400000D01*
X103000000Y-101000000D02*
X144200000Y-101000000D01*
%TD*%
M02*
