%TF.GenerationSoftware,KiCad,Pcbnew,10.0.5*%
%TF.CreationDate,2026-08-21T07:14:14+02:00*%
%TF.ProjectId,CN-02,434e2d30-322e-46b6-9963-61645f706362,rev?*%
%TF.SameCoordinates,Original*%
%TF.FileFunction,Soldermask,Top*%
%TF.FilePolarity,Negative*%
%FSLAX46Y46*%
G04 Gerber Fmt 4.6, Leading zero omitted, Abs format (unit mm)*
G04 Created by KiCad (PCBNEW 10.0.5) date 2026-08-21 07:14:14*
%MOMM*%
%LPD*%
G01*
G04 APERTURE LIST*
G04 Aperture macros list*
%AMRoundRect*
0 Rectangle with rounded corners*
0 $1 Rounding radius*
0 $2 $3 $4 $5 $6 $7 $8 $9 X,Y pos of 4 corners*
0 Add a 4 corners polygon primitive as box body*
4,1,4,$2,$3,$4,$5,$6,$7,$8,$9,$2,$3,0*
0 Add four circle primitives for the rounded corners*
1,1,$1+$1,$2,$3*
1,1,$1+$1,$4,$5*
1,1,$1+$1,$6,$7*
1,1,$1+$1,$8,$9*
0 Add four rect primitives between the rounded corners*
20,1,$1+$1,$2,$3,$4,$5,0*
20,1,$1+$1,$4,$5,$6,$7,0*
20,1,$1+$1,$6,$7,$8,$9,0*
20,1,$1+$1,$8,$9,$2,$3,0*%
G04 Aperture macros list end*
%ADD10R,1.700000X1.700000*%
%ADD11C,1.700000*%
%ADD12R,1.800000X1.800000*%
%ADD13C,1.800000*%
%ADD14C,1.600000*%
%ADD15C,3.200000*%
%ADD16RoundRect,0.250000X-0.550000X-0.550000X0.550000X-0.550000X0.550000X0.550000X-0.550000X0.550000X0*%
G04 APERTURE END LIST*
D10*
%TO.C,J1*%
X113000000Y-128110000D03*
D11*
X113000000Y-130650000D03*
X113000000Y-133190000D03*
X113000000Y-135730000D03*
X113000000Y-138270000D03*
X113000000Y-140810000D03*
X113000000Y-143350000D03*
X113000000Y-145890000D03*
%TD*%
D12*
%TO.C,LED1*%
X61000000Y-153000000D03*
D13*
X61000000Y-150460000D03*
%TD*%
D14*
%TO.C,R2*%
X55000000Y-49000000D03*
X55000000Y-56620000D03*
%TD*%
%TO.C,R3*%
X55000000Y-59000000D03*
X55000000Y-66620000D03*
%TD*%
D10*
%TO.C,J2*%
X151000000Y-131000000D03*
D11*
X151000000Y-133540000D03*
X151000000Y-136080000D03*
%TD*%
D10*
%TO.C,CN2*%
X33000000Y-45000000D03*
D11*
X33000000Y-47540000D03*
%TD*%
D15*
%TO.C,MH4*%
X170000000Y-160000000D03*
%TD*%
D14*
%TO.C,C4*%
X151000000Y-91000000D03*
X156000000Y-91000000D03*
%TD*%
D10*
%TO.C,CN3*%
X165000000Y-121000000D03*
D11*
X165000000Y-123540000D03*
X165000000Y-126080000D03*
%TD*%
D10*
%TO.C,U1B*%
X102400000Y-65000000D03*
D11*
X102400000Y-67540000D03*
X102400000Y-70080000D03*
X102400000Y-72620000D03*
X102400000Y-75160000D03*
X102400000Y-77700000D03*
X102400000Y-80240000D03*
X102400000Y-82780000D03*
X102400000Y-85320000D03*
X102400000Y-87860000D03*
X102400000Y-90400000D03*
X102400000Y-92940000D03*
X102400000Y-95480000D03*
X102400000Y-98020000D03*
X102400000Y-100560000D03*
X102400000Y-103100000D03*
X102400000Y-105640000D03*
X102400000Y-108180000D03*
X102400000Y-110720000D03*
%TD*%
D16*
%TO.C,C1*%
X33000000Y-57000000D03*
D14*
X35500000Y-57000000D03*
%TD*%
%TO.C,C2*%
X83000000Y-45000000D03*
X88000000Y-45000000D03*
%TD*%
D10*
%TO.C,U4*%
X165000000Y-75000000D03*
D11*
X165000000Y-77540000D03*
X165000000Y-80080000D03*
X165000000Y-82620000D03*
X165000000Y-85160000D03*
X165000000Y-87700000D03*
X165000000Y-90240000D03*
X165000000Y-92780000D03*
%TD*%
D14*
%TO.C,R4*%
X61000000Y-137000000D03*
X61000000Y-144620000D03*
%TD*%
D10*
%TO.C,U9*%
X53000000Y-33000000D03*
D11*
X53000000Y-35540000D03*
X53000000Y-38080000D03*
X53000000Y-40620000D03*
%TD*%
D14*
%TO.C,R1*%
X157000000Y-113000000D03*
X157000000Y-120620000D03*
%TD*%
D15*
%TO.C,MH2*%
X170000000Y-30000000D03*
%TD*%
D10*
%TO.C,J3*%
X78000000Y-38700000D03*
D11*
X78000000Y-41240000D03*
X78000000Y-43780000D03*
%TD*%
D14*
%TO.C,C3*%
X83000000Y-52000000D03*
X88000000Y-52000000D03*
%TD*%
D15*
%TO.C,MH3*%
X30000000Y-160000000D03*
%TD*%
D10*
%TO.C,U7*%
X43000000Y-33000000D03*
D11*
X43000000Y-35540000D03*
X43000000Y-38080000D03*
X43000000Y-40620000D03*
X43000000Y-43160000D03*
X43000000Y-45700000D03*
%TD*%
D10*
%TO.C,U2*%
X165000000Y-55000000D03*
D11*
X165000000Y-57540000D03*
X165000000Y-60080000D03*
X165000000Y-62620000D03*
%TD*%
D10*
%TO.C,CN1*%
X33000000Y-35000000D03*
D11*
X33000000Y-37540000D03*
%TD*%
D15*
%TO.C,MH1*%
X30000000Y-30000000D03*
%TD*%
D14*
%TO.C,R5*%
X151000000Y-75000000D03*
X158620000Y-75000000D03*
%TD*%
%TO.C,R6*%
X151000000Y-81000000D03*
X158620000Y-81000000D03*
%TD*%
D10*
%TO.C,U5*%
X165000000Y-101000000D03*
D11*
X165000000Y-103540000D03*
X165000000Y-106080000D03*
X165000000Y-108620000D03*
X165000000Y-111160000D03*
%TD*%
D10*
%TO.C,CN4*%
X165000000Y-137000000D03*
D11*
X165000000Y-139540000D03*
X165000000Y-142080000D03*
X165000000Y-144620000D03*
%TD*%
D10*
%TO.C,U1A*%
X77000000Y-65000000D03*
D11*
X77000000Y-67540000D03*
X77000000Y-70080000D03*
X77000000Y-72620000D03*
X77000000Y-75160000D03*
X77000000Y-77700000D03*
X77000000Y-80240000D03*
X77000000Y-82780000D03*
X77000000Y-85320000D03*
X77000000Y-87860000D03*
X77000000Y-90400000D03*
X77000000Y-92940000D03*
X77000000Y-95480000D03*
X77000000Y-98020000D03*
X77000000Y-100560000D03*
X77000000Y-103100000D03*
X77000000Y-105640000D03*
X77000000Y-108180000D03*
X77000000Y-110720000D03*
%TD*%
M02*
